999
dxfrw 0.6.3
  0
SECTION
  2
HEADER
  9
$ACADVER
  1
AC1021
  9
$DWGCODEPAGE
  3
ANSI_1252
  9
$INSBASE
 10
0
 20
0
 30
0
  9
$EXTMIN
 10
-1201.067390011086
 20
976.2758944241986
 30
0
  9
$EXTMAX
 10
2400
 20
3114.513858557261
 30
0
  9
$LIMMIN
 10
0
 20
0
  9
$LIMMAX
 10
70
 20
70
  9
$ORTHOMODE
 70
    0
  9
$REGENMODE
 70
    1
  9
$FILLMODE
 70
    1
  9
$QTEXTMODE
 70
    0
  9
$MIRRTEXT
 70
    0
  9
$LTSCALE
 40
1
  9
$ATTMODE
 70
    0
  9
$TEXTSIZE
 40
5
  9
$TRACEWID
 40
15.68
  9
$TEXTSTYLE
  7
Standard
  9
$CLAYER
  8
dimensions
  9
$CELTYPE
  6
ByLayer
  9
$CECOLOR
 62
  256
  9
$CELTSCALE
 40
1
  9
$DISPSILH
 70
    0
  9
$DIMSCALE
 40
1
  9
$DIMASZ
 40
35
  9
$DIMEXO
 40
0.625
  9
$DIMDLI
 40
0.9
  9
$DIMRND
 40
0
  9
$DIMDLE
 40
0
  9
$DIMEXE
 40
1.25
  9
$DIMTP
 40
0
  9
$DIMTM
 40
0
  9
$DIMTXT
 40
50
  9
$DIMCEN
 40
1.09
  9
$DIMTSZ
 40
0
  9
$DIMTOL
 70
    0
  9
$DIMLIM
 70
    0
  9
$DIMTIH
 70
    0
  9
$DIMTOH
 70
    1
  9
$DIMSE1
 70
    0
  9
$DIMSE2
 70
    0
  9
$DIMTAD
 70
    0
  9
$DIMZIN
 70
    1
  9
$DIMBLK
  1

  9
$DIMASO
 70
    1
  9
$DIMSHO
 70
    1
  9
$DIMPOST
  1

  9
$DIMAPOST
  1

  9
$DIMALT
 70
    0
  9
$DIMALTD
 70
    2
  9
$DIMALTF
 40
25.4
  9
$DIMLFAC
 40
1
  9
$DIMTOFL
 70
    0
  9
$DIMTVP
 40
0
  9
$DIMTIX
 70
    0
  9
$DIMSOXD
 70
    0
  9
$DIMSAH
 70
    0
  9
$DIMBLK1
  1

  9
$DIMBLK2
  1

  9
$DIMSTYLE
  2
standard
  9
$DIMCLRD
 70
    0
  9
$DIMCLRE
 70
    0
  9
$DIMCLRT
 70
    0
  9
$DIMTFAC
 40
1
  9
$DIMGAP
 40
0.625
  9
$DIMJUST
 70
    0
  9
$DIMSD1
 70
    0
  9
$DIMSD2
 70
    0
  9
$DIMTOLJ
 70
    1
  9
$DIMTZIN
 70
    0
  9
$DIMALTZ
 70
    0
  9
$DIMALTTZ
 70
    0
  9
$DIMUPT
 70
    0
  9
$DIMDEC
 70
    2
  9
$DIMTDEC
 70
    2
  9
$DIMALTU
 70
    2
  9
$DIMALTTD
 70
    2
  9
$DIMTXSTY
  7
standard
  9
$DIMAUNIT
 70
    0
  9
$DIMADEC
 70
    0
  9
$DIMALTRND
 40
0
  9
$DIMAZIN
 70
    0
  9
$DIMDSEP
 70
    0
  9
$DIMATFIT
 70
    1
  9
$DIMFRAC
 70
    0
  9
$DIMLDRBLK
  1

  9
$DIMLUNIT
 70
    2
  9
$DIMLWD
 70
   -1
  9
$DIMLWE
 70
   -2
  9
$DIMTMOVE
 70
    0
  9
$DIMFXL
 40
1
  9
$DIMFXLON
 70
    0
  9
$DIMJOGANG
 40
0.7854
  9
$DIMTFILL
 70
    0
  9
$DIMTFILLCLR
 70
    0
  9
$DIMARCSYM
 70
    0
  9
$DIMLTYPE
  6

  9
$DIMLTEX1
  6

  9
$DIMLTEX2
  6

  9
$LUNITS
 70
    2
  9
$LUPREC
 70
    2
  9
$SKETCHINC
 40
1
  9
$FILLETRAD
 40
40
  9
$AUNITS
 70
    0
  9
$AUPREC
 70
    2
  9
$MENU
  1
.
  9
$ELEVATION
 40
0
  9
$PELEVATION
 40
0
  9
$THICKNESS
 40
0
  9
$LIMCHECK
 70
    0
  9
$CHAMFERA
 40
0
  9
$CHAMFERB
 40
0
  9
$CHAMFERC
 40
0
  9
$CHAMFERD
 40
0
  9
$SKPOLY
 70
    0
  9
$USRTIMER
 70
    1
  9
$ANGBASE
 50
0
  9
$ANGDIR
 70
    0
  9
$PDMODE
 70
   34
  9
$PDSIZE
 40
0
  9
$PLINEWID
 40
0
  9
$SPLFRAME
 70
    0
  9
$SPLINETYPE
 70
    6
  9
$SPLINESEGS
 70
    8
  9
$HANDSEED
  5
20000
  9
$SURFTAB1
 70
    6
  9
$SURFTAB2
 70
    6
  9
$SURFTYPE
 70
    6
  9
$SURFU
 70
    6
  9
$SURFV
 70
    6
  9
$UCSBASE
  2

  9
$UCSNAME
  2

  9
$UCSORG
 10
0
 20
0
 30
0
  9
$UCSXDIR
 10
-2e-16
 20
1
 30
0
  9
$UCSYDIR
 10
-1
 20
-2e-16
 30
0
  9
$UCSORTHOREF
  2

  9
$UCSORTHOVIEW
 70
    0
  9
$UCSORGTOP
 10
0
 20
0
 30
0
  9
$UCSORGBOTTOM
 10
0
 20
0
 30
0
  9
$UCSORGLEFT
 10
0
 20
0
 30
0
  9
$UCSORGRIGHT
 10
0
 20
0
 30
0
  9
$UCSORGFRONT
 10
0
 20
0
 30
0
  9
$UCSORGBACK
 10
0
 20
0
 30
0
  9
$PUCSBASE
  2

  9
$PUCSNAME
  2

  9
$PUCSORG
 10
0
 20
0
 30
0
  9
$PUCSXDIR
 10
1
 20
0
 30
0
  9
$PUCSYDIR
 10
0
 20
1
 30
0
  9
$PUCSORTHOREF
  2

  9
$PUCSORTHOVIEW
 70
    0
  9
$PUCSORGTOP
 10
0
 20
0
 30
0
  9
$PUCSORGBOTTOM
 10
0
 20
0
 30
0
  9
$PUCSORGLEFT
 10
0
 20
0
 30
0
  9
$PUCSORGRIGHT
 10
0
 20
0
 30
0
  9
$PUCSORGFRONT
 10
0
 20
0
 30
0
  9
$PUCSORGBACK
 10
0
 20
0
 30
0
  9
$USERI1
 70
    0
  9
$USERI2
 70
    0
  9
$USERI3
 70
    0
  9
$USERI4
 70
    0
  9
$USERI5
 70
    0
  9
$USERR1
 40
0
  9
$USERR2
 40
0
  9
$USERR3
 40
0
  9
$USERR4
 40
0
  9
$USERR5
 40
0
  9
$WORLDVIEW
 70
    1
  9
$SHADEDGE
 70
    3
  9
$SHADEDIF
 70
   70
  9
$TILEMODE
 70
    1
  9
$MAXACTVP
 70
   64
  9
$PINSBASE
 10
0
 20
0
 30
0
  9
$PLIMCHECK
 70
    0
  9
$PEXTMIN
 10
0
 20
0
 30
0
  9
$PEXTMAX
 10
0
 20
0
 30
0
  9
$GRIDMODE
 70
    1
  9
$SNAPSTYLE
 70
    0
  9
$GRIDUNIT
 10
0
 20
0
  9
$PLIMMIN
 10
0
 20
0
  9
$PLIMMAX
 10
210
 20
297
  9
$UNITMODE
 70
    0
  9
$VISRETAIN
 70
    1
  9
$PLINEGEN
 70
    0
  9
$PSLTSCALE
 70
    1
  9
$TREEDEPTH
 70
 3020
  9
$CMLSTYLE
  2
Standard
  9
$CMLJUST
 70
    0
  9
$CMLSCALE
 40
20
  9
$PROXYGRAPHICS
 70
    1
  9
$MEASUREMENT
 70
    1
  9
$CELWEIGHT
370
   -1
  9
$ENDCAPS
280
    0
  9
$JOINSTYLE
280
    0
  9
$LWDISPLAY
290
    0
  9
$INSUNITS
 70
    4
  9
$HYPERLINKBASE
  1

  9
$STYLESHEET
  1

  9
$XEDIT
290
    1
  9
$CEPSNTYPE
380
    0
  9
$PSTYLEMODE
290
    1
  9
$EXTNAMES
290
    1
  9
$PSVPSCALE
 40
1
  9
$OLESTARTUP
290
    0
  9
$SORTENTS
280
  127
  9
$INDEXCTL
280
    0
  9
$HIDETEXT
280
    1
  9
$XCLIPFRAME
290
    0
  9
$HALOGAP
280
    0
  9
$OBSCOLOR
 70
  257
  9
$OBSLTYPE
280
    0
  9
$INTERSECTIONDISPLAY
280
    0
  9
$INTERSECTIONCOLOR
 70
  257
  9
$DIMASSOC
280
    1
  9
$PROJECTNAME
  1

  9
$CAMERADISPLAY
290
    0
  9
$LENSLENGTH
 40
50
  9
$CAMERAHEIGHT
 40
0
  9
$STEPSPERSEC
 40
2
  9
$STEPSIZE
 40
50
  9
$3DDWFPREC
 40
2
  9
$PSOLWIDTH
 40
5
  9
$PSOLHEIGHT
 40
80
  9
$LOFTANG1
 40
1.570796326794897
  9
$LOFTANG2
 40
1.570796326794897
  9
$LOFTMAG1
 40
0
  9
$LOFTMAG2
 40
0
  9
$LOFTPARAM
 70
    7
  9
$LOFTNORMALS
280
    1
  9
$LATITUDE
 40
1
  9
$LONGITUDE
 40
1
  9
$NORTHDIRECTION
 40
0
  9
$TIMEZONE
 70
-8000
  9
$LIGHTGLYPHDISPLAY
280
    1
  9
$TILEMODELIGHTSYNCH
280
    1
  9
$SOLIDHIST
280
    1
  9
$SHOWHIST
280
    1
  9
$DWFFRAME
280
    2
  9
$DGNFRAME
280
    0
  9
$REALWORLDSCALE
290
    1
  9
$INTERFERECOLOR
 62
    1
  9
$CSHADOW
280
    0
  9
$SHADOWPLANELOCATION
 40
0
  0
ENDSEC
  0
SECTION
  2
CLASSES
  0
ENDSEC
  0
SECTION
  2
TABLES
  0
TABLE
  2
VPORT
  5
8
330
0
100
AcDbSymbolTable
 70
    1
  0
VPORT
  5
31
330
2
100
AcDbSymbolTableRecord
100
AcDbViewportTableRecord
  2
*ACTIVE
 70
    0
 10
0
 20
0
 11
1
 21
1
 12
1984.932102956946
 22
1763.688356465425
 13
0
 23
0
 14
10
 24
10
 15
10
 25
10
 16
0
 26
0
 36
1
 17
0
 27
0
 37
0
 40
3122.458912748255
 41
2.037433155080214
 42
50
 43
0
 44
0
 50
0
 51
0
 71
    0
 72
  100
 73
    1
 74
    3
 75
    0
 76
    1
 77
    0
 78
    0
281
    0
 65
    1
110
0
120
0
130
0
111
1
121
0
131
0
112
0
122
1
132
0
 79
    0
146
0
348
10020
 60
    7
 61
    5
292
1
282
    1
141
0
142
0
 63
  250
421
3358443
  0
ENDTAB
  0
TABLE
  2
LTYPE
  5
5
330
0
100
AcDbSymbolTable
 70
    4
  0
LTYPE
  5
14
330
5
100
AcDbSymbolTableRecord
100
AcDbLinetypeTableRecord
  2
ByBlock
 70
    0
  3

 72
   65
 73
    0
 40
0
  0
LTYPE
  5
15
330
5
100
AcDbSymbolTableRecord
100
AcDbLinetypeTableRecord
  2
ByLayer
 70
    0
  3

 72
   65
 73
    0
 40
0
  0
LTYPE
  5
16
330
5
100
AcDbSymbolTableRecord
100
AcDbLinetypeTableRecord
  2
Continuous
 70
    0
  3
Solid line
 72
   65
 73
    0
 40
0
  0
LTYPE
  5
32
330
5
100
AcDbSymbolTableRecord
100
AcDbLinetypeTableRecord
  2
DOT
 70
    0
  3
Dot . . . . . . . . . . . . . . . . . . . . . .
 72
   65
 73
    2
 40
6.35
 49
0
 74
    0
 49
-6.35
 74
    0
  0
LTYPE
  5
33
330
5
100
AcDbSymbolTableRecord
100
AcDbLinetypeTableRecord
  2
DOTTINY
 70
    0
  3
Dot (.15x) .....................................
 72
   65
 73
    2
 40
0.9525
 49
0
 74
    0
 49
-0.9525
 74
    0
  0
LTYPE
  5
34
330
5
100
AcDbSymbolTableRecord
100
AcDbLinetypeTableRecord
  2
DOT2
 70
    0
  3
Dot (.5x) .....................................
 72
   65
 73
    2
 40
3.175
 49
0
 74
    0
 49
-3.175
 74
    0
  0
LTYPE
  5
35
330
5
100
AcDbSymbolTableRecord
100
AcDbLinetypeTableRecord
  2
DOTX2
 70
    0
  3
Dot (2x) .  .  .  .  .  .  .  .  .  .  .  .  .
 72
   65
 73
    2
 40
12.7
 49
0
 74
    0
 49
-12.7
 74
    0
  0
LTYPE
  5
36
330
5
100
AcDbSymbolTableRecord
100
AcDbLinetypeTableRecord
  2
DASHED
 70
    0
  3
Dashed _ _ _ _ _ _ _ _ _ _ _ _ _ _ _ _ _
 72
   65
 73
    2
 40
19.05
 49
12.7
 74
    0
 49
-6.35
 74
    0
  0
LTYPE
  5
37
330
5
100
AcDbSymbolTableRecord
100
AcDbLinetypeTableRecord
  2
DASHEDTINY
 70
    0
  3
Dashed (.15x) _ _ _ _ _ _ _ _ _ _ _ _ _ _ _ _ _
 72
   65
 73
    2
 40
2.8575
 49
1.905
 74
    0
 49
-0.9525
 74
    0
  0
LTYPE
  5
38
330
5
100
AcDbSymbolTableRecord
100
AcDbLinetypeTableRecord
  2
DASHED2
 70
    0
  3
Dashed (.5x) _ _ _ _ _ _ _ _ _ _ _ _ _ _ _ _ _
 72
   65
 73
    2
 40
9.524999999999999
 49
6.35
 74
    0
 49
-3.175
 74
    0
  0
LTYPE
  5
39
330
5
100
AcDbSymbolTableRecord
100
AcDbLinetypeTableRecord
  2
DASHEDX2
 70
    0
  3
Dashed (2x) ____  ____  ____  ____  ____  ___
 72
   65
 73
    2
 40
38.09999999999999
 49
25.4
 74
    0
 49
-12.7
 74
    0
  0
LTYPE
  5
3A
330
5
100
AcDbSymbolTableRecord
100
AcDbLinetypeTableRecord
  2
DASHDOT
 70
    0
  3
Dash dot __ . __ . __ . __ . __ . __ . __ . __
 72
   65
 73
    4
 40
25.4
 49
12.7
 74
    0
 49
-6.35
 74
    0
 49
0
 74
    0
 49
-6.35
 74
    0
  0
LTYPE
  5
3B
330
5
100
AcDbSymbolTableRecord
100
AcDbLinetypeTableRecord
  2
DASHDOTTINY
 70
    0
  3
Dash dot (.15x) _._._._._._._._._._._._._._._.
 72
   65
 73
    4
 40
3.81
 49
1.905
 74
    0
 49
-0.9525
 74
    0
 49
0
 74
    0
 49
-0.9525
 74
    0
  0
LTYPE
  5
3C
330
5
100
AcDbSymbolTableRecord
100
AcDbLinetypeTableRecord
  2
DASHDOT2
 70
    0
  3
Dash dot (.5x) _._._._._._._._._._._._._._._.
 72
   65
 73
    4
 40
12.7
 49
6.35
 74
    0
 49
-3.175
 74
    0
 49
0
 74
    0
 49
-3.175
 74
    0
  0
LTYPE
  5
3D
330
5
100
AcDbSymbolTableRecord
100
AcDbLinetypeTableRecord
  2
DASHDOTX2
 70
    0
  3
Dash dot (2x) ____  .  ____  .  ____  .  ___
 72
   65
 73
    4
 40
50.8
 49
25.4
 74
    0
 49
-12.7
 74
    0
 49
0
 74
    0
 49
-12.7
 74
    0
  0
LTYPE
  5
3E
330
5
100
AcDbSymbolTableRecord
100
AcDbLinetypeTableRecord
  2
DIVIDE
 70
    0
  3
Divide ____ . . ____ . . ____ . . ____ . . ____
 72
   65
 73
    6
 40
31.75
 49
12.7
 74
    0
 49
-6.35
 74
    0
 49
0
 74
    0
 49
-6.35
 74
    0
 49
0
 74
    0
 49
-6.35
 74
    0
  0
LTYPE
  5
3F
330
5
100
AcDbSymbolTableRecord
100
AcDbLinetypeTableRecord
  2
DIVIDETINY
 70
    0
  3
Divide (.15x) __..__..__..__..__..__..__..__.._
 72
   65
 73
    6
 40
4.7625
 49
1.905
 74
    0
 49
-0.9525
 74
    0
 49
0
 74
    0
 49
-0.9525
 74
    0
 49
0
 74
    0
 49
-0.9525
 74
    0
  0
LTYPE
  5
40
330
5
100
AcDbSymbolTableRecord
100
AcDbLinetypeTableRecord
  2
DIVIDE2
 70
    0
  3
Divide (.5x) __..__..__..__..__..__..__..__.._
 72
   65
 73
    6
 40
15.875
 49
6.35
 74
    0
 49
-3.175
 74
    0
 49
0
 74
    0
 49
-3.175
 74
    0
 49
0
 74
    0
 49
-3.175
 74
    0
  0
LTYPE
  5
41
330
5
100
AcDbSymbolTableRecord
100
AcDbLinetypeTableRecord
  2
DIVIDEX2
 70
    0
  3
Divide (2x) ________  .  .  ________  .  .  _
 72
   65
 73
    6
 40
63.5
 49
25.4
 74
    0
 49
-12.7
 74
    0
 49
0
 74
    0
 49
-12.7
 74
    0
 49
0
 74
    0
 49
-12.7
 74
    0
  0
LTYPE
  5
42
330
5
100
AcDbSymbolTableRecord
100
AcDbLinetypeTableRecord
  2
BORDER
 70
    0
  3
Border __ __ . __ __ . __ __ . __ __ . __ __ .
 72
   65
 73
    6
 40
44.45
 49
12.7
 74
    0
 49
-6.35
 74
    0
 49
12.7
 74
    0
 49
-6.35
 74
    0
 49
0
 74
    0
 49
-6.35
 74
    0
  0
LTYPE
  5
43
330
5
100
AcDbSymbolTableRecord
100
AcDbLinetypeTableRecord
  2
BORDERTINY
 70
    0
  3
Border (.15x) __.__.__.__.__.__.__.__.__.__.__.
 72
   65
 73
    6
 40
6.6675
 49
1.905
 74
    0
 49
-0.9525
 74
    0
 49
1.905
 74
    0
 49
-0.9525
 74
    0
 49
0
 74
    0
 49
-0.9525
 74
    0
  0
LTYPE
  5
44
330
5
100
AcDbSymbolTableRecord
100
AcDbLinetypeTableRecord
  2
BORDER2
 70
    0
  3
Border (.5x) __.__.__.__.__.__.__.__.__.__.__.
 72
   65
 73
    6
 40
22.225
 49
6.35
 74
    0
 49
-3.175
 74
    0
 49
6.35
 74
    0
 49
-3.175
 74
    0
 49
0
 74
    0
 49
-3.175
 74
    0
  0
LTYPE
  5
45
330
5
100
AcDbSymbolTableRecord
100
AcDbLinetypeTableRecord
  2
BORDERX2
 70
    0
  3
Border (2x) ____  ____  .  ____  ____  .  ___
 72
   65
 73
    6
 40
88.89999999999999
 49
25.4
 74
    0
 49
-12.7
 74
    0
 49
25.4
 74
    0
 49
-12.7
 74
    0
 49
0
 74
    0
 49
-12.7
 74
    0
  0
LTYPE
  5
46
330
5
100
AcDbSymbolTableRecord
100
AcDbLinetypeTableRecord
  2
CENTER
 70
    0
  3
Center ____ _ ____ _ ____ _ ____ _ ____ _ ____
 72
   65
 73
    4
 40
50.8
 49
31.75
 74
    0
 49
-6.35
 74
    0
 49
6.35
 74
    0
 49
-6.35
 74
    0
  0
LTYPE
  5
47
330
5
100
AcDbSymbolTableRecord
100
AcDbLinetypeTableRecord
  2
CENTERTINY
 70
    0
  3
Center (.15x) ___ _ ___ _ ___ _ ___ _ ___ _ ___
 72
   65
 73
    4
 40
7.62
 49
4.7625
 74
    0
 49
-0.9525
 74
    0
 49
0.9525
 74
    0
 49
-0.9525
 74
    0
  0
LTYPE
  5
48
330
5
100
AcDbSymbolTableRecord
100
AcDbLinetypeTableRecord
  2
CENTER2
 70
    0
  3
Center (.5x) ___ _ ___ _ ___ _ ___ _ ___ _ ___
 72
   65
 73
    4
 40
28.575
 49
19.05
 74
    0
 49
-3.175
 74
    0
 49
3.175
 74
    0
 49
-3.175
 74
    0
  0
LTYPE
  5
49
330
5
100
AcDbSymbolTableRecord
100
AcDbLinetypeTableRecord
  2
CENTERX2
 70
    0
  3
Center (2x) ________  __  ________  __  _____
 72
   65
 73
    4
 40
101.6
 49
63.5
 74
    0
 49
-12.7
 74
    0
 49
12.7
 74
    0
 49
-12.7
 74
    0
  0
ENDTAB
  0
TABLE
  2
LAYER
  5
2
330
0
100
AcDbSymbolTable
 70
    1
  0
LAYER
  5
10
330
2
100
AcDbSymbolTableRecord
100
AcDbLayerTableRecord
  2
0
 70
    0
 62
    7
  6
CONTINUOUS
370
    0
390
F
  0
LAYER
  5
4A
330
2
100
AcDbSymbolTableRecord
100
AcDbLayerTableRecord
  2
Defpoints
 70
    0
 62
    7
  6
CONTINUOUS
290
0
370
   -3
390
F
  0
LAYER
  5
4B
330
2
100
AcDbSymbolTableRecord
100
AcDbLayerTableRecord
  2
column x
 70
    0
 62
    7
  6
CONTINUOUS
370
    0
390
F
  0
LAYER
  5
4C
330
2
100
AcDbSymbolTableRecord
100
AcDbLayerTableRecord
  2
dimensions
 70
    0
 62
    3
  6
CONTINUOUS
370
    0
390
F
  0
LAYER
  5
4D
330
2
100
AcDbSymbolTableRecord
100
AcDbLayerTableRecord
  2
footing bars
 70
    0
 62
   20
  6
BORDERTINY
370
    0
390
F
  0
LAYER
  5
4E
330
2
100
AcDbSymbolTableRecord
100
AcDbLayerTableRecord
  2
lateral ties
 70
    0
 62
    1
  6
CONTINUOUS
370
   30
390
F
  0
ENDTAB
  0
TABLE
  2
STYLE
  5
3
330
0
100
AcDbSymbolTable
 70
    3
  0
STYLE
  5
4F
330
2
100
AcDbSymbolTableRecord
100
AcDbTextStyleTableRecord
  2
amiri-regular
 70
    0
 40
0
 41
1
 50
0
 71
    0
 42
1
  3
amiri-regular
  4

  0
STYLE
  5
50
330
2
100
AcDbSymbolTableRecord
100
AcDbTextStyleTableRecord
  2
cyrillic_ii
 70
    0
 40
0
 41
1
 50
0
 71
    0
 42
1
  3
cyrillic_ii
  4

  0
STYLE
  5
51
330
2
100
AcDbSymbolTableRecord
100
AcDbTextStyleTableRecord
  2
Standard
 70
    0
 40
0
 41
1
 50
0
 71
    0
 42
1
  3
txt
  4

  0
ENDTAB
  0
TABLE
  2
VIEW
  5
6
330
0
100
AcDbSymbolTable
 70
    0
  0
ENDTAB
  0
TABLE
  2
UCS
  5
7
330
0
100
AcDbSymbolTable
 70
    0
  0
ENDTAB
  0
TABLE
  2
APPID
  5
9
330
0
100
AcDbSymbolTable
 70
    1
  0
APPID
  5
12
330
9
100
AcDbSymbolTableRecord
100
AcDbRegAppTableRecord
  2
ACAD
 70
    0
  0
APPID
  5
52
330
9
100
AcDbSymbolTableRecord
100
AcDbRegAppTableRecord
  2
LibreCad
 70
    0
  0
ENDTAB
  0
TABLE
  2
DIMSTYLE
  5
A
330
0
100
AcDbSymbolTable
 70
    1
100
AcDbDimStyleTable
 71
    1
  0
DIMSTYLE
105
53
330
A
100
AcDbSymbolTableRecord
100
AcDbDimStyleTableRecord
  2
Standard
 70
    0
 40
1
 41
35
 42
0.625
 43
0.38
 44
1.25
 45
0
 46
0
 47
0
 48
0
 49
1
140
50
141
0.09
142
0
143
25.4
144
1
145
0
146
1
147
0.625
148
0
 71
    0
 72
    0
 73
    0
 74
    1
 75
    0
 76
    0
 77
    0
 78
    1
 79
    0
170
    0
171
    2
172
    0
173
    0
174
    0
175
    0
176
    0
177
    0
178
    0
179
    0
271
    2
272
    4
273
    2
274
    2
275
    0
276
    0
277
    2
278
    0
279
    0
280
    0
281
    0
282
    0
283
    1
284
    0
285
    0
286
    0
288
    0
289
    3
340
standard
341

371
   -1
372
   -2
  0
ENDTAB
  0
TABLE
  2
BLOCK_RECORD
  5
1
330
0
100
AcDbSymbolTable
 70
    2
  0
BLOCK_RECORD
  5
1F
330
1
100
AcDbSymbolTableRecord
100
AcDbBlockTableRecord
  2
*Model_Space
 70
    0
280
    1
281
    0
  0
BLOCK_RECORD
  5
1E
330
1
100
AcDbSymbolTableRecord
100
AcDbBlockTableRecord
  2
*Paper_Space
 70
    0
280
    1
281
    0
  0
BLOCK_RECORD
  5
54
330
1
100
AcDbSymbolTableRecord
100
AcDbBlockTableRecord
  2
*D2
 70
    0
280
    1
281
    0
  0
BLOCK_RECORD
  5
57
330
1
100
AcDbSymbolTableRecord
100
AcDbBlockTableRecord
  2
*D11
 70
    0
280
    1
281
    0
  0
BLOCK_RECORD
  5
5A
330
1
100
AcDbSymbolTableRecord
100
AcDbBlockTableRecord
  2
*D8
 70
    0
280
    1
281
    0
  0
BLOCK_RECORD
  5
5D
330
1
100
AcDbSymbolTableRecord
100
AcDbBlockTableRecord
  2
*D13
 70
    0
280
    1
281
    0
  0
BLOCK_RECORD
  5
60
330
1
100
AcDbSymbolTableRecord
100
AcDbBlockTableRecord
  2
*D3
 70
    0
280
    1
281
    0
  0
BLOCK_RECORD
  5
63
330
1
100
AcDbSymbolTableRecord
100
AcDbBlockTableRecord
  2
*D1
 70
    0
280
    1
281
    0
  0
BLOCK_RECORD
  5
66
330
1
100
AcDbSymbolTableRecord
100
AcDbBlockTableRecord
  2
*D5
 70
    0
280
    1
281
    0
  0
BLOCK_RECORD
  5
69
330
1
100
AcDbSymbolTableRecord
100
AcDbBlockTableRecord
  2
*D7
 70
    0
280
    1
281
    0
  0
BLOCK_RECORD
  5
6C
330
1
100
AcDbSymbolTableRecord
100
AcDbBlockTableRecord
  2
*D10
 70
    0
280
    1
281
    0
  0
BLOCK_RECORD
  5
6F
330
1
100
AcDbSymbolTableRecord
100
AcDbBlockTableRecord
  2
*D4
 70
    0
280
    1
281
    0
  0
BLOCK_RECORD
  5
72
330
1
100
AcDbSymbolTableRecord
100
AcDbBlockTableRecord
  2
*D6
 70
    0
280
    1
281
    0
  0
BLOCK_RECORD
  5
75
330
1
100
AcDbSymbolTableRecord
100
AcDbBlockTableRecord
  2
*D9
 70
    0
280
    1
281
    0
  0
BLOCK_RECORD
  5
78
330
1
100
AcDbSymbolTableRecord
100
AcDbBlockTableRecord
  2
*D12
 70
    0
280
    1
281
    0
  0
BLOCK_RECORD
  5
7B
330
1
100
AcDbSymbolTableRecord
100
AcDbBlockTableRecord
  2
_Oblique
 70
    0
280
    1
281
    0
  0
BLOCK_RECORD
  5
7E
330
1
100
AcDbSymbolTableRecord
100
AcDbBlockTableRecord
  2
_ArchTick
 70
    0
280
    1
281
    0
  0
BLOCK_RECORD
  5
81
330
1
100
AcDbSymbolTableRecord
100
AcDbBlockTableRecord
  2
_ClosedBlank
 70
    0
280
    1
281
    0
  0
BLOCK_RECORD
  5
84
330
1
100
AcDbSymbolTableRecord
100
AcDbBlockTableRecord
  2
wickets
 70
    0
280
    1
281
    0
  0
BLOCK_RECORD
  5
87
330
1
100
AcDbSymbolTableRecord
100
AcDbBlockTableRecord
  2
16mm dia bars
 70
    0
280
    1
281
    0
  0
BLOCK_RECORD
  5
8A
330
1
100
AcDbSymbolTableRecord
100
AcDbBlockTableRecord
  2
*U7
 70
    0
280
    1
281
    0
  0
BLOCK_RECORD
  5
8D
330
1
100
AcDbSymbolTableRecord
100
AcDbBlockTableRecord
  2
*U8
 70
    0
280
    1
281
    0
  0
BLOCK_RECORD
  5
90
330
1
100
AcDbSymbolTableRecord
100
AcDbBlockTableRecord
  2
_DetailCallout
 70
    0
280
    1
281
    0
  0
BLOCK_RECORD
  5
93
330
1
100
AcDbSymbolTableRecord
100
AcDbBlockTableRecord
  2
*U96
 70
    0
280
    1
281
    0
  0
BLOCK_RECORD
  5
96
330
1
100
AcDbSymbolTableRecord
100
AcDbBlockTableRecord
  2
*U97
 70
    0
280
    1
281
    0
  0
BLOCK_RECORD
  5
99
330
1
100
AcDbSymbolTableRecord
100
AcDbBlockTableRecord
  2
*U98
 70
    0
280
    1
281
    0
  0
BLOCK_RECORD
  5
9C
330
1
100
AcDbSymbolTableRecord
100
AcDbBlockTableRecord
  2
*U99
 70
    0
280
    1
281
    0
  0
BLOCK_RECORD
  5
9F
330
1
100
AcDbSymbolTableRecord
100
AcDbBlockTableRecord
  2
*U100
 70
    0
280
    1
281
    0
  0
BLOCK_RECORD
  5
A2
330
1
100
AcDbSymbolTableRecord
100
AcDbBlockTableRecord
  2
*U101
 70
    0
280
    1
281
    0
  0
BLOCK_RECORD
  5
A5
330
1
100
AcDbSymbolTableRecord
100
AcDbBlockTableRecord
  2
*U102
 70
    0
280
    1
281
    0
  0
BLOCK_RECORD
  5
A8
330
1
100
AcDbSymbolTableRecord
100
AcDbBlockTableRecord
  2
*U103
 70
    0
280
    1
281
    0
  0
BLOCK_RECORD
  5
AB
330
1
100
AcDbSymbolTableRecord
100
AcDbBlockTableRecord
  2
*U104
 70
    0
280
    1
281
    0
  0
BLOCK_RECORD
  5
AE
330
1
100
AcDbSymbolTableRecord
100
AcDbBlockTableRecord
  2
*U105
 70
    0
280
    1
281
    0
  0
BLOCK_RECORD
  5
B1
330
1
100
AcDbSymbolTableRecord
100
AcDbBlockTableRecord
  2
*U106
 70
    0
280
    1
281
    0
  0
ENDTAB
  0
ENDSEC
  0
SECTION
  2
BLOCKS
  0
BLOCK
  5
20
330
1F
100
AcDbEntity
  8
0
100
AcDbBlockBegin
  2
*Model_Space
 70
    0
 10
0
 20
0
 30
0
  3
*Model_Space
  1

  0
ENDBLK
  5
21
330
1F
100
AcDbEntity
  8
0
100
AcDbBlockEnd
  0
BLOCK
  5
1C
330
1B
100
AcDbEntity
  8
0
100
AcDbBlockBegin
  2
*Paper_Space
 70
    0
 10
0
 20
0
 30
0
  3
*Paper_Space
  1

  0
ENDBLK
  5
1D
330
1F
100
AcDbEntity
  8
0
100
AcDbBlockEnd
  0
BLOCK
  5
55
330
54
100
AcDbEntity
  8
0
100
AcDbBlockBegin
  2
*D2
 70
    1
 10
0
 20
0
  3
*D2
  1

  0
LINE
  5
B4
100
AcDbEntity
  8
dimensions
  6
ByBlock
 62
    0
370
   -1
100
AcDbLine
 10
143.0716783829083
 20
2994.624768667572
 11
323.0716783829083
 21
2994.624768667572
  0
MTEXT
  5
B5
100
AcDbEntity
  8
dimensions
  6
CONTINUOUS
 62
    0
370
   -2
100
AcDbMText
 10
334.2522339384639
 20
3020.249768667572
 30
0
 40
50
 41
161.1111111111111
 71
    5
 72
    1
  1
40.00
  7
standard
210
0
220
0
230
1
 50
0
 73
    2
 44
1
  0
SOLID
  5
B6
100
AcDbEntity
  8
dimensions
  6
ByBlock
 62
    0
370
   -1
100
AcDbTrace
 10
213.0716783829083
 20
2994.624768667572
 30
0
 11
178.0716783829083
 21
2988.796783458752
 31
0
 12
178.0716783829083
 22
3000.452753876392
 32
0
 13
178.0716783829083
 23
3000.452753876392
 33
0
  0
SOLID
  5
B7
100
AcDbEntity
  8
dimensions
  6
ByBlock
 62
    0
370
   -1
100
AcDbTrace
 10
253.0716783829083
 20
2994.624768667572
 30
0
 11
288.0716783829083
 21
3000.452753876392
 31
0
 12
288.0716783829083
 22
2988.796783458752
 32
0
 13
288.0716783829083
 23
2988.796783458752
 33
0
  0
LINE
  5
B8
100
AcDbEntity
  8
dimensions
  6
ByBlock
 62
    0
370
   -2
100
AcDbLine
 10
213.0716783829083
 20
2950.242312210833
 11
213.0716783829083
 21
2995.874768667572
  0
LINE
  5
B9
100
AcDbEntity
  8
dimensions
  6
ByBlock
 62
    0
370
   -2
100
AcDbLine
 10
253.0716783829083
 20
2950.242312210833
 11
253.0716783829083
 21
2995.874768667572
  0
ENDBLK
  5
56
330
54
100
AcDbEntity
  8
0
100
AcDbBlockEnd
  0
BLOCK
  5
58
330
57
100
AcDbEntity
  8
0
100
AcDbBlockBegin
  2
*D11
 70
    1
 10
0
 20
0
  3
*D11
  1

  0
LINE
  5
BA
100
AcDbEntity
  8
dimensions
  6
CONTINUOUS
 62
    7
370
    0
100
AcDbLine
 10
2348.488335638924
 20
2651.474459647716
 11
2438.41572404336
 21
2736.559604061144
  0
SOLID
  5
BB
100
AcDbEntity
  8
dimensions
  6
CONTINUOUS
 62
    7
370
    0
100
AcDbTrace
 10
2348.488335638924
 20
2651.474459647716
 30
0
 11
2369.906636300452
 21
2679.762651678431
 31
0
 12
2377.9175464046
 22
2671.295836121202
 32
0
 13
2377.9175464046
 23
2671.295836121202
 33
0
  0
LINE
  5
BC
100
AcDbEntity
  8
dimensions
  6
CONTINUOUS
 62
    7
370
    0
100
AcDbLine
 10
2438.41572404336
 20
2736.559604061144
 11
2604.43551802078
 21
2736.559604061144
  0
ENDBLK
  5
59
330
57
100
AcDbEntity
  8
0
100
AcDbBlockEnd
  0
BLOCK
  5
5B
330
5A
100
AcDbEntity
  8
0
100
AcDbBlockBegin
  2
*D8
 70
    1
 10
0
 20
0
  3
*D8
  1

  0
LINE
  5
BD
100
AcDbEntity
  8
dimensions
  6
ByBlock
 62
    0
370
   -1
100
AcDbLine
 10
367.1979096656305
 20
1973.544880460402
 11
367.1979096656305
 21
2949.617312210833
  0
MTEXT
  5
BE
100
AcDbEntity
  8
dimensions
  6
CONTINUOUS
 62
    0
370
   -2
100
AcDbMText
 10
341.5729096656305
 20
2461.581096335618
 30
0
 40
50
 41
194.4444444444507
 71
    5
 72
    1
  1
976.07
  7
standard
210
0
220
0
230
1
 50
90
 73
    2
 44
1
  0
SOLID
  5
BF
100
AcDbEntity
  8
dimensions
  6
ByBlock
 62
    0
370
   -1
100
AcDbTrace
 10
367.1979096656305
 20
1973.544880460402
 30
0
 11
361.3699244568107
 21
2008.544880460402
 31
0
 12
373.0258948744503
 22
2008.544880460402
 32
0
 13
373.0258948744503
 23
2008.544880460402
 33
0
  0
SOLID
  5
C0
100
AcDbEntity
  8
dimensions
  6
ByBlock
 62
    0
370
   -1
100
AcDbTrace
 10
367.1979096656305
 20
2949.617312210833
 30
0
 11
373.0258948744503
 21
2914.617312210833
 31
0
 12
361.3699244568107
 22
2914.617312210833
 32
0
 13
361.3699244568107
 23
2914.617312210833
 33
0
  0
LINE
  5
C1
100
AcDbEntity
  8
dimensions
  6
ByBlock
 62
    0
370
   -2
100
AcDbLine
 10
253.6966783829088
 20
1973.544880460402
 11
368.4479096656305
 21
1973.544880460402
  0
LINE
  5
C2
100
AcDbEntity
  8
dimensions
  6
ByBlock
 62
    0
370
   -2
100
AcDbLine
 10
253.6966783829083
 20
2949.617312210833
 11
368.4479096656305
 21
2949.617312210833
  0
ENDBLK
  5
5C
330
5A
100
AcDbEntity
  8
0
100
AcDbBlockEnd
  0
BLOCK
  5
5E
330
5D
100
AcDbEntity
  8
0
100
AcDbBlockBegin
  2
*D13
 70
    1
 10
0
 20
0
  3
*D13
  1

  0
LINE
  5
C3
100
AcDbEntity
  8
dimensions
  6
ByBlock
 62
    0
370
   -1
100
AcDbLine
 10
1947.40299106137
 20
2600
 11
1947.40299106137
 21
3000
  0
MTEXT
  5
C4
100
AcDbEntity
  8
dimensions
  6
CONTINUOUS
 62
    0
370
   -2
100
AcDbMText
 10
1921.77799106137
 20
2800
 30
0
 40
50
 41
200
 71
    5
 72
    1
  1
400.00
  7
standard
210
0
220
0
230
1
 50
90
 73
    2
 44
1
  0
SOLID
  5
C5
100
AcDbEntity
  8
dimensions
  6
ByBlock
 62
    0
370
   -1
100
AcDbTrace
 10
1947.40299106137
 20
2600
 30
0
 11
1941.57500585255
 21
2635
 31
0
 12
1953.23097627019
 22
2635
 32
0
 13
1953.23097627019
 23
2635
 33
0
  0
SOLID
  5
C6
100
AcDbEntity
  8
dimensions
  6
ByBlock
 62
    0
370
   -1
100
AcDbTrace
 10
1947.40299106137
 20
3000
 30
0
 11
1953.23097627019
 21
2965
 31
0
 12
1941.57500585255
 22
2965
 32
0
 13
1941.57500585255
 23
2965
 33
0
  0
LINE
  5
C7
100
AcDbEntity
  8
dimensions
  6
ByBlock
 62
    0
370
   -2
100
AcDbLine
 10
1999.375
 20
2600
 11
1946.15299106137
 21
2600
  0
LINE
  5
C8
100
AcDbEntity
  8
dimensions
  6
ByBlock
 62
    0
370
   -2
100
AcDbLine
 10
1999.375
 20
3000
 11
1946.15299106137
 21
3000
  0
ENDBLK
  5
5F
330
5D
100
AcDbEntity
  8
0
100
AcDbBlockEnd
  0
BLOCK
  5
61
330
60
100
AcDbEntity
  8
0
100
AcDbBlockBegin
  2
*D3
 70
    1
 10
0
 20
0
  3
*D3
  1

  0
LINE
  5
C9
100
AcDbEntity
  8
dimensions
  6
ByBlock
 62
    0
370
   -1
100
AcDbLine
 10
-146.9283216170913
 20
1431.28889638424
 11
-346.9283216170913
 21
1431.28889638424
  0
MTEXT
  5
CA
100
AcDbEntity
  8
dimensions
  6
CONTINUOUS
 62
    0
370
   -2
100
AcDbMText
 10
-246.9283216170913
 20
1456.91389638424
 30
0
 40
50
 41
194.4444444444445
 71
    5
 72
    1
  1
200.00
  7
standard
210
0
220
0
230
1
 50
0
 73
    2
 44
1
  0
SOLID
  5
CB
100
AcDbEntity
  8
dimensions
  6
ByBlock
 62
    0
370
   -1
100
AcDbTrace
 10
-146.9283216170913
 20
1431.28889638424
 30
0
 11
-181.9283216170913
 21
1425.46091117542
 31
0
 12
-181.9283216170913
 22
1437.11688159306
 32
0
 13
-181.9283216170913
 23
1437.11688159306
 33
0
  0
SOLID
  5
CC
100
AcDbEntity
  8
dimensions
  6
ByBlock
 62
    0
370
   -1
100
AcDbTrace
 10
-346.9283216170913
 20
1431.28889638424
 30
0
 11
-311.9283216170913
 21
1437.11688159306
 31
0
 12
-311.9283216170913
 22
1425.46091117542
 32
0
 13
-311.9283216170913
 23
1425.46091117542
 33
0
  0
LINE
  5
CD
100
AcDbEntity
  8
dimensions
  6
ByBlock
 62
    0
370
   -2
100
AcDbLine
 10
-146.9283216170913
 20
1341.242312210833
 11
-146.9283216170913
 21
1432.53889638424
  0
LINE
  5
CE
100
AcDbEntity
  8
dimensions
  6
ByBlock
 62
    0
370
   -2
100
AcDbLine
 10
-346.9283216170913
 20
1341.242312210833
 11
-346.9283216170913
 21
1432.53889638424
  0
ENDBLK
  5
62
330
60
100
AcDbEntity
  8
0
100
AcDbBlockEnd
  0
BLOCK
  5
64
330
63
100
AcDbEntity
  8
0
100
AcDbBlockBegin
  2
*D1
 70
    1
 10
0
 20
0
  3
*D1
  1

  0
LINE
  5
CF
100
AcDbEntity
  8
dimensions
  6
ByBlock
 62
    0
370
   -1
100
AcDbLine
 10
-146.9283216170918
 20
3073.888858557261
 11
253.0716783829083
 21
3073.888858557261
  0
MTEXT
  5
D0
100
AcDbEntity
  8
dimensions
  6
CONTINUOUS
 62
    0
370
   -2
100
AcDbMText
 10
53.07167838290826
 20
3099.513858557261
 30
0
 40
50
 41
200
 71
    5
 72
    1
  1
400.00
  7
standard
210
0
220
0
230
1
 50
0
 73
    2
 44
1
  0
SOLID
  5
D1
100
AcDbEntity
  8
dimensions
  6
ByBlock
 62
    0
370
   -1
100
AcDbTrace
 10
-146.9283216170918
 20
3073.888858557261
 30
0
 11
-111.9283216170918
 21
3079.716843766081
 31
0
 12
-111.9283216170918
 22
3068.060873348441
 32
0
 13
-111.9283216170918
 23
3068.060873348441
 33
0
  0
SOLID
  5
D2
100
AcDbEntity
  8
dimensions
  6
ByBlock
 62
    0
370
   -1
100
AcDbTrace
 10
253.0716783829083
 20
3073.888858557261
 30
0
 11
218.0716783829083
 21
3068.060873348441
 31
0
 12
218.0716783829083
 22
3079.716843766081
 32
0
 13
218.0716783829083
 23
3079.716843766081
 33
0
  0
LINE
  5
D3
100
AcDbEntity
  8
dimensions
  6
ByBlock
 62
    0
370
   -2
100
AcDbLine
 10
-146.9283216170917
 20
2950.242312210833
 11
-146.9283216170918
 21
3075.138858557261
  0
LINE
  5
D4
100
AcDbEntity
  8
dimensions
  6
ByBlock
 62
    0
370
   -2
100
AcDbLine
 10
253.0716783829083
 20
2950.242312210833
 11
253.0716783829083
 21
3075.138858557261
  0
ENDBLK
  5
65
330
63
100
AcDbEntity
  8
0
100
AcDbBlockEnd
  0
BLOCK
  5
67
330
66
100
AcDbEntity
  8
0
100
AcDbBlockBegin
  2
*D5
 70
    1
 10
0
 20
0
  3
*D5
  1

  0
LINE
  5
D5
100
AcDbEntity
  8
dimensions
  6
ByBlock
 62
    0
370
   -1
100
AcDbLine
 10
-1078.335617132943
 20
1299.617312210833
 11
-1078.335617132943
 21
1149.617312210833
  0
MTEXT
  5
D6
100
AcDbEntity
  8
dimensions
  6
CONTINUOUS
 62
    0
370
   -2
100
AcDbMText
 10
-1103.960617132943
 20
1391.908978877501
 30
0
 40
50
 41
183.3333333333364
 71
    5
 72
    1
  1
150.00
  7
standard
210
0
220
0
230
1
 50
90
 73
    2
 44
1
  0
SOLID
  5
D7
100
AcDbEntity
  8
dimensions
  6
ByBlock
 62
    0
370
   -1
100
AcDbTrace
 10
-1078.335617132943
 20
1299.617312210833
 30
0
 11
-1072.507631924123
 21
1264.617312210833
 31
0
 12
-1084.163602341763
 22
1264.617312210833
 32
0
 13
-1084.163602341763
 23
1264.617312210833
 33
0
  0
SOLID
  5
D8
100
AcDbEntity
  8
dimensions
  6
ByBlock
 62
    0
370
   -1
100
AcDbTrace
 10
-1078.335617132943
 20
1149.617312210833
 30
0
 11
-1084.163602341763
 21
1184.617312210833
 31
0
 12
-1072.507631924123
 22
1184.617312210833
 32
0
 13
-1072.507631924123
 23
1184.617312210833
 33
0
  0
LINE
  5
D9
100
AcDbEntity
  8
dimensions
  6
ByBlock
 62
    0
370
   -2
100
AcDbLine
 10
-997.5533216170916
 20
1299.617312210833
 11
-1079.585617132943
 21
1299.617312210833
  0
LINE
  5
DA
100
AcDbEntity
  8
dimensions
  6
ByBlock
 62
    0
370
   -2
100
AcDbLine
 10
-997.5533216170916
 20
1149.617312210833
 11
-1079.585617132943
 21
1149.617312210833
  0
ENDBLK
  5
68
330
66
100
AcDbEntity
  8
0
100
AcDbBlockEnd
  0
BLOCK
  5
6A
330
69
100
AcDbEntity
  8
0
100
AcDbBlockBegin
  2
*D7
 70
    1
 10
0
 20
0
  3
*D7
  1

  0
LINE
  5
DB
100
AcDbEntity
  8
dimensions
  6
ByBlock
 62
    0
370
   -1
100
AcDbLine
 10
536.4309161372
 20
1905.554398270883
 11
536.4309161372
 21
2055.554398270883
  0
MTEXT
  5
DC
100
AcDbEntity
  8
dimensions
  6
CONTINUOUS
 62
    0
370
   -2
100
AcDbMText
 10
510.8059161372
 20
2147.846064937552
 30
0
 40
50
 41
183.3333333333364
 71
    5
 72
    1
  1
150.00
  7
standard
210
0
220
0
230
1
 50
90
 73
    2
 44
1
  0
SOLID
  5
DD
100
AcDbEntity
  8
dimensions
  6
ByBlock
 62
    0
370
   -1
100
AcDbTrace
 10
536.4309161372
 20
1905.554398270883
 30
0
 11
530.6029309283803
 21
1940.554398270883
 31
0
 12
542.2589013460198
 22
1940.554398270883
 32
0
 13
542.2589013460198
 23
1940.554398270883
 33
0
  0
SOLID
  5
DE
100
AcDbEntity
  8
dimensions
  6
ByBlock
 62
    0
370
   -1
100
AcDbTrace
 10
536.4309161372
 20
2055.554398270883
 30
0
 11
542.2589013460198
 21
2020.554398270883
 31
0
 12
530.6029309283803
 22
2020.554398270883
 32
0
 13
530.6029309283803
 23
2020.554398270883
 33
0
  0
LINE
  5
DF
100
AcDbEntity
  8
dimensions
  6
ByBlock
 62
    0
370
   -2
100
AcDbLine
 10
207.5274243114115
 20
1905.554398270883
 11
537.6809161372
 21
1905.554398270883
  0
LINE
  5
E0
100
AcDbEntity
  8
dimensions
  6
ByBlock
 62
    0
370
   -2
100
AcDbLine
 10
207.5274243114113
 20
2055.554398270883
 11
537.6809161372
 21
2055.554398270883
  0
ENDBLK
  5
6B
330
69
100
AcDbEntity
  8
0
100
AcDbBlockEnd
  0
BLOCK
  5
6D
330
6C
100
AcDbEntity
  8
0
100
AcDbBlockBegin
  2
*D10
 70
    1
 10
0
 20
0
  3
*D10
  1

  0
LINE
  5
E1
100
AcDbEntity
  8
dimensions
  6
ByBlock
 62
    0
370
   -1
100
AcDbLine
 10
-857.2661712766333
 20
1394.617312210833
 11
-857.2661712766333
 21
1229.617312210833
  0
MTEXT
  5
E2
100
AcDbEntity
  8
dimensions
  6
CONTINUOUS
 62
    0
370
   -2
100
AcDbMText
 10
-882.8911712766333
 20
1403.020089988612
 30
0
 40
50
 41
155.5555555555587
 71
    5
 72
    1
  1
25.00
  7
standard
210
0
220
0
230
1
 50
90
 73
    2
 44
1
  0
SOLID
  5
E3
100
AcDbEntity
  8
dimensions
  6
ByBlock
 62
    0
370
   -1
100
AcDbTrace
 10
-857.2661712766333
 20
1324.617312210833
 30
0
 11
-863.094156485453
 21
1359.617312210833
 31
0
 12
-851.4381860678135
 22
1359.617312210833
 32
0
 13
-851.4381860678135
 23
1359.617312210833
 33
0
  0
SOLID
  5
E4
100
AcDbEntity
  8
dimensions
  6
ByBlock
 62
    0
370
   -1
100
AcDbTrace
 10
-857.2661712766333
 20
1299.617312210833
 30
0
 11
-851.4381860678135
 21
1264.617312210833
 31
0
 12
-863.094156485453
 22
1264.617312210833
 32
0
 13
-863.094156485453
 23
1264.617312210833
 33
0
  0
LINE
  5
E5
100
AcDbEntity
  8
dimensions
  6
ByBlock
 62
    0
370
   -2
100
AcDbLine
 10
-931.3033216170916
 20
1324.617312210833
 11
-856.0161712766333
 21
1324.617312210833
  0
LINE
  5
E6
100
AcDbEntity
  8
dimensions
  6
ByBlock
 62
    0
370
   -2
100
AcDbLine
 10
-931.3033216170916
 20
1299.617312210833
 11
-856.0161712766333
 21
1299.617312210833
  0
ENDBLK
  5
6E
330
6C
100
AcDbEntity
  8
0
100
AcDbBlockEnd
  0
BLOCK
  5
70
330
6F
100
AcDbEntity
  8
0
100
AcDbBlockBegin
  2
*D4
 70
    1
 10
0
 20
0
  3
*D4
  1

  0
LINE
  5
E7
100
AcDbEntity
  8
dimensions
  6
ByBlock
 62
    0
370
   -1
100
AcDbLine
 10
-996.9283216170911
 20
982.1038796330183
 11
1103.071678382908
 21
982.1038796330183
  0
MTEXT
  5
E8
100
AcDbEntity
  8
dimensions
  6
CONTINUOUS
 62
    0
370
   -2
100
AcDbMText
 10
53.07167838290843
 20
1007.728879633018
 30
0
 40
50
 41
222.2222222222222
 71
    5
 72
    1
  1
2100.00
  7
standard
210
0
220
0
230
1
 50
0
 73
    2
 44
1
  0
SOLID
  5
E9
100
AcDbEntity
  8
dimensions
  6
ByBlock
 62
    0
370
   -1
100
AcDbTrace
 10
-996.9283216170911
 20
982.1038796330183
 30
0
 11
-961.9283216170911
 21
987.9318648418381
 31
0
 12
-961.9283216170911
 22
976.2758944241986
 32
0
 13
-961.9283216170911
 23
976.2758944241986
 33
0
  0
SOLID
  5
EA
100
AcDbEntity
  8
dimensions
  6
ByBlock
 62
    0
370
   -1
100
AcDbTrace
 10
1103.071678382908
 20
982.1038796330183
 30
0
 11
1068.071678382908
 21
976.2758944241986
 31
0
 12
1068.071678382908
 22
987.9318648418381
 32
0
 13
1068.071678382908
 23
987.9318648418381
 33
0
  0
LINE
  5
EB
100
AcDbEntity
  8
dimensions
  6
ByBlock
 62
    0
370
   -2
100
AcDbLine
 10
-996.9283216170916
 20
1148.992312210833
 11
-996.9283216170911
 21
980.8538796330183
  0
LINE
  5
EC
100
AcDbEntity
  8
dimensions
  6
ByBlock
 62
    0
370
   -2
100
AcDbLine
 10
1103.071678382908
 20
1148.992312210833
 11
1103.071678382908
 21
980.8538796330183
  0
ENDBLK
  5
71
330
6F
100
AcDbEntity
  8
0
100
AcDbBlockEnd
  0
BLOCK
  5
73
330
72
100
AcDbEntity
  8
0
100
AcDbBlockBegin
  2
*D6
 70
    1
 10
0
 20
0
  3
*D6
  1

  0
LINE
  5
ED
100
AcDbEntity
  8
dimensions
  6
ByBlock
 62
    0
370
   -1
100
AcDbLine
 10
-1160.442390011086
 20
1549.617312210833
 11
-1160.442390011086
 21
1299.617312210833
  0
MTEXT
  5
EE
100
AcDbEntity
  8
dimensions
  6
CONTINUOUS
 62
    0
370
   -2
100
AcDbMText
 10
-1186.067390011086
 20
1424.617312210833
 30
0
 40
50
 41
194.4444444444476
 71
    5
 72
    1
  1
250.00
  7
standard
210
0
220
0
230
1
 50
90
 73
    2
 44
1
  0
SOLID
  5
EF
100
AcDbEntity
  8
dimensions
  6
ByBlock
 62
    0
370
   -1
100
AcDbTrace
 10
-1160.442390011086
 20
1549.617312210833
 30
0
 11
-1154.614404802266
 21
1514.617312210833
 31
0
 12
-1166.270375219906
 22
1514.617312210833
 32
0
 13
-1166.270375219906
 23
1514.617312210833
 33
0
  0
SOLID
  5
F0
100
AcDbEntity
  8
dimensions
  6
ByBlock
 62
    0
370
   -1
100
AcDbTrace
 10
-1160.442390011086
 20
1299.617312210833
 30
0
 11
-1166.270375219906
 21
1334.617312210833
 31
0
 12
-1154.614404802266
 22
1334.617312210833
 32
0
 13
-1154.614404802266
 23
1334.617312210833
 33
0
  0
LINE
  5
F1
100
AcDbEntity
  8
dimensions
  6
ByBlock
 62
    0
370
   -2
100
AcDbLine
 10
-997.5533216170917
 20
1549.617312210833
 11
-1161.692390011086
 21
1549.617312210833
  0
LINE
  5
F2
100
AcDbEntity
  8
dimensions
  6
ByBlock
 62
    0
370
   -2
100
AcDbLine
 10
-997.5533216170916
 20
1299.617312210833
 11
-1161.692390011086
 21
1299.617312210833
  0
ENDBLK
  5
74
330
72
100
AcDbEntity
  8
0
100
AcDbBlockEnd
  0
BLOCK
  5
76
330
75
100
AcDbEntity
  8
0
100
AcDbBlockBegin
  2
*D9
 70
    1
 10
0
 20
0
  3
*D9
  1

  0
LINE
  5
F3
100
AcDbEntity
  8
dimensions
  6
ByBlock
 62
    0
370
   -1
100
AcDbLine
 10
1174.672336713736
 20
1549.617312210833
 11
1174.672336713736
 21
1973.544880460402
  0
MTEXT
  5
F4
100
AcDbEntity
  8
dimensions
  6
CONTINUOUS
 62
    0
370
   -2
100
AcDbMText
 10
1149.047336713736
 20
1761.581096335618
 30
0
 40
50
 41
200.0000000000062
 71
    5
 72
    1
  1
423.93
  7
standard
210
0
220
0
230
1
 50
90
 73
    2
 44
1
  0
SOLID
  5
F5
100
AcDbEntity
  8
dimensions
  6
ByBlock
 62
    0
370
   -1
100
AcDbTrace
 10
1174.672336713736
 20
1549.617312210833
 30
0
 11
1168.844351504916
 21
1584.617312210833
 31
0
 12
1180.500321922556
 22
1584.617312210833
 32
0
 13
1180.500321922556
 23
1584.617312210833
 33
0
  0
SOLID
  5
F6
100
AcDbEntity
  8
dimensions
  6
ByBlock
 62
    0
370
   -1
100
AcDbTrace
 10
1174.672336713736
 20
1973.544880460402
 30
0
 11
1180.500321922556
 21
1938.544880460402
 31
0
 12
1168.844351504916
 22
1938.544880460402
 32
0
 13
1168.844351504916
 23
1938.544880460402
 33
0
  0
LINE
  5
F7
100
AcDbEntity
  8
dimensions
  6
ByBlock
 62
    0
370
   -2
100
AcDbLine
 10
1103.696678382908
 20
1549.617312210833
 11
1175.922336713736
 21
1549.617312210833
  0
LINE
  5
F8
100
AcDbEntity
  8
dimensions
  6
ByBlock
 62
    0
370
   -2
100
AcDbLine
 10
253.6966783829081
 20
1973.544880460402
 11
1175.922336713736
 21
1973.544880460402
  0
ENDBLK
  5
77
330
75
100
AcDbEntity
  8
0
100
AcDbBlockEnd
  0
BLOCK
  5
79
330
78
100
AcDbEntity
  8
0
100
AcDbBlockBegin
  2
*D12
 70
    1
 10
0
 20
0
  3
*D12
  1

  0
LINE
  5
F9
100
AcDbEntity
  8
dimensions
  6
ByBlock
 62
    0
370
   -1
100
AcDbLine
 10
2000
 20
3068.31798975364
 11
2400
 21
3068.31798975364
  0
MTEXT
  5
FA
100
AcDbEntity
  8
dimensions
  6
CONTINUOUS
 62
    0
370
   -2
100
AcDbMText
 10
2200
 20
3093.94298975364
 30
0
 40
50
 41
200
 71
    5
 72
    1
  1
400.00
  7
standard
210
0
220
0
230
1
 50
0
 73
    2
 44
1
  0
SOLID
  5
FB
100
AcDbEntity
  8
dimensions
  6
ByBlock
 62
    0
370
   -1
100
AcDbTrace
 10
2000
 20
3068.31798975364
 30
0
 11
2035
 21
3074.14597496246
 31
0
 12
2035
 22
3062.49000454482
 32
0
 13
2035
 23
3062.49000454482
 33
0
  0
SOLID
  5
FC
100
AcDbEntity
  8
dimensions
  6
ByBlock
 62
    0
370
   -1
100
AcDbTrace
 10
2400
 20
3068.31798975364
 30
0
 11
2365
 21
3062.49000454482
 31
0
 12
2365
 22
3074.14597496246
 32
0
 13
2365
 23
3074.14597496246
 33
0
  0
LINE
  5
FD
100
AcDbEntity
  8
dimensions
  6
ByBlock
 62
    0
370
   -2
100
AcDbLine
 10
2000
 20
3000.625
 11
2000
 21
3069.56798975364
  0
LINE
  5
FE
100
AcDbEntity
  8
dimensions
  6
ByBlock
 62
    0
370
   -2
100
AcDbLine
 10
2400
 20
3000.625
 11
2400
 21
3069.56798975364
  0
ENDBLK
  5
7A
330
78
100
AcDbEntity
  8
0
100
AcDbBlockEnd
  0
BLOCK
  5
7C
330
7B
100
AcDbEntity
  8
0
100
AcDbBlockBegin
  2
_Oblique
 70
    0
 10
0
 20
0
  3
_Oblique
  1

  0
LINE
  5
FF
100
AcDbEntity
  8
0
  6
ByBlock
 62
    0
370
   -2
100
AcDbLine
 10
-0.5
 20
-0.5
 11
0.5
 21
0.5
  0
ENDBLK
  5
7D
330
7B
100
AcDbEntity
  8
0
100
AcDbBlockEnd
  0
BLOCK
  5
7F
330
7E
100
AcDbEntity
  8
0
100
AcDbBlockBegin
  2
_ArchTick
 70
    0
 10
0
 20
0
  3
_ArchTick
  1

  0
LWPOLYLINE
  5
100
100
AcDbEntity
  8
0
  6
ByBlock
 62
    0
370
   -1
100
AcDbPolyline
 90
    2
 70
    0
 43
0
 10
-0.5
 20
-0.5
 10
0.5
 20
0.5
  0
ENDBLK
  5
80
330
7E
100
AcDbEntity
  8
0
100
AcDbBlockEnd
  0
BLOCK
  5
82
330
81
100
AcDbEntity
  8
0
100
AcDbBlockBegin
  2
_ClosedBlank
 70
    0
 10
0
 20
0
  3
_ClosedBlank
  1

  0
LINE
  5
101
100
AcDbEntity
  8
0
  6
ByBlock
 62
    0
370
   -2
100
AcDbLine
 10
-1
 20
0.1666666666666667
 11
0
 21
0
  0
LINE
  5
102
100
AcDbEntity
  8
0
  6
ByBlock
 62
    0
370
   -2
100
AcDbLine
 10
0
 20
0
 11
-1
 21
-0.1666666666666667
  0
LINE
  5
103
100
AcDbEntity
  8
0
  6
ByBlock
 62
    0
370
   -2
100
AcDbLine
 10
-1
 20
0.1666666666666667
 11
-1
 21
-0.1666666666666667
  0
ENDBLK
  5
83
330
81
100
AcDbEntity
  8
0
100
AcDbBlockEnd
  0
BLOCK
  5
85
330
84
100
AcDbEntity
  8
0
100
AcDbBlockBegin
  2
wickets
 70
    0
 10
0
 20
0
  3
wickets
  1

  0
CIRCLE
  5
104
100
AcDbEntity
  8
0
  6
ByLayer
 62
  256
370
   -1
100
AcDbCircle
 10
0
 20
0.0389999999999873
 40
0.039
  0
CIRCLE
  5
105
100
AcDbEntity
  8
0
  6
ByLayer
 62
  256
370
   -1
100
AcDbCircle
 10
-0.132000000000005
 20
0.0389999999999873
 40
0.039
  0
CIRCLE
  5
106
100
AcDbEntity
  8
0
  6
ByLayer
 62
  256
370
   -1
100
AcDbCircle
 10
0.132000000000005
 20
0.0389999999999873
 40
0.039
  0
ENDBLK
  5
86
330
84
100
AcDbEntity
  8
0
100
AcDbBlockEnd
  0
BLOCK
  5
88
330
87
100
AcDbEntity
  8
0
100
AcDbBlockBegin
  2
16mm dia bars
 70
    0
 10
0
 20
0
  3
16mm dia bars
  1

  0
CIRCLE
  5
107
100
AcDbEntity
  8
0
  6
ByLayer
 62
  256
370
   -1
100
AcDbCircle
 10
0
 20
8
 40
8
  0
CIRCLE
  5
108
100
AcDbEntity
  8
0
  6
ByLayer
 62
  256
370
   -1
100
AcDbCircle
 10
150
 20
7.999999999999972
 40
8
  0
CIRCLE
  5
109
100
AcDbEntity
  8
0
  6
ByLayer
 62
  256
370
   -1
100
AcDbCircle
 10
-150
 20
8
 40
8
  0
ENDBLK
  5
89
330
87
100
AcDbEntity
  8
0
100
AcDbBlockEnd
  0
BLOCK
  5
8B
330
8A
100
AcDbEntity
  8
0
100
AcDbBlockBegin
  2
*U7
 70
    0
 10
0
 20
0
  3
*U7
  1

  0
LINE
  5
10A
100
AcDbEntity
  8
lateral ties
  6
ByLayer
 62
  256
370
   40
100
AcDbLine
 10
0
 20
-160
 11
0
 21
160
  0
ENDBLK
  5
8C
330
8A
100
AcDbEntity
  8
0
100
AcDbBlockEnd
  0
BLOCK
  5
8E
330
8D
100
AcDbEntity
  8
0
100
AcDbBlockBegin
  2
*U8
 70
    0
 10
0
 20
0
  3
*U8
  1

  0
INSERT
  5
10B
100
AcDbEntity
  8
lateral ties
  6
ByBlock
 62
    0
370
   -2
100
AcDbBlockReference
  2
*U7
 10
0
 20
0
 30
0
 41
1
 42
1
 43
0
 50
0
 70
    1
 71
    1
 44
0
 45
0
  0
INSERT
  5
10C
100
AcDbEntity
  8
lateral ties
  6
ByBlock
 62
    0
370
   -2
100
AcDbBlockReference
  2
*U7
 10
-150
 20
-2.41e-14
 30
0
 41
1
 42
1
 43
0
 50
0
 70
    1
 71
    1
 44
0
 45
0
  0
INSERT
  5
10D
100
AcDbEntity
  8
lateral ties
  6
ByBlock
 62
    0
370
   -2
100
AcDbBlockReference
  2
*U7
 10
-300
 20
-4.82e-14
 30
0
 41
1
 42
1
 43
0
 50
0
 70
    1
 71
    1
 44
0
 45
0
  0
INSERT
  5
10E
100
AcDbEntity
  8
lateral ties
  6
ByBlock
 62
    0
370
   -2
100
AcDbBlockReference
  2
*U7
 10
-450
 20
-7.24e-14
 30
0
 41
1
 42
1
 43
0
 50
0
 70
    1
 71
    1
 44
0
 45
0
  0
INSERT
  5
10F
100
AcDbEntity
  8
lateral ties
  6
ByBlock
 62
    0
370
   -2
100
AcDbBlockReference
  2
*U7
 10
-600
 20
-9.650000000000001e-14
 30
0
 41
1
 42
1
 43
0
 50
0
 70
    1
 71
    1
 44
0
 45
0
  0
INSERT
  5
110
100
AcDbEntity
  8
lateral ties
  6
ByBlock
 62
    0
370
   -2
100
AcDbBlockReference
  2
*U7
 10
-750
 20
-1.206e-13
 30
0
 41
1
 42
1
 43
0
 50
0
 70
    1
 71
    1
 44
0
 45
0
  0
INSERT
  5
111
100
AcDbEntity
  8
lateral ties
  6
ByBlock
 62
    0
370
   -2
100
AcDbBlockReference
  2
*U7
 10
-900
 20
-1.447e-13
 30
0
 41
1
 42
1
 43
0
 50
0
 70
    1
 71
    1
 44
0
 45
0
  0
INSERT
  5
112
100
AcDbEntity
  8
lateral ties
  6
ByBlock
 62
    0
370
   -2
100
AcDbBlockReference
  2
*U7
 10
-1050
 20
-1.689e-13
 30
0
 41
1
 42
1
 43
0
 50
0
 70
    1
 71
    1
 44
0
 45
0
  0
INSERT
  5
113
100
AcDbEntity
  8
lateral ties
  6
ByBlock
 62
    0
370
   -2
100
AcDbBlockReference
  2
*U7
 10
-1200
 20
-1.93e-13
 30
0
 41
1
 42
1
 43
0
 50
0
 70
    1
 71
    1
 44
0
 45
0
  0
INSERT
  5
114
100
AcDbEntity
  8
lateral ties
  6
ByBlock
 62
    0
370
   -2
100
AcDbBlockReference
  2
*U7
 10
-1350
 20
-2.171e-13
 30
0
 41
1
 42
1
 43
0
 50
0
 70
    1
 71
    1
 44
0
 45
0
  0
ENDBLK
  5
8F
330
8D
100
AcDbEntity
  8
0
100
AcDbBlockEnd
  0
BLOCK
  5
91
330
90
100
AcDbEntity
  8
0
100
AcDbBlockBegin
  2
_DetailCallout
 70
    0
 10
0
 20
0
  3
_DetailCallout
  1

  0
CIRCLE
  5
115
100
AcDbEntity
  8
0
  6
ByBlock
 62
    0
370
   -2
100
AcDbCircle
 10
0
 20
0
 40
8
  0
LINE
  5
116
100
AcDbEntity
  8
0
  6
ByBlock
 62
    0
370
   -2
100
AcDbLine
 10
8
 20
0
 11
-8
 21
0
  0
ENDBLK
  5
92
330
90
100
AcDbEntity
  8
0
100
AcDbBlockEnd
  0
BLOCK
  5
94
330
93
100
AcDbEntity
  8
0
100
AcDbBlockBegin
  2
*U96
 70
    0
 10
0
 20
0
  3
*U96
  1

  0
ENDBLK
  5
95
330
93
100
AcDbEntity
  8
0
100
AcDbBlockEnd
  0
BLOCK
  5
97
330
96
100
AcDbEntity
  8
0
100
AcDbBlockBegin
  2
*U97
 70
    0
 10
0
 20
0
  3
*U97
  1

  0
ENDBLK
  5
98
330
96
100
AcDbEntity
  8
0
100
AcDbBlockEnd
  0
BLOCK
  5
9A
330
99
100
AcDbEntity
  8
0
100
AcDbBlockBegin
  2
*U98
 70
    0
 10
0
 20
0
  3
*U98
  1

  0
ENDBLK
  5
9B
330
99
100
AcDbEntity
  8
0
100
AcDbBlockEnd
  0
BLOCK
  5
9D
330
9C
100
AcDbEntity
  8
0
100
AcDbBlockBegin
  2
*U99
 70
    0
 10
0
 20
0
  3
*U99
  1

  0
ENDBLK
  5
9E
330
9C
100
AcDbEntity
  8
0
100
AcDbBlockEnd
  0
BLOCK
  5
A0
330
9F
100
AcDbEntity
  8
0
100
AcDbBlockBegin
  2
*U100
 70
    0
 10
0
 20
0
  3
*U100
  1

  0
ENDBLK
  5
A1
330
9F
100
AcDbEntity
  8
0
100
AcDbBlockEnd
  0
BLOCK
  5
A3
330
A2
100
AcDbEntity
  8
0
100
AcDbBlockBegin
  2
*U101
 70
    0
 10
0
 20
0
  3
*U101
  1

  0
ENDBLK
  5
A4
330
A2
100
AcDbEntity
  8
0
100
AcDbBlockEnd
  0
BLOCK
  5
A6
330
A5
100
AcDbEntity
  8
0
100
AcDbBlockBegin
  2
*U102
 70
    0
 10
0
 20
0
  3
*U102
  1

  0
ENDBLK
  5
A7
330
A5
100
AcDbEntity
  8
0
100
AcDbBlockEnd
  0
BLOCK
  5
A9
330
A8
100
AcDbEntity
  8
0
100
AcDbBlockBegin
  2
*U103
 70
    0
 10
0
 20
0
  3
*U103
  1

  0
ENDBLK
  5
AA
330
A8
100
AcDbEntity
  8
0
100
AcDbBlockEnd
  0
BLOCK
  5
AC
330
AB
100
AcDbEntity
  8
0
100
AcDbBlockBegin
  2
*U104
 70
    0
 10
0
 20
0
  3
*U104
  1

  0
ENDBLK
  5
AD
330
AB
100
AcDbEntity
  8
0
100
AcDbBlockEnd
  0
BLOCK
  5
AF
330
AE
100
AcDbEntity
  8
0
100
AcDbBlockBegin
  2
*U105
 70
    0
 10
0
 20
0
  3
*U105
  1

  0
ENDBLK
  5
B0
330
AE
100
AcDbEntity
  8
0
100
AcDbBlockEnd
  0
BLOCK
  5
B2
330
B1
100
AcDbEntity
  8
0
100
AcDbBlockBegin
  2
*U106
 70
    0
 10
0
 20
0
  3
*U106
  1

  0
ENDBLK
  5
B3
330
B1
100
AcDbEntity
  8
0
100
AcDbBlockEnd
  0
ENDSEC
  0
SECTION
  2
ENTITIES
  0
HATCH
  5
117
100
AcDbEntity
  8
column x
  6
ByLayer
 62
  256
370
   -1
100
AcDbHatch
 10
0
 20
0
 30
0
210
0
220
0
230
1
  2
SOLID
 70
    1
 71
    0
 91
    1
 92
    0
 93
    2
 72
    2
 10
2200.8609446423
 20
2946.935987319272
 40
12
 50
0
 51
360
 73
    1
 72
    2
 10
2200.849395679511
 20
2651.339559319223
 40
12
 50
0
 51
360
 73
    1
 97
    0
 75
    0
 76
    1
 98
    0
  0
HATCH
  5
118
100
AcDbEntity
  8
column x
  6
ByLayer
 62
  256
370
   -1
100
AcDbHatch
 10
0
 20
0
 30
0
210
0
220
0
230
1
  2
SOLID
 70
    1
 71
    0
 91
    1
 92
    0
 93
    6
 72
    2
 10
2052.011187018415
 20
2947.93718979071
 40
12
 50
0
 51
360
 73
    1
 72
    2
 10
2347.753633973416
 20
2947.832189136109
 40
12
 50
0
 51
360
 73
    1
 72
    2
 10
2051.999638055625
 20
2652.34076179066
 40
12
 50
0
 51
360
 73
    1
 72
    2
 10
2347.742085010627
 20
2652.235761136059
 40
12
 50
0
 51
360
 73
    1
 72
    2
 10
2052.204676100173
 20
2799.38775659204
 40
12
 50
0
 51
360
 73
    1
 72
    2
 10
2347.947123055174
 20
2799.282755937439
 40
12
 50
0
 51
360
 73
    1
 97
    0
 75
    0
 76
    1
 98
    0
  0
HATCH
  5
119
100
AcDbEntity
  8
lateral ties
  6
ByLayer
 62
    2
420
15854367
370
   80
100
AcDbHatch
 10
0
 20
0
 30
0
210
0
220
0
230
1
  2
AR-CONC
 70
    0
 71
    0
 91
    1
 92
    0
 93
    4
 72
    1
 10
-996.9283216170915
 20
1149.617312210833
 11
1103.071678382909
 21
1149.617312210833
 72
    1
 10
1103.071678382909
 20
1149.617312210833
 11
1103.071678382908
 21
1299.617312210833
 72
    1
 10
1103.071678382908
 20
1299.617312210833
 11
-996.9283216170916
 21
1299.617312210833
 72
    1
 10
-996.9283216170916
 20
1299.617312210833
 11
-996.9283216170915
 21
1149.617312210833
 97
    0
 75
    0
 76
    1
 52
4.71238898038469
 41
1
 77
    0
 78
    0
 98
    0
  0
HATCH
  5
11A
100
AcDbEntity
  8
0
  6
ByLayer
 62
  256
370
   80
100
AcDbHatch
 10
0
 20
0
 30
0
210
0
220
0
230
1
  2
SOLID
 70
    1
 71
    0
 91
    1
 92
    0
 93
    2
 72
    2
 10
1018.071678382908
 20
1332.617312210833
 40
8
 50
90
 51
270
 73
    1
 72
    2
 10
1018.071678382908
 20
1332.617312210833
 40
8
 50
270
 51
90
 73
    1
 97
    0
 75
    0
 76
    1
 98
    0
  0
HATCH
  5
11B
100
AcDbEntity
  8
0
  6
ByLayer
 62
  256
370
   80
100
AcDbHatch
 10
0
 20
0
 30
0
210
0
220
0
230
1
  2
SOLID
 70
    1
 71
    0
 91
    1
 92
    0
 93
    2
 72
    2
 10
868.071678382908
 20
1332.617312210833
 40
8
 50
90
 51
270
 73
    1
 72
    2
 10
868.071678382908
 20
1332.617312210833
 40
8
 50
270
 51
90
 73
    1
 97
    0
 75
    0
 76
    1
 98
    0
  0
HATCH
  5
11C
100
AcDbEntity
  8
0
  6
ByLayer
 62
  256
370
   80
100
AcDbHatch
 10
0
 20
0
 30
0
210
0
220
0
230
1
  2
SOLID
 70
    1
 71
    0
 91
    1
 92
    0
 93
    2
 72
    2
 10
718.071678382908
 20
1332.617312210833
 40
8
 50
90
 51
270
 73
    1
 72
    2
 10
718.071678382908
 20
1332.617312210833
 40
8
 50
270
 51
90
 73
    1
 97
    0
 75
    0
 76
    1
 98
    0
  0
HATCH
  5
11D
100
AcDbEntity
  8
0
  6
ByLayer
 62
  256
370
   80
100
AcDbHatch
 10
0
 20
0
 30
0
210
0
220
0
230
1
  2
SOLID
 70
    1
 71
    0
 91
    1
 92
    0
 93
    2
 72
    2
 10
568.071678382908
 20
1332.617312210833
 40
8
 50
90
 51
270
 73
    1
 72
    2
 10
568.071678382908
 20
1332.617312210833
 40
8
 50
270
 51
90
 73
    1
 97
    0
 75
    0
 76
    1
 98
    0
  0
HATCH
  5
11E
100
AcDbEntity
  8
0
  6
ByLayer
 62
  256
370
   80
100
AcDbHatch
 10
0
 20
0
 30
0
210
0
220
0
230
1
  2
SOLID
 70
    1
 71
    0
 91
    1
 92
    0
 93
    2
 72
    2
 10
418.071678382908
 20
1332.617312210833
 40
8
 50
90
 51
270
 73
    1
 72
    2
 10
418.071678382908
 20
1332.617312210833
 40
8
 50
270
 51
90
 73
    1
 97
    0
 75
    0
 76
    1
 98
    0
  0
HATCH
  5
11F
100
AcDbEntity
  8
0
  6
ByLayer
 62
  256
370
   80
100
AcDbHatch
 10
0
 20
0
 30
0
210
0
220
0
230
1
  2
SOLID
 70
    1
 71
    0
 91
    1
 92
    0
 93
    2
 72
    2
 10
268.071678382908
 20
1332.617312210833
 40
8
 50
90
 51
270
 73
    1
 72
    2
 10
268.071678382908
 20
1332.617312210833
 40
8
 50
270
 51
90
 73
    1
 97
    0
 75
    0
 76
    1
 98
    0
  0
HATCH
  5
120
100
AcDbEntity
  8
0
  6
ByLayer
 62
  256
370
   80
100
AcDbHatch
 10
0
 20
0
 30
0
210
0
220
0
230
1
  2
SOLID
 70
    1
 71
    0
 91
    1
 92
    0
 93
    2
 72
    2
 10
118.071678382908
 20
1332.617312210833
 40
8
 50
90
 51
270
 73
    1
 72
    2
 10
118.071678382908
 20
1332.617312210833
 40
8
 50
270
 51
90
 73
    1
 97
    0
 75
    0
 76
    1
 98
    0
  0
HATCH
  5
121
100
AcDbEntity
  8
0
  6
ByLayer
 62
  256
370
   80
100
AcDbHatch
 10
0
 20
0
 30
0
210
0
220
0
230
1
  2
SOLID
 70
    1
 71
    0
 91
    1
 92
    0
 93
    2
 72
    2
 10
-31.92832161709198
 20
1332.617312210833
 40
8
 50
90
 51
270
 73
    1
 72
    2
 10
-31.92832161709198
 20
1332.617312210833
 40
8
 50
270
 51
90
 73
    1
 97
    0
 75
    0
 76
    1
 98
    0
  0
HATCH
  5
122
100
AcDbEntity
  8
0
  6
ByLayer
 62
  256
370
   80
100
AcDbHatch
 10
0
 20
0
 30
0
210
0
220
0
230
1
  2
SOLID
 70
    1
 71
    0
 91
    1
 92
    0
 93
    2
 72
    2
 10
-181.9283216170916
 20
1332.617312210833
 40
8
 50
90
 51
270
 73
    1
 72
    2
 10
-181.9283216170916
 20
1332.617312210833
 40
8
 50
270
 51
90
 73
    1
 97
    0
 75
    0
 76
    1
 98
    0
  0
HATCH
  5
123
100
AcDbEntity
  8
0
  6
ByLayer
 62
  256
370
   80
100
AcDbHatch
 10
0
 20
0
 30
0
210
0
220
0
230
1
  2
SOLID
 70
    1
 71
    0
 91
    1
 92
    0
 93
    2
 72
    2
 10
-331.9283216170916
 20
1332.617312210833
 40
8
 50
90
 51
270
 73
    1
 72
    2
 10
-331.9283216170916
 20
1332.617312210833
 40
8
 50
270
 51
90
 73
    1
 97
    0
 75
    0
 76
    1
 98
    0
  0
HATCH
  5
124
100
AcDbEntity
  8
0
  6
ByLayer
 62
  256
370
   80
100
AcDbHatch
 10
0
 20
0
 30
0
210
0
220
0
230
1
  2
SOLID
 70
    1
 71
    0
 91
    1
 92
    0
 93
    2
 72
    2
 10
-481.9283216170916
 20
1332.617312210833
 40
8
 50
90
 51
270
 73
    1
 72
    2
 10
-481.9283216170916
 20
1332.617312210833
 40
8
 50
270
 51
90
 73
    1
 97
    0
 75
    0
 76
    1
 98
    0
  0
HATCH
  5
125
100
AcDbEntity
  8
0
  6
ByLayer
 62
  256
370
   80
100
AcDbHatch
 10
0
 20
0
 30
0
210
0
220
0
230
1
  2
SOLID
 70
    1
 71
    0
 91
    1
 92
    0
 93
    2
 72
    2
 10
-781.9283216170917
 20
1332.617312210833
 40
8
 50
90
 51
270
 73
    1
 72
    2
 10
-781.9283216170917
 20
1332.617312210833
 40
8
 50
270
 51
90
 73
    1
 97
    0
 75
    0
 76
    1
 98
    0
  0
HATCH
  5
126
100
AcDbEntity
  8
0
  6
ByLayer
 62
  256
370
   80
100
AcDbHatch
 10
0
 20
0
 30
0
210
0
220
0
230
1
  2
SOLID
 70
    1
 71
    0
 91
    1
 92
    0
 93
    2
 72
    2
 10
-631.9283216170917
 20
1332.617312210833
 40
8
 50
90
 51
270
 73
    1
 72
    2
 10
-631.9283216170917
 20
1332.617312210833
 40
8
 50
270
 51
90
 73
    1
 97
    0
 75
    0
 76
    1
 98
    0
  0
HATCH
  5
127
100
AcDbEntity
  8
0
  6
ByLayer
 62
  256
370
   80
100
AcDbHatch
 10
0
 20
0
 30
0
210
0
220
0
230
1
  2
SOLID
 70
    1
 71
    0
 91
    1
 92
    0
 93
    2
 72
    2
 10
-931.9283216170917
 20
1332.617312210833
 40
8
 50
90
 51
270
 73
    1
 72
    2
 10
-931.9283216170917
 20
1332.617312210833
 40
8
 50
270
 51
90
 73
    1
 97
    0
 75
    0
 76
    1
 98
    0
  0
LINE
  5
128
100
AcDbEntity
  8
0
  6
ByLayer
 62
  256
370
   -1
100
AcDbLine
 10
-996.9283216170916
 20
1149.617312210833
 11
-996.9283216170916
 21
1299.617312210833
  0
LINE
  5
129
100
AcDbEntity
  8
0
  6
ByLayer
 62
  256
370
   40
100
AcDbLine
 10
-996.9283216170916
 20
1299.617312210833
 11
1103.071678382908
 21
1299.617312210833
  0
LINE
  5
12A
100
AcDbEntity
  8
0
  6
ByLayer
 62
  256
370
   -1
100
AcDbLine
 10
1103.071678382908
 20
1299.617312210833
 11
1103.071678382908
 21
1149.617312210833
  0
LINE
  5
12B
100
AcDbEntity
  8
0
  6
ByLayer
 62
  256
370
   -1
100
AcDbLine
 10
1103.071678382908
 20
1149.617312210833
 11
-996.9283216170916
 21
1149.617312210833
  0
LINE
  5
12C
100
AcDbEntity
  8
0
  6
ByLayer
 62
  256
370
   -1
100
AcDbLine
 10
-996.9283216170916
 20
1299.617312210833
 11
-996.9283216170916
 21
1549.617312210833
  0
LINE
  5
12D
100
AcDbEntity
  8
0
  6
ByLayer
 62
  256
370
   -1
100
AcDbLine
 10
1103.071678382908
 20
1549.617312210833
 11
1103.071678382908
 21
1299.617312210833
  0
LINE
  5
12E
100
AcDbEntity
  8
0
  6
ByLayer
 62
  256
370
   -1
100
AcDbLine
 10
253.0716783829092
 20
1340.617312210833
 11
253.0716783829083
 21
2949.617312210833
  0
LINE
  5
12F
100
AcDbEntity
  8
0
  6
ByLayer
 62
  256
370
   -1
100
AcDbLine
 10
-146.9283216170914
 20
1340.617312210833
 11
-146.9283216170917
 21
2949.617312210833
  0
LINE
  5
130
100
AcDbEntity
  8
0
  6
ByBlock
 62
  242
420
13443111
370
   30
100
AcDbLine
 10
-931.9283216170916
 20
1324.617312210833
 11
1038.071678382908
 21
1324.617312210833
  0
LINE
  5
131
100
AcDbEntity
  8
0
  6
ByLayer
 62
  256
370
   -1
100
AcDbLine
 10
-996.9283216170916
 20
1549.617312210833
 11
-146.9283216170916
 21
1973.544880460402
  0
LINE
  5
132
100
AcDbEntity
  8
0
  6
ByLayer
 62
  256
370
   -1
100
AcDbLine
 10
253.0716783829081
 20
1973.544880460402
 11
1103.071678382908
 21
1549.617312210833
  0
ARC
  5
133
100
AcDbEntity
  8
0
  6
ByLayer
 62
  256
370
   30
100
AcDbCircle
 10
1038.071678382908
 20
1364.617312210833
 40
40
100
AcDbArc
 50
270
 51
0
  0
ARC
  5
134
100
AcDbEntity
  8
0
  6
ByLayer
 62
  256
370
   -1
100
AcDbCircle
 10
-931.9283216170917
 20
1364.617312210833
 40
40
100
AcDbArc
 50
180
 51
270
  0
CIRCLE
  5
135
100
AcDbEntity
  8
0
  6
ByLayer
 62
  256
370
   80
100
AcDbCircle
 10
-931.9283216170917
 20
1332.617312210833
 40
8
  0
LINE
  5
136
100
AcDbEntity
  8
Defpoints
  6
ByLayer
 62
  256
370
   80
100
AcDbLine
 10
-146.9283216170913
 20
1340.617312210833
 11
-246.9283216170913
 21
1340.617312210833
  0
LINE
  5
137
100
AcDbEntity
  8
Defpoints
  6
ByLayer
 62
  256
370
   80
100
AcDbLine
 10
-246.9283216170913
 20
1340.617312210833
 11
-346.9283216170913
 21
1340.617312210833
  0
LINE
  5
138
100
AcDbEntity
  8
Defpoints
  6
ByLayer
 62
  256
370
   80
100
AcDbLine
 10
253.071678382908
 20
1340.617312210833
 11
453.071678382908
 21
1340.617312210833
  0
LINE
  5
139
100
AcDbEntity
  8
0
  6
ByLayer
 62
  256
370
   -1
100
AcDbLine
 10
-106.9283216170913
 20
1324.617312210833
 11
-106.9283216170917
 21
2949.617312210833
  0
LINE
  5
13A
100
AcDbEntity
  8
0
  6
ByLayer
 62
  256
370
   -1
100
AcDbLine
 10
213.0716783829091
 20
1324.617312210833
 11
213.0716783829083
 21
2949.617312210833
  0
LINE
  5
13B
100
AcDbEntity
  8
0
  6
ByLayer
 62
  256
370
   -1
100
AcDbLine
 10
253.0716783829092
 20
1340.617312210833
 11
253.0716783829083
 21
2949.617312210833
  0
LINE
  5
13C
100
AcDbEntity
  8
0
  6
ByLayer
 62
  256
370
   -1
100
AcDbLine
 10
253.0716783829092
 20
1340.617312210833
 11
253.0716783829083
 21
2949.617312210833
  0
LINE
  5
13D
100
AcDbEntity
  8
0
  6
ByLayer
 62
  256
370
   -1
100
AcDbLine
 10
53.07167838290916
 20
1340.617312210833
 11
53.07167838290832
 21
2949.617312210833
  0
INSERT
  5
13E
100
AcDbEntity
  8
lateral ties
  6
ByLayer
 62
  256
370
   40
100
AcDbBlockReference
  2
*U8
 10
46.90242431141116
 20
1455.554398270883
 30
0
 41
1
 42
1
 43
0
 50
270
 70
    1
 71
    1
 44
0
 45
0
  0
DIMENSION
  5
13F
100
AcDbEntity
  8
dimensions
  6
ByLayer
 62
  256
370
   -1
100
AcDbDimension
  2
*D1
 10
253.0716783829083
 20
3073.888858557261
 30
0
 11
53.07167838290826
 21
3099.513858557261
 31
0
 70
   32
 71
    5
  3
Standard
 53
0
210
0
220
0
230
1
100
AcDbAlignedDimension
 13
-146.9283216170917
 23
2949.617312210833
 33
0
 14
253.0716783829083
 24
2949.617312210833
 34
0
100
AcDbRotatedDimension
  0
DIMENSION
  5
140
100
AcDbEntity
  8
dimensions
  6
ByLayer
 62
  256
370
   -1
100
AcDbDimension
  2
*D2
 10
253.0716783829083
 20
2994.624768667572
 30
0
 11
233.0716783829083
 21
3020.249768667572
 31
0
 70
   32
 71
    5
  3
Standard
 53
0
210
0
220
0
230
1
100
AcDbAlignedDimension
 13
213.0716783829083
 23
2949.617312210833
 33
0
 14
253.0716783829083
 24
2949.617312210833
 34
0
100
AcDbRotatedDimension
  0
DIMENSION
  5
141
100
AcDbEntity
  8
dimensions
  6
ByLayer
 62
  256
370
   -1
100
AcDbDimension
  2
*D3
 10
-346.9283216170913
 20
1431.28889638424
 30
0
 11
-246.9283216170913
 21
1456.91389638424
 31
0
 70
   32
 71
    5
  3
Standard
 53
0
210
0
220
0
230
1
100
AcDbAlignedDimension
 13
-146.9283216170913
 23
1340.617312210833
 33
0
 14
-346.9283216170913
 24
1340.617312210833
 34
0
100
AcDbRotatedDimension
  0
DIMENSION
  5
142
100
AcDbEntity
  8
dimensions
  6
ByLayer
 62
  256
370
   -1
100
AcDbDimension
  2
*D4
 10
1103.071678382908
 20
982.1038796330183
 30
0
 11
53.07167838290843
 21
1007.728879633018
 31
0
 70
   32
 71
    5
  3
Standard
 53
0
210
0
220
0
230
1
100
AcDbAlignedDimension
 13
-996.9283216170916
 23
1149.617312210833
 33
0
 14
1103.071678382908
 24
1149.617312210833
 34
0
100
AcDbRotatedDimension
  0
DIMENSION
  5
143
100
AcDbEntity
  8
dimensions
  6
ByLayer
 62
  256
370
   -1
100
AcDbDimension
  2
*D5
 10
-1078.335617132943
 20
1149.617312210833
 30
0
 11
-1103.960617132943
 21
1224.617312210833
 31
0
 70
   32
 71
    5
  3
Standard
 53
0
210
0
220
0
230
1
100
AcDbAlignedDimension
 13
-996.9283216170916
 23
1299.617312210833
 33
0
 14
-996.9283216170916
 24
1149.617312210833
 34
0
 50
90
100
AcDbRotatedDimension
  0
DIMENSION
  5
144
100
AcDbEntity
  8
dimensions
  6
ByLayer
 62
  256
370
   -1
100
AcDbDimension
  2
*D6
 10
-1160.442390011086
 20
1299.617312210833
 30
0
 11
-1186.067390011086
 21
1424.617312210833
 31
0
 70
   32
 71
    5
  3
Standard
 53
0
210
0
220
0
230
1
100
AcDbAlignedDimension
 13
-996.9283216170917
 23
1549.617312210833
 33
0
 14
-996.9283216170916
 24
1299.617312210833
 34
0
 50
90
100
AcDbRotatedDimension
  0
DIMENSION
  5
145
100
AcDbEntity
  8
dimensions
  6
ByLayer
 62
  256
370
   -1
100
AcDbDimension
  2
*D7
 10
536.4309161372
 20
2055.554398270883
 30
0
 11
510.8059161372
 21
1980.554398270883
 31
0
 70
   32
 71
    5
  3
Standard
 53
0
210
0
220
0
230
1
100
AcDbAlignedDimension
 13
206.9024243114115
 23
1905.554398270883
 33
0
 14
206.9024243114113
 24
2055.554398270883
 34
0
 50
90
100
AcDbRotatedDimension
  0
DIMENSION
  5
146
100
AcDbEntity
  8
dimensions
  6
ByLayer
 62
  256
370
   -1
100
AcDbDimension
  2
*D8
 10
367.1979096656305
 20
2949.617312210833
 30
0
 11
341.5729096656305
 21
2461.581096335618
 31
0
 70
   32
 71
    5
  3
Standard
 53
0
210
0
220
0
230
1
100
AcDbAlignedDimension
 13
253.0716783829088
 23
1973.544880460402
 33
0
 14
253.0716783829083
 24
2949.617312210833
 34
0
 50
90
100
AcDbRotatedDimension
  0
DIMENSION
  5
147
100
AcDbEntity
  8
dimensions
  6
ByLayer
 62
  256
370
   -1
100
AcDbDimension
  2
*D9
 10
1174.672336713736
 20
1973.544880460402
 30
0
 11
1149.047336713736
 21
1761.581096335618
 31
0
 70
   32
 71
    5
  3
Standard
 53
0
210
0
220
0
230
1
100
AcDbAlignedDimension
 13
1103.071678382908
 23
1549.617312210833
 33
0
 14
253.0716783829081
 24
1973.544880460402
 34
0
 50
90
100
AcDbRotatedDimension
  0
MTEXT
  5
148
100
AcDbEntity
  8
dimensions
  6
ByLayer
 62
  256
370
   -1
100
AcDbMText
 10
654.1172905958734
 20
2818.99920214958
 30
0
 40
45
 41
758.0917749999999
 71
    1
 72
    1
  1
NAME: RAJ GUPTA\PBRANCH: CIVIL\PCRN: 2114047
  7
amiri-regular
210
0
220
0
230
1
 50
0
 73
    2
 44
1
  0
DIMENSION
  5
149
100
AcDbEntity
  8
dimensions
  6
ByLayer
 62
  256
370
   -1
100
AcDbDimension
  2
*D10
 10
-857.2661712766333
 20
1299.617312210833
 30
0
 11
-882.8911712766333
 21
1312.117312210833
 31
0
 70
   32
 71
    5
 72
    0
  3
Standard
 53
0
210
0
220
0
230
1
100
AcDbAlignedDimension
 13
-931.9283216170916
 23
1324.617312210833
 33
0
 14
-931.9283216170916
 24
1299.617312210833
 34
0
 50
90
100
AcDbRotatedDimension
  0
LINE
  5
14A
100
AcDbEntity
  8
column x
  6
ByLayer
 62
  256
370
   -1
100
AcDbLine
 10
2000
 20
3000
 11
2400
 21
3000
  0
LINE
  5
14B
100
AcDbEntity
  8
column x
  6
ByLayer
 62
  256
370
   -1
100
AcDbLine
 10
2000
 20
2600
 11
2400
 21
2600
  0
LINE
  5
14C
100
AcDbEntity
  8
column x
  6
ByLayer
 62
  256
370
   -1
100
AcDbLine
 10
2000
 20
2600
 11
2000
 21
3000
  0
LINE
  5
14D
100
AcDbEntity
  8
column x
  6
ByLayer
 62
  256
370
   -1
100
AcDbLine
 10
2400
 20
2600
 11
2400
 21
3000
  0
LINE
  5
14E
100
AcDbEntity
  8
column x
  6
ByLayer
 62
  256
370
   -1
100
AcDbLine
 10
2040
 20
2600
 11
2040
 21
3000
  0
LINE
  5
14F
100
AcDbEntity
  8
column x
  6
ByLayer
 62
  256
370
   -1
100
AcDbLine
 10
2000
 20
2960
 11
2400
 21
2960
  0
LINE
  5
150
100
AcDbEntity
  8
column x
  6
ByLayer
 62
  256
370
   -1
100
AcDbLine
 10
2360
 20
2600
 11
2360
 21
3000
  0
LINE
  5
151
100
AcDbEntity
  8
column x
  6
ByLayer
 62
  256
370
   -1
100
AcDbLine
 10
2000
 20
2640
 11
2400
 21
2640
  0
CIRCLE
  5
152
100
AcDbEntity
  8
column x
  6
ByLayer
 62
  256
370
   -1
100
AcDbCircle
 10
2052.011187018415
 20
2947.93718979071
 40
12
  0
CIRCLE
  5
153
100
AcDbEntity
  8
column x
  6
ByLayer
 62
  256
370
   -1
100
AcDbCircle
 10
2347.753633973416
 20
2947.832189136109
 40
12
  0
CIRCLE
  5
154
100
AcDbEntity
  8
column x
  6
ByLayer
 62
  256
370
   -1
100
AcDbCircle
 10
2051.999638055625
 20
2652.34076179066
 40
12
  0
CIRCLE
  5
155
100
AcDbEntity
  8
column x
  6
ByLayer
 62
  256
370
   -1
100
AcDbCircle
 10
2347.742085010627
 20
2652.235761136059
 40
12
  0
CIRCLE
  5
156
100
AcDbEntity
  8
column x
  6
ByLayer
 62
  256
370
   -1
100
AcDbCircle
 10
2052.204676100173
 20
2799.38775659204
 40
12
  0
CIRCLE
  5
157
100
AcDbEntity
  8
column x
  6
ByLayer
 62
  256
370
   -1
100
AcDbCircle
 10
2347.947123055174
 20
2799.282755937439
 40
12
  0
CIRCLE
  5
158
100
AcDbEntity
  8
column x
  6
ByLayer
 62
  256
370
   -1
100
AcDbCircle
 10
2200.8609446423
 20
2946.935987319272
 40
12
  0
CIRCLE
  5
159
100
AcDbEntity
  8
column x
  6
ByLayer
 62
  256
370
   -1
100
AcDbCircle
 10
2200.849395679511
 20
2651.339559319223
 40
12
  0
MTEXT
  5
15A
100
AcDbEntity
  8
dimensions
  6
ByLayer
 62
  256
370
   -1
100
AcDbMText
 10
2683.771576059704
 20
2754.770824103611
 30
0
 40
50
 41
227.7777777777824
 71
    1
 72
    1
  1
8-12mm
  7
cyrillic_ii
210
0
220
0
230
1
 50
0
 73
    2
 44
1
  0
LEADER
  5
15B
100
AcDbEntity
  8
dimensions
  6
ByLayer
 62
  256
370
   -1
100
AcDbLeader
  3
Standard
 71
    1
 72
    0
 73
    3
 74
    0
 75
    0
 40
1
 41
10
 76
3
 76
3
 10
2348.488335638924
 20
2651.474459647716
 30
0
 10
2438.41572404336
 20
2736.559604061144
 30
0
 10
2604.43551802078
 20
2736.559604061144
 30
0
  0
DIMENSION
  5
15C
100
AcDbEntity
  8
dimensions
  6
ByLayer
 62
  256
370
   -1
100
AcDbDimension
  2
*D12
 10
2400
 20
3068.31798975364
 30
0
 11
2200
 21
3093.94298975364
 31
0
 70
   32
 71
    5
  3
Standard
 53
0
210
0
220
0
230
1
100
AcDbAlignedDimension
 13
2000
 23
3000
 33
0
 14
2400
 24
3000
 34
0
100
AcDbRotatedDimension
  0
DIMENSION
  5
15D
100
AcDbEntity
  8
dimensions
  6
ByLayer
 62
  256
370
   -1
100
AcDbDimension
  2
*D13
 10
1947.40299106137
 20
3000
 30
0
 11
1921.77799106137
 21
2800
 31
0
 70
   32
 71
    5
  3
Standard
 53
0
210
0
220
0
230
1
100
AcDbAlignedDimension
 13
2000
 23
2600
 33
0
 14
2000
 24
3000
 34
0
 50
90
100
AcDbRotatedDimension
  0
ENDSEC
  0
SECTION
  2
OBJECTS
  0
DICTIONARY
  5
C
330
0
100
AcDbDictionary
281
    1
  3
ACAD_GROUP
350
D
  0
DICTIONARY
  5
D
330
C
100
AcDbDictionary
281
    1
  0
PLOTSETTINGS
  5
15E
100
AcDbPlotSettings
  6
1x1
 40
0
 41
0
 42
0
 43
0
  0
ENDSEC
  0
EOF
