999
dxfrw 0.6.3
  0
SECTION
  2
HEADER
  9
$ACADVER
  1
AC1021
  9
$DWGCODEPAGE
  3
ANSI_1252
  9
$INSBASE
 10
0
 20
0
 30
0
  9
$EXTMIN
 10
-4.624999999999989
 20
-64.89523860278038
 30
0
  9
$EXTMAX
 10
1013.784383469365
 20
964.1295593390628
 30
0
  9
$LIMMIN
 10
0
 20
0
  9
$LIMMAX
 10
150
 20
150
  9
$ORTHOMODE
 70
    0
  9
$REGENMODE
 70
    1
  9
$FILLMODE
 70
    1
  9
$QTEXTMODE
 70
    0
  9
$MIRRTEXT
 70
    0
  9
$LTSCALE
 40
1
  9
$ATTMODE
 70
    1
  9
$TEXTSIZE
 40
5
  9
$TRACEWID
 40
1
  9
$TEXTSTYLE
  7
Standard
  9
$CLAYER
  8
text
  9
$CELTYPE
  6
ByLayer
  9
$CECOLOR
 62
    7
  9
$CELTSCALE
 40
1
  9
$DISPSILH
 70
    0
  9
$DIMSCALE
 40
1
  9
$DIMASZ
 40
5
  9
$DIMEXO
 40
0.625
  9
$DIMDLI
 40
3
  9
$DIMRND
 40
0
  9
$DIMDLE
 40
0
  9
$DIMEXE
 40
1.25
  9
$DIMTP
 40
0
  9
$DIMTM
 40
0
  9
$DIMTXT
 40
5
  9
$DIMCEN
 40
2.475
  9
$DIMTSZ
 40
0
  9
$DIMTOL
 70
    0
  9
$DIMLIM
 70
    0
  9
$DIMTIH
 70
    0
  9
$DIMTOH
 70
    1
  9
$DIMSE1
 70
    0
  9
$DIMSE2
 70
    0
  9
$DIMTAD
 70
    1
  9
$DIMZIN
 70
   11
  9
$DIMBLK
  1

  9
$DIMASO
 70
    1
  9
$DIMSHO
 70
    1
  9
$DIMPOST
  1

  9
$DIMAPOST
  1

  9
$DIMALT
 70
    0
  9
$DIMALTD
 70
    3
  9
$DIMALTF
 40
0.03937007874016
  9
$DIMLFAC
 40
1
  9
$DIMTOFL
 70
    1
  9
$DIMTVP
 40
0
  9
$DIMTIX
 70
    0
  9
$DIMSOXD
 70
    0
  9
$DIMSAH
 70
    0
  9
$DIMBLK1
  1

  9
$DIMBLK2
  1

  9
$DIMSTYLE
  2
Annotative
  9
$DIMCLRD
 70
    0
  9
$DIMCLRE
 70
    0
  9
$DIMCLRT
 70
    0
  9
$DIMTFAC
 40
1
  9
$DIMGAP
 40
0.625
  9
$DIMJUST
 70
    0
  9
$DIMSD1
 70
    0
  9
$DIMSD2
 70
    0
  9
$DIMTOLJ
 70
    0
  9
$DIMTZIN
 70
    8
  9
$DIMALTZ
 70
    0
  9
$DIMALTTZ
 70
    0
  9
$DIMUPT
 70
    0
  9
$DIMDEC
 70
    1
  9
$DIMTDEC
 70
    1
  9
$DIMALTU
 70
    2
  9
$DIMALTTD
 70
    3
  9
$DIMTXSTY
  7
standard
  9
$DIMAUNIT
 70
    0
  9
$DIMADEC
 70
    0
  9
$DIMALTRND
 40
0
  9
$DIMAZIN
 70
    0
  9
$DIMDSEP
 70
    0
  9
$DIMATFIT
 70
    3
  9
$DIMFRAC
 70
    0
  9
$DIMLDRBLK
  1

  9
$DIMLUNIT
 70
    3
  9
$DIMLWD
 70
   -2
  9
$DIMLWE
 70
   -2
  9
$DIMTMOVE
 70
    0
  9
$DIMFXL
 40
1
  9
$DIMFXLON
 70
    0
  9
$DIMJOGANG
 40
0.7853981633974483
  9
$DIMTFILL
 70
    0
  9
$DIMTFILLCLR
 70
    0
  9
$DIMARCSYM
 70
    0
  9
$DIMLTYPE
  6

  9
$DIMLTEX1
  6

  9
$DIMLTEX2
  6

  9
$LUNITS
 70
    3
  9
$LUPREC
 70
    3
  9
$SKETCHINC
 40
1
  9
$FILLETRAD
 40
0
  9
$AUNITS
 70
    0
  9
$AUPREC
 70
    1
  9
$MENU
  1
.
  9
$ELEVATION
 40
0
  9
$PELEVATION
 40
0
  9
$THICKNESS
 40
0
  9
$LIMCHECK
 70
    0
  9
$CHAMFERA
 40
0
  9
$CHAMFERB
 40
0
  9
$CHAMFERC
 40
0
  9
$CHAMFERD
 40
0
  9
$SKPOLY
 70
    0
  9
$USRTIMER
 70
    1
  9
$ANGBASE
 50
0
  9
$ANGDIR
 70
    0
  9
$PDMODE
 70
    2
  9
$PDSIZE
 40
0
  9
$PLINEWID
 40
0
  9
$SPLFRAME
 70
    0
  9
$SPLINETYPE
 70
    6
  9
$SPLINESEGS
 70
    8
  9
$HANDSEED
  5
20000
  9
$SURFTAB1
 70
    6
  9
$SURFTAB2
 70
    6
  9
$SURFTYPE
 70
    6
  9
$SURFU
 70
    6
  9
$SURFV
 70
    6
  9
$UCSBASE
  2

  9
$UCSNAME
  2

  9
$UCSORG
 10
0
 20
0
 30
0
  9
$UCSXDIR
 10
1
 20
0
 30
0
  9
$UCSYDIR
 10
0
 20
1
 30
0
  9
$UCSORTHOREF
  2

  9
$UCSORTHOVIEW
 70
    0
  9
$UCSORGTOP
 10
0
 20
0
 30
0
  9
$UCSORGBOTTOM
 10
0
 20
0
 30
0
  9
$UCSORGLEFT
 10
0
 20
0
 30
0
  9
$UCSORGRIGHT
 10
0
 20
0
 30
0
  9
$UCSORGFRONT
 10
0
 20
0
 30
0
  9
$UCSORGBACK
 10
0
 20
0
 30
0
  9
$PUCSBASE
  2

  9
$PUCSNAME
  2

  9
$PUCSORG
 10
0
 20
0
 30
0
  9
$PUCSXDIR
 10
1
 20
0
 30
0
  9
$PUCSYDIR
 10
0
 20
1
 30
0
  9
$PUCSORTHOREF
  2

  9
$PUCSORTHOVIEW
 70
    0
  9
$PUCSORGTOP
 10
0
 20
0
 30
0
  9
$PUCSORGBOTTOM
 10
0
 20
0
 30
0
  9
$PUCSORGLEFT
 10
0
 20
0
 30
0
  9
$PUCSORGRIGHT
 10
0
 20
0
 30
0
  9
$PUCSORGFRONT
 10
0
 20
0
 30
0
  9
$PUCSORGBACK
 10
0
 20
0
 30
0
  9
$USERI1
 70
    0
  9
$USERI2
 70
    0
  9
$USERI3
 70
    0
  9
$USERI4
 70
    0
  9
$USERI5
 70
    0
  9
$USERR1
 40
0
  9
$USERR2
 40
0
  9
$USERR3
 40
0
  9
$USERR4
 40
0
  9
$USERR5
 40
0
  9
$WORLDVIEW
 70
    1
  9
$SHADEDGE
 70
    3
  9
$SHADEDIF
 70
   70
  9
$TILEMODE
 70
    1
  9
$MAXACTVP
 70
   64
  9
$PINSBASE
 10
0
 20
0
 30
0
  9
$PLIMCHECK
 70
    0
  9
$PEXTMIN
 10
25.69999999999999
 20
19.5
 30
0
  9
$PEXTMAX
 10
231.3
 20
175.5
 30
0
  9
$GRIDMODE
 70
    0
  9
$SNAPSTYLE
 70
    0
  9
$GRIDUNIT
 10
0
 20
0
  9
$PLIMMIN
 10
0
 20
0
  9
$PLIMMAX
 10
297
 20
210
  9
$UNITMODE
 70
    0
  9
$VISRETAIN
 70
    1
  9
$PLINEGEN
 70
    0
  9
$PSLTSCALE
 70
    1
  9
$TREEDEPTH
 70
 3020
  9
$CMLSTYLE
  2
Standard
  9
$CMLJUST
 70
    0
  9
$CMLSCALE
 40
20
  9
$PROXYGRAPHICS
 70
    1
  9
$MEASUREMENT
 70
    0
  9
$CELWEIGHT
370
   30
  9
$ENDCAPS
280
    0
  9
$JOINSTYLE
280
    0
  9
$LWDISPLAY
290
    0
  9
$INSUNITS
 70
    1
  9
$HYPERLINKBASE
  1

  9
$STYLESHEET
  1
monochrome.ctb
  9
$XEDIT
290
    1
  9
$CEPSNTYPE
380
    0
  9
$PSTYLEMODE
290
    1
  9
$EXTNAMES
290
    1
  9
$PSVPSCALE
 40
0
  9
$OLESTARTUP
290
    0
  9
$SORTENTS
280
  127
  9
$INDEXCTL
280
    0
  9
$HIDETEXT
280
    1
  9
$XCLIPFRAME
290
    2
  9
$HALOGAP
280
    0
  9
$OBSCOLOR
 70
  257
  9
$OBSLTYPE
280
    0
  9
$INTERSECTIONDISPLAY
280
    0
  9
$INTERSECTIONCOLOR
 70
  257
  9
$DIMASSOC
280
    2
  9
$PROJECTNAME
  1

  9
$CAMERADISPLAY
290
    0
  9
$LENSLENGTH
 40
50
  9
$CAMERAHEIGHT
 40
0
  9
$STEPSPERSEC
 40
2
  9
$STEPSIZE
 40
6
  9
$3DDWFPREC
 40
2
  9
$PSOLWIDTH
 40
5
  9
$PSOLHEIGHT
 40
80
  9
$LOFTANG1
 40
1.570796326794896
  9
$LOFTANG2
 40
1.570796326794896
  9
$LOFTMAG1
 40
0
  9
$LOFTMAG2
 40
0
  9
$LOFTPARAM
 70
    7
  9
$LOFTNORMALS
280
    1
  9
$LATITUDE
 40
37.795
  9
$LONGITUDE
 40
-122.394
  9
$NORTHDIRECTION
 40
0
  9
$TIMEZONE
 70
-8000
  9
$LIGHTGLYPHDISPLAY
280
    1
  9
$TILEMODELIGHTSYNCH
280
    1
  9
$SOLIDHIST
280
    0
  9
$SHOWHIST
280
    1
  9
$DWFFRAME
280
    2
  9
$DGNFRAME
280
    0
  9
$REALWORLDSCALE
290
    1
  9
$INTERFERECOLOR
 62
    1
  9
$CSHADOW
280
    0
  9
$SHADOWPLANELOCATION
 40
0
  0
ENDSEC
  0
SECTION
  2
CLASSES
  0
ENDSEC
  0
SECTION
  2
TABLES
  0
TABLE
  2
VPORT
  5
8
330
0
100
AcDbSymbolTable
 70
    1
  0
VPORT
  5
31
330
2
100
AcDbSymbolTableRecord
100
AcDbViewportTableRecord
  2
*ACTIVE
 70
    0
 10
0
 20
0
 11
1
 21
1
 12
356.614787369565
 22
165.0193210184989
 13
0
 23
0
 14
10
 24
10
 15
10
 25
10
 16
0
 26
0
 36
1
 17
0
 27
0
 37
0
 40
462.3013188083788
 41
2.037433155080214
 42
50
 43
0
 44
0
 50
0
 51
0
 71
    0
 72
  100
 73
    1
 74
    3
 75
    0
 76
    0
 77
    0
 78
    0
281
    0
 65
    1
110
0
120
0
130
0
111
1
121
0
131
0
112
0
122
1
132
0
 79
    0
146
0
348
10020
 60
    7
 61
    5
292
1
282
    1
141
0
142
0
 63
  250
421
3358443
  0
ENDTAB
  0
TABLE
  2
LTYPE
  5
5
330
0
100
AcDbSymbolTable
 70
    4
  0
LTYPE
  5
14
330
5
100
AcDbSymbolTableRecord
100
AcDbLinetypeTableRecord
  2
ByBlock
 70
    0
  3

 72
   65
 73
    0
 40
0
  0
LTYPE
  5
15
330
5
100
AcDbSymbolTableRecord
100
AcDbLinetypeTableRecord
  2
ByLayer
 70
    0
  3

 72
   65
 73
    0
 40
0
  0
LTYPE
  5
16
330
5
100
AcDbSymbolTableRecord
100
AcDbLinetypeTableRecord
  2
Continuous
 70
    0
  3
Solid line
 72
   65
 73
    0
 40
0
  0
LTYPE
  5
32
330
5
100
AcDbSymbolTableRecord
100
AcDbLinetypeTableRecord
  2
DOT
 70
    0
  3
Dot . . . . . . . . . . . . . . . . . . . . . .
 72
   65
 73
    2
 40
6.35
 49
0
 74
    0
 49
-6.35
 74
    0
  0
LTYPE
  5
33
330
5
100
AcDbSymbolTableRecord
100
AcDbLinetypeTableRecord
  2
DOTTINY
 70
    0
  3
Dot (.15x) .....................................
 72
   65
 73
    2
 40
0.9525
 49
0
 74
    0
 49
-0.9525
 74
    0
  0
LTYPE
  5
34
330
5
100
AcDbSymbolTableRecord
100
AcDbLinetypeTableRecord
  2
DOT2
 70
    0
  3
Dot (.5x) .....................................
 72
   65
 73
    2
 40
3.175
 49
0
 74
    0
 49
-3.175
 74
    0
  0
LTYPE
  5
35
330
5
100
AcDbSymbolTableRecord
100
AcDbLinetypeTableRecord
  2
DOTX2
 70
    0
  3
Dot (2x) .  .  .  .  .  .  .  .  .  .  .  .  .
 72
   65
 73
    2
 40
12.7
 49
0
 74
    0
 49
-12.7
 74
    0
  0
LTYPE
  5
36
330
5
100
AcDbSymbolTableRecord
100
AcDbLinetypeTableRecord
  2
DASHED
 70
    0
  3
Dashed _ _ _ _ _ _ _ _ _ _ _ _ _ _ _ _ _
 72
   65
 73
    2
 40
19.05
 49
12.7
 74
    0
 49
-6.35
 74
    0
  0
LTYPE
  5
37
330
5
100
AcDbSymbolTableRecord
100
AcDbLinetypeTableRecord
  2
DASHEDTINY
 70
    0
  3
Dashed (.15x) _ _ _ _ _ _ _ _ _ _ _ _ _ _ _ _ _
 72
   65
 73
    2
 40
2.8575
 49
1.905
 74
    0
 49
-0.9525
 74
    0
  0
LTYPE
  5
38
330
5
100
AcDbSymbolTableRecord
100
AcDbLinetypeTableRecord
  2
DASHED2
 70
    0
  3
Dashed (.5x) _ _ _ _ _ _ _ _ _ _ _ _ _ _ _ _ _
 72
   65
 73
    2
 40
9.524999999999999
 49
6.35
 74
    0
 49
-3.175
 74
    0
  0
LTYPE
  5
39
330
5
100
AcDbSymbolTableRecord
100
AcDbLinetypeTableRecord
  2
DASHEDX2
 70
    0
  3
Dashed (2x) ____  ____  ____  ____  ____  ___
 72
   65
 73
    2
 40
38.09999999999999
 49
25.4
 74
    0
 49
-12.7
 74
    0
  0
LTYPE
  5
3A
330
5
100
AcDbSymbolTableRecord
100
AcDbLinetypeTableRecord
  2
DASHDOT
 70
    0
  3
Dash dot __ . __ . __ . __ . __ . __ . __ . __
 72
   65
 73
    4
 40
25.4
 49
12.7
 74
    0
 49
-6.35
 74
    0
 49
0
 74
    0
 49
-6.35
 74
    0
  0
LTYPE
  5
3B
330
5
100
AcDbSymbolTableRecord
100
AcDbLinetypeTableRecord
  2
DASHDOTTINY
 70
    0
  3
Dash dot (.15x) _._._._._._._._._._._._._._._.
 72
   65
 73
    4
 40
3.81
 49
1.905
 74
    0
 49
-0.9525
 74
    0
 49
0
 74
    0
 49
-0.9525
 74
    0
  0
LTYPE
  5
3C
330
5
100
AcDbSymbolTableRecord
100
AcDbLinetypeTableRecord
  2
DASHDOT2
 70
    0
  3
Dash dot (.5x) _._._._._._._._._._._._._._._.
 72
   65
 73
    4
 40
12.7
 49
6.35
 74
    0
 49
-3.175
 74
    0
 49
0
 74
    0
 49
-3.175
 74
    0
  0
LTYPE
  5
3D
330
5
100
AcDbSymbolTableRecord
100
AcDbLinetypeTableRecord
  2
DASHDOTX2
 70
    0
  3
Dash dot (2x) ____  .  ____  .  ____  .  ___
 72
   65
 73
    4
 40
50.8
 49
25.4
 74
    0
 49
-12.7
 74
    0
 49
0
 74
    0
 49
-12.7
 74
    0
  0
LTYPE
  5
3E
330
5
100
AcDbSymbolTableRecord
100
AcDbLinetypeTableRecord
  2
DIVIDE
 70
    0
  3
Divide ____ . . ____ . . ____ . . ____ . . ____
 72
   65
 73
    6
 40
31.75
 49
12.7
 74
    0
 49
-6.35
 74
    0
 49
0
 74
    0
 49
-6.35
 74
    0
 49
0
 74
    0
 49
-6.35
 74
    0
  0
LTYPE
  5
3F
330
5
100
AcDbSymbolTableRecord
100
AcDbLinetypeTableRecord
  2
DIVIDETINY
 70
    0
  3
Divide (.15x) __..__..__..__..__..__..__..__.._
 72
   65
 73
    6
 40
4.7625
 49
1.905
 74
    0
 49
-0.9525
 74
    0
 49
0
 74
    0
 49
-0.9525
 74
    0
 49
0
 74
    0
 49
-0.9525
 74
    0
  0
LTYPE
  5
40
330
5
100
AcDbSymbolTableRecord
100
AcDbLinetypeTableRecord
  2
DIVIDE2
 70
    0
  3
Divide (.5x) __..__..__..__..__..__..__..__.._
 72
   65
 73
    6
 40
15.875
 49
6.35
 74
    0
 49
-3.175
 74
    0
 49
0
 74
    0
 49
-3.175
 74
    0
 49
0
 74
    0
 49
-3.175
 74
    0
  0
LTYPE
  5
41
330
5
100
AcDbSymbolTableRecord
100
AcDbLinetypeTableRecord
  2
DIVIDEX2
 70
    0
  3
Divide (2x) ________  .  .  ________  .  .  _
 72
   65
 73
    6
 40
63.5
 49
25.4
 74
    0
 49
-12.7
 74
    0
 49
0
 74
    0
 49
-12.7
 74
    0
 49
0
 74
    0
 49
-12.7
 74
    0
  0
LTYPE
  5
42
330
5
100
AcDbSymbolTableRecord
100
AcDbLinetypeTableRecord
  2
BORDER
 70
    0
  3
Border __ __ . __ __ . __ __ . __ __ . __ __ .
 72
   65
 73
    6
 40
44.45
 49
12.7
 74
    0
 49
-6.35
 74
    0
 49
12.7
 74
    0
 49
-6.35
 74
    0
 49
0
 74
    0
 49
-6.35
 74
    0
  0
LTYPE
  5
43
330
5
100
AcDbSymbolTableRecord
100
AcDbLinetypeTableRecord
  2
BORDERTINY
 70
    0
  3
Border (.15x) __.__.__.__.__.__.__.__.__.__.__.
 72
   65
 73
    6
 40
6.6675
 49
1.905
 74
    0
 49
-0.9525
 74
    0
 49
1.905
 74
    0
 49
-0.9525
 74
    0
 49
0
 74
    0
 49
-0.9525
 74
    0
  0
LTYPE
  5
44
330
5
100
AcDbSymbolTableRecord
100
AcDbLinetypeTableRecord
  2
BORDER2
 70
    0
  3
Border (.5x) __.__.__.__.__.__.__.__.__.__.__.
 72
   65
 73
    6
 40
22.225
 49
6.35
 74
    0
 49
-3.175
 74
    0
 49
6.35
 74
    0
 49
-3.175
 74
    0
 49
0
 74
    0
 49
-3.175
 74
    0
  0
LTYPE
  5
45
330
5
100
AcDbSymbolTableRecord
100
AcDbLinetypeTableRecord
  2
BORDERX2
 70
    0
  3
Border (2x) ____  ____  .  ____  ____  .  ___
 72
   65
 73
    6
 40
88.89999999999999
 49
25.4
 74
    0
 49
-12.7
 74
    0
 49
25.4
 74
    0
 49
-12.7
 74
    0
 49
0
 74
    0
 49
-12.7
 74
    0
  0
LTYPE
  5
46
330
5
100
AcDbSymbolTableRecord
100
AcDbLinetypeTableRecord
  2
CENTER
 70
    0
  3
Center ____ _ ____ _ ____ _ ____ _ ____ _ ____
 72
   65
 73
    4
 40
50.8
 49
31.75
 74
    0
 49
-6.35
 74
    0
 49
6.35
 74
    0
 49
-6.35
 74
    0
  0
LTYPE
  5
47
330
5
100
AcDbSymbolTableRecord
100
AcDbLinetypeTableRecord
  2
CENTERTINY
 70
    0
  3
Center (.15x) ___ _ ___ _ ___ _ ___ _ ___ _ ___
 72
   65
 73
    4
 40
7.62
 49
4.7625
 74
    0
 49
-0.9525
 74
    0
 49
0.9525
 74
    0
 49
-0.9525
 74
    0
  0
LTYPE
  5
48
330
5
100
AcDbSymbolTableRecord
100
AcDbLinetypeTableRecord
  2
CENTER2
 70
    0
  3
Center (.5x) ___ _ ___ _ ___ _ ___ _ ___ _ ___
 72
   65
 73
    4
 40
28.575
 49
19.05
 74
    0
 49
-3.175
 74
    0
 49
3.175
 74
    0
 49
-3.175
 74
    0
  0
LTYPE
  5
49
330
5
100
AcDbSymbolTableRecord
100
AcDbLinetypeTableRecord
  2
CENTERX2
 70
    0
  3
Center (2x) ________  __  ________  __  _____
 72
   65
 73
    4
 40
101.6
 49
63.5
 74
    0
 49
-12.7
 74
    0
 49
12.7
 74
    0
 49
-12.7
 74
    0
  0
ENDTAB
  0
TABLE
  2
LAYER
  5
2
330
0
100
AcDbSymbolTable
 70
    1
  0
LAYER
  5
10
330
2
100
AcDbSymbolTableRecord
100
AcDbLayerTableRecord
  2
0
 70
    0
 62
   30
420
15109150
  6
CONTINUOUS
370
   -3
390
F
  0
LAYER
  5
4A
330
2
100
AcDbSymbolTableRecord
100
AcDbLayerTableRecord
  2
Defpoints
 70
    0
 62
    7
  6
CONTINUOUS
290
0
370
   35
390
F
  0
LAYER
  5
4B
330
2
100
AcDbSymbolTableRecord
100
AcDbLayerTableRecord
  2
HATCH
 70
    0
 62
  255
  6
CONTINUOUS
370
    5
390
F
  0
LAYER
  5
4C
330
2
100
AcDbSymbolTableRecord
100
AcDbLayerTableRecord
  2
WINDOWS
 70
    0
 62
    6
  6
CONTINUOUS
370
   -3
390
F
  0
LAYER
  5
4D
330
2
100
AcDbSymbolTableRecord
100
AcDbLayerTableRecord
  2
dimesnions
 70
    0
 62
    3
  6
CONTINUOUS
370
    0
390
F
  0
LAYER
  5
4E
330
2
100
AcDbSymbolTableRecord
100
AcDbLayerTableRecord
  2
doors
 70
    0
 62
    1
  6
CONTINUOUS
370
   -3
390
F
  0
LAYER
  5
4F
330
2
100
AcDbSymbolTableRecord
100
AcDbLayerTableRecord
  2
text
 70
    0
 62
    3
  6
CONTINUOUS
370
    0
390
F
  0
ENDTAB
  0
TABLE
  2
STYLE
  5
3
330
0
100
AcDbSymbolTable
 70
    3
  0
STYLE
  5
50
330
2
100
AcDbSymbolTableRecord
100
AcDbTextStyleTableRecord
  2
STANDARD
 70
    0
 40
0
 41
1
 50
0
 71
    0
 42
1
  3
STANDARD
  4

  0
STYLE
  5
51
330
2
100
AcDbSymbolTableRecord
100
AcDbTextStyleTableRecord
  2
Annotative
 70
    0
 40
0
 41
1
 50
0
 71
    0
 42
1
  3
Annotative
  4

  0
STYLE
  5
52
330
2
100
AcDbSymbolTableRecord
100
AcDbTextStyleTableRecord
  2
cyrillic_ii
 70
    0
 40
0
 41
1
 50
0
 71
    0
 42
1
  3
cyrillic_ii
  4

  0
ENDTAB
  0
TABLE
  2
VIEW
  5
6
330
0
100
AcDbSymbolTable
 70
    0
  0
ENDTAB
  0
TABLE
  2
UCS
  5
7
330
0
100
AcDbSymbolTable
 70
    0
  0
ENDTAB
  0
TABLE
  2
APPID
  5
9
330
0
100
AcDbSymbolTable
 70
    1
  0
APPID
  5
12
330
9
100
AcDbSymbolTableRecord
100
AcDbRegAppTableRecord
  2
ACAD
 70
    0
  0
APPID
  5
53
330
9
100
AcDbSymbolTableRecord
100
AcDbRegAppTableRecord
  2
LibreCad
 70
    0
  0
ENDTAB
  0
TABLE
  2
DIMSTYLE
  5
A
330
0
100
AcDbSymbolTable
 70
    1
100
AcDbDimStyleTable
 71
    1
  0
DIMSTYLE
105
54
330
A
100
AcDbSymbolTableRecord
100
AcDbDimStyleTableRecord
  2
Standard
 70
    0
 40
1
 41
5
 42
0.625
 43
0.38
 44
1.25
 45
0
 46
0
 47
0
 48
0
 49
1
140
5
141
0.09
142
0
143
25.4
144
1
145
0
146
1
147
0.625
148
0
 71
    0
 72
    0
 73
    0
 74
    1
 75
    0
 76
    0
 77
    0
 78
   11
 79
    0
170
    0
171
    2
172
    0
173
    0
174
    0
175
    0
176
    0
177
    0
178
    0
179
    0
271
    1
272
    4
273
    2
274
    2
275
    0
276
    0
277
    3
278
    0
279
    0
280
    0
281
    0
282
    0
283
    1
284
    0
285
    0
286
    0
288
    0
289
    3
340
standard
341

371
   -2
372
   -2
  0
ENDTAB
  0
TABLE
  2
BLOCK_RECORD
  5
1
330
0
100
AcDbSymbolTable
 70
    2
  0
BLOCK_RECORD
  5
1F
330
1
100
AcDbSymbolTableRecord
100
AcDbBlockTableRecord
  2
*Model_Space
 70
    0
280
    1
281
    0
  0
BLOCK_RECORD
  5
1E
330
1
100
AcDbSymbolTableRecord
100
AcDbBlockTableRecord
  2
*Paper_Space
 70
    0
280
    1
281
    0
  0
BLOCK_RECORD
  5
55
330
1
100
AcDbSymbolTableRecord
100
AcDbBlockTableRecord
  2
*D3
 70
    0
280
    1
281
    0
  0
BLOCK_RECORD
  5
58
330
1
100
AcDbSymbolTableRecord
100
AcDbBlockTableRecord
  2
*D1
 70
    0
280
    1
281
    0
  0
BLOCK_RECORD
  5
5B
330
1
100
AcDbSymbolTableRecord
100
AcDbBlockTableRecord
  2
*D2
 70
    0
280
    1
281
    0
  0
BLOCK_RECORD
  5
5E
330
1
100
AcDbSymbolTableRecord
100
AcDbBlockTableRecord
  2
A$C27ea0dbd
 70
    0
280
    1
281
    0
  0
BLOCK_RECORD
  5
61
330
1
100
AcDbSymbolTableRecord
100
AcDbBlockTableRecord
  2
Door - Imperial
 70
    0
280
    1
281
    0
  0
BLOCK_RECORD
  5
64
330
1
100
AcDbSymbolTableRecord
100
AcDbBlockTableRecord
  2
*U3
 70
    0
280
    1
281
    0
  0
BLOCK_RECORD
  5
67
330
1
100
AcDbSymbolTableRecord
100
AcDbBlockTableRecord
  2
3 feet door
 70
    0
280
    1
281
    0
  0
BLOCK_RECORD
  5
6A
330
1
100
AcDbSymbolTableRecord
100
AcDbBlockTableRecord
  2
6 FEET MAIN GATE
 70
    0
280
    1
281
    0
  0
BLOCK_RECORD
  5
6D
330
1
100
AcDbSymbolTableRecord
100
AcDbBlockTableRecord
  2
Window - Imperial
 70
    0
280
    1
281
    0
  0
ENDTAB
  0
ENDSEC
  0
SECTION
  2
BLOCKS
  0
BLOCK
  5
20
330
1F
100
AcDbEntity
  8
0
100
AcDbBlockBegin
  2
*Model_Space
 70
    0
 10
0
 20
0
 30
0
  3
*Model_Space
  1

  0
ENDBLK
  5
21
330
1F
100
AcDbEntity
  8
0
100
AcDbBlockEnd
  0
BLOCK
  5
1C
330
1B
100
AcDbEntity
  8
0
100
AcDbBlockBegin
  2
*Paper_Space
 70
    0
 10
0
 20
0
 30
0
  3
*Paper_Space
  1

  0
ENDBLK
  5
1D
330
1F
100
AcDbEntity
  8
0
100
AcDbBlockEnd
  0
BLOCK
  5
56
330
55
100
AcDbEntity
  8
0
100
AcDbBlockBegin
  2
*D3
 70
    1
 10
0
 20
0
  3
*D3
  1

  0
LINE
  5
70
100
AcDbEntity
  8
dimesnions
  6
ByBlock
 62
    0
370
   -2
100
AcDbLine
 10
517.4774038987546
 20
113.8747262073275
 11
517.4774038987546
 21
41.87472620732748
  0
MTEXT
  5
71
100
AcDbEntity
  8
dimesnions
  6
CONTINUOUS
 62
    0
370
   -2
100
AcDbMText
 10
514.3524038987546
 20
77.8747262073275
 30
0
 40
5
 41
21.3888888888892
 71
    5
 72
    1
  1
6'-0.0"
  7
standard
210
0
220
0
230
1
 50
90
 73
    2
 44
1
  0
SOLID
  5
72
100
AcDbEntity
  8
dimesnions
  6
ByBlock
 62
    0
370
   -2
100
AcDbTrace
 10
517.4774038987546
 20
113.8747262073275
 30
0
 11
518.3099732143003
 21
108.8747262073275
 31
0
 12
516.6448345832089
 22
108.8747262073275
 32
0
 13
516.6448345832089
 23
108.8747262073275
 33
0
  0
SOLID
  5
73
100
AcDbEntity
  8
dimesnions
  6
ByBlock
 62
    0
370
   -2
100
AcDbTrace
 10
517.4774038987546
 20
41.87472620732748
 30
0
 11
516.6448345832089
 21
46.87472620732748
 31
0
 12
518.3099732143003
 22
46.87472620732748
 32
0
 13
518.3099732143003
 23
46.87472620732748
 33
0
  0
LINE
  5
74
100
AcDbEntity
  8
dimesnions
  6
ByBlock
 62
    0
370
   -2
100
AcDbLine
 10
502.093136427477
 20
113.8747262073275
 11
518.7274038987546
 21
113.8747262073275
  0
LINE
  5
75
100
AcDbEntity
  8
dimesnions
  6
ByBlock
 62
    0
370
   -2
100
AcDbLine
 10
502.093136427477
 20
41.87472620732748
 11
518.7274038987546
 21
41.87472620732748
  0
ENDBLK
  5
57
330
55
100
AcDbEntity
  8
0
100
AcDbBlockEnd
  0
BLOCK
  5
59
330
58
100
AcDbEntity
  8
0
100
AcDbBlockBegin
  2
*D1
 70
    1
 10
0
 20
0
  3
*D1
  1

  0
LINE
  5
76
100
AcDbEntity
  8
dimesnions
  6
ByBlock
 62
    0
370
   -2
100
AcDbLine
 10
21.46813642747702
 20
269.6154319803513
 11
501.468136427477
 21
269.6154319803513
  0
MTEXT
  5
77
100
AcDbEntity
  8
dimesnions
  6
CONTINUOUS
 62
    0
370
   -2
100
AcDbMText
 10
261.468136427477
 20
272.7404319803513
 30
0
 40
5
 41
25.83333333333334
 71
    5
 72
    1
  1
40'-0.0"
  7
standard
210
0
220
0
230
1
 50
0
 73
    2
 44
1
  0
SOLID
  5
78
100
AcDbEntity
  8
dimesnions
  6
ByBlock
 62
    0
370
   -2
100
AcDbTrace
 10
21.46813642747702
 20
269.6154319803513
 30
0
 11
26.46813642747702
 21
270.448001295897
 31
0
 12
26.46813642747702
 22
268.7828626648056
 32
0
 13
26.46813642747702
 23
268.7828626648056
 33
0
  0
SOLID
  5
79
100
AcDbEntity
  8
dimesnions
  6
ByBlock
 62
    0
370
   -2
100
AcDbTrace
 10
501.468136427477
 20
269.6154319803513
 30
0
 11
496.468136427477
 21
268.7828626648056
 31
0
 12
496.468136427477
 22
270.448001295897
 32
0
 13
496.468136427477
 23
270.448001295897
 33
0
  0
LINE
  5
7A
100
AcDbEntity
  8
dimesnions
  6
ByBlock
 62
    0
370
   -2
100
AcDbLine
 10
21.46813642747702
 20
254.8997262073274
 11
21.46813642747702
 21
270.8654319803513
  0
LINE
  5
7B
100
AcDbEntity
  8
dimesnions
  6
ByBlock
 62
    0
370
   -2
100
AcDbLine
 10
501.468136427477
 20
254.8997262073274
 11
501.468136427477
 21
270.8654319803513
  0
ENDBLK
  5
5A
330
58
100
AcDbEntity
  8
0
100
AcDbBlockEnd
  0
BLOCK
  5
5C
330
5B
100
AcDbEntity
  8
0
100
AcDbBlockBegin
  2
*D2
 70
    1
 10
0
 20
0
  3
*D2
  1

  0
LINE
  5
7C
100
AcDbEntity
  8
dimesnions
  6
ByBlock
 62
    0
370
   -2
100
AcDbLine
 10
1.000000000000018
 20
254.2747262073274
 11
1.000000000000004
 21
14.27472620732737
  0
MTEXT
  5
7D
100
AcDbEntity
  8
dimesnions
  6
CONTINUOUS
 62
    0
370
   -2
100
AcDbMText
 10
-2.124999999999989
 20
134.2747262073274
 30
0
 40
5
 41
25.27777777777778
 71
    5
 72
    1
  1
20'-0.0"
  7
standard
210
0
220
0
230
1
 50
90
 73
    2
 44
1
  0
SOLID
  5
7E
100
AcDbEntity
  8
dimesnions
  6
ByBlock
 62
    0
370
   -2
100
AcDbTrace
 10
1.000000000000018
 20
254.2747262073274
 30
0
 11
1.832569315545699
 21
249.2747262073274
 31
0
 12
0.1674306844543372
 22
249.2747262073274
 32
0
 13
0.1674306844543372
 23
249.2747262073274
 33
0
  0
SOLID
  5
7F
100
AcDbEntity
  8
dimesnions
  6
ByBlock
 62
    0
370
   -2
100
AcDbTrace
 10
1.000000000000004
 20
14.27472620732737
 30
0
 11
0.1674306844543235
 21
19.27472620732737
 31
0
 12
1.832569315545685
 22
19.27472620732737
 32
0
 13
1.832569315545685
 23
19.27472620732737
 33
0
  0
LINE
  5
80
100
AcDbEntity
  8
dimesnions
  6
ByBlock
 62
    0
370
   -2
100
AcDbLine
 10
20.84313642747702
 20
254.2747262073274
 11
-0.2499999999999816
 21
254.2747262073274
  0
LINE
  5
81
100
AcDbEntity
  8
dimesnions
  6
ByBlock
 62
    0
370
   -2
100
AcDbLine
 10
20.84313642747702
 20
14.27472620732737
 11
-0.2499999999999964
 21
14.27472620732737
  0
ENDBLK
  5
5D
330
5B
100
AcDbEntity
  8
0
100
AcDbBlockEnd
  0
BLOCK
  5
5F
330
5E
100
AcDbEntity
  8
0
100
AcDbBlockBegin
  2
A$C27ea0dbd
 70
    0
 10
0
 20
0
  3
A$C27ea0dbd
  1

  0
MTEXT
  5
82
100
AcDbEntity
  8
0
  6
ByLayer
 62
  256
370
   -1
100
AcDbMText
 10
1
 20
0
 30
0
 40
80.46703251271356
 41
518.5653620206633
 71
    2
 72
    1
  1
Washroom
  7
Annotative
210
0
220
0
230
1
 50
90
 73
    2
 44
80.46703251271356
  0
ENDBLK
  5
60
330
5E
100
AcDbEntity
  8
0
100
AcDbBlockEnd
  0
BLOCK
  5
62
330
61
100
AcDbEntity
  8
0
100
AcDbBlockBegin
  2
Door - Imperial
 70
    0
 10
0
 20
0
  3
Door - Imperial
  1

  0
LWPOLYLINE
  5
83
100
AcDbEntity
  8
0
  6
ByLayer
 62
  256
370
   -1
100
AcDbPolyline
 90
    4
 70
    1
 43
0
 10
-1e-16
 20
-5e-16
 10
30
 20
-5e-16
 10
30
 20
-1.749999999999998
 10
-1e-16
 20
-1.749999999999998
  0
LWPOLYLINE
  5
84
100
AcDbEntity
  8
0
  6
ByLayer
 62
  256
370
   -1
100
AcDbPolyline
 90
    4
 70
    1
 43
0
 10
-1e-16
 20
-5e-16
 10
25.98076211353316
 20
15
 10
26.85576211353316
 20
13.48445554337723
 10
0.8749999999999989
 20
-1.515544456622766
  0
LWPOLYLINE
  5
85
100
AcDbEntity
  8
0
  6
ByLayer
 62
  256
370
   -1
100
AcDbPolyline
 90
    4
 70
    1
 43
0
 10
-1e-16
 20
-5e-16
 10
21.21320343559643
 20
21.21320343559642
 10
22.45064030267289
 20
19.97576656851996
 10
1.237436867076456
 20
-1.237436867076457
  0
LWPOLYLINE
  5
86
100
AcDbEntity
  8
0
  6
ByLayer
 62
  256
370
   -1
100
AcDbPolyline
 90
    4
 70
    1
 43
0
 10
-1e-16
 20
-4e-16
 10
15
 20
25.98076211353316
 10
16.51554445662277
 20
25.10576211353316
 10
1.515544456622765
 20
-0.875
  0
LWPOLYLINE
  5
87
100
AcDbEntity
  8
0
  6
ByLayer
 62
  256
370
   -1
100
AcDbPolyline
 90
    4
 70
    1
 43
0
 10
0
 20
0
 10
4.4e-15
 20
30
 10
1.750000000000006
 20
30
 10
1.749999999999998
 20
-7e-16
  0
ARC
  5
88
100
AcDbEntity
  8
0
  6
ByLayer
 62
  256
370
   -1
100
AcDbCircle
 10
0
 20
0
 40
30
100
AcDbArc
 50
0
 51
90
  0
ARC
  5
89
100
AcDbEntity
  8
0
  6
ByLayer
 62
  256
370
   -1
100
AcDbCircle
 10
0
 20
0
 40
30
100
AcDbArc
 50
1.27e-14
 51
60.00000000000017
  0
ARC
  5
8A
100
AcDbEntity
  8
0
  6
ByLayer
 62
  256
370
   -1
100
AcDbCircle
 10
0
 20
0
 40
30
100
AcDbArc
 50
6.4e-15
 51
45
  0
ARC
  5
8B
100
AcDbEntity
  8
0
  6
ByLayer
 62
  256
370
   -1
100
AcDbCircle
 10
0
 20
0
 40
30
100
AcDbArc
 50
0
 51
30
  0
LINE
  5
8C
100
AcDbEntity
  8
0
  6
ByLayer
 62
  256
370
   -1
100
AcDbLine
 10
0
 20
0
 11
-1e-16
 21
-4.999999999999999
  0
LINE
  5
8D
100
AcDbEntity
  8
0
  6
ByLayer
 62
  256
370
   -1
100
AcDbLine
 10
30
 20
0
 11
30
 21
-4.999999999999999
  0
ENDBLK
  5
63
330
61
100
AcDbEntity
  8
0
100
AcDbBlockEnd
  0
BLOCK
  5
65
330
64
100
AcDbEntity
  8
0
100
AcDbBlockBegin
  2
*U3
 70
    0
 10
0
 20
0
  3
*U3
  1

  0
LWPOLYLINE
  5
8E
100
AcDbEntity
  8
0
  6
ByLayer
 62
  256
370
   -1
100
AcDbPolyline
 90
    4
 70
    1
 43
0
 10
-1e-16
 20
-5e-16
 10
40
 20
-1.1e-15
 10
40
 20
-1.749999999999999
 10
-1e-16
 20
-1.749999999999998
  0
LWPOLYLINE
  5
8F
100
AcDbEntity
  8
0
  6
ByLayer
 62
  256
370
   -1
100
AcDbPolyline
 90
    4
 70
    1
 43
0
 10
-1e-16
 20
-5e-16
 10
34.64101615137755
 20
20
 10
35.51601615137755
 20
18.48445554337723
 10
0.8749999999999989
 20
-1.515544456622766
  0
LWPOLYLINE
  5
90
100
AcDbEntity
  8
0
  6
ByLayer
 62
  256
370
   -1
100
AcDbPolyline
 90
    4
 70
    1
 43
0
 10
-1e-16
 20
-5e-16
 10
28.2842712474619
 20
28.2842712474619
 10
29.52170811453836
 20
27.04683438038544
 10
1.237436867076456
 20
-1.237436867076457
  0
LWPOLYLINE
  5
91
100
AcDbEntity
  8
0
  6
ByLayer
 62
  256
370
   -1
100
AcDbPolyline
 90
    4
 70
    1
 43
0
 10
-1e-16
 20
-4e-16
 10
20
 20
34.64101615137754
 10
21.51554445662278
 20
33.76601615137754
 10
1.515544456622765
 20
-0.875
  0
LWPOLYLINE
  5
92
100
AcDbEntity
  8
0
  6
ByLayer
 62
  256
370
   -1
100
AcDbPolyline
 90
    4
 70
    1
 43
0
 10
0
 20
0
 10
5.6e-15
 20
40
 10
1.750000000000007
 20
40
 10
1.749999999999998
 20
-7e-16
  0
ARC
  5
93
100
AcDbEntity
  8
0
  6
ByLayer
 62
  256
370
   -1
100
AcDbCircle
 10
0
 20
0
 40
40
100
AcDbArc
 50
0
 51
90
  0
ARC
  5
94
100
AcDbEntity
  8
0
  6
ByLayer
 62
  256
370
   -1
100
AcDbCircle
 10
0
 20
0
 40
40
100
AcDbArc
 50
1.27e-14
 51
60.00000000000017
  0
ARC
  5
95
100
AcDbEntity
  8
0
  6
ByLayer
 62
  256
370
   -1
100
AcDbCircle
 10
0
 20
0
 40
40
100
AcDbArc
 50
6.4e-15
 51
45
  0
ARC
  5
96
100
AcDbEntity
  8
0
  6
ByLayer
 62
  256
370
   -1
100
AcDbCircle
 10
0
 20
0
 40
40
100
AcDbArc
 50
0
 51
30
  0
LINE
  5
97
100
AcDbEntity
  8
0
  6
ByLayer
 62
  256
370
   -1
100
AcDbLine
 10
0
 20
0
 11
-1e-16
 21
-5.999999999999999
  0
LINE
  5
98
100
AcDbEntity
  8
0
  6
ByLayer
 62
  256
370
   -1
100
AcDbLine
 10
40
 20
-6e-16
 11
40
 21
-6
  0
ENDBLK
  5
66
330
64
100
AcDbEntity
  8
0
100
AcDbBlockEnd
  0
BLOCK
  5
68
330
67
100
AcDbEntity
  8
0
100
AcDbBlockBegin
  2
3 feet door
 70
    0
 10
0
 20
0
  3
3 feet door
  1

  0
LINE
  5
99
100
AcDbEntity
  8
doors
  6
ByLayer
 62
  256
370
   -1
100
AcDbLine
 10
0
 20
-36
 11
0
 21
0
  0
LINE
  5
9A
100
AcDbEntity
  8
doors
  6
ByLayer
 62
  256
370
   -1
100
AcDbLine
 10
1.5
 20
-36
 11
0
 21
-36
  0
LINE
  5
9B
100
AcDbEntity
  8
doors
  6
ByLayer
 62
  256
370
   -1
100
AcDbLine
 10
0
 20
0
 11
36
 21
0
  0
LINE
  5
9C
100
AcDbEntity
  8
doors
  6
ByLayer
 62
  256
370
   -1
100
AcDbLine
 10
36
 20
-1.5
 11
1.5
 21
-1.5
  0
LINE
  5
9D
100
AcDbEntity
  8
doors
  6
ByLayer
 62
  256
370
   -1
100
AcDbLine
 10
1.5
 20
-1.5
 11
0
 21
-1.5
  0
ARC
  5
9E
100
AcDbEntity
  8
doors
  6
ByLayer
 62
  256
370
   -1
100
AcDbCircle
 10
0
 20
0
 40
36
100
AcDbArc
 50
270
 51
0
  0
ENDBLK
  5
69
330
67
100
AcDbEntity
  8
0
100
AcDbBlockEnd
  0
BLOCK
  5
6B
330
6A
100
AcDbEntity
  8
0
100
AcDbBlockBegin
  2
6 FEET MAIN GATE
 70
    0
 10
0
 20
0
  3
6 FEET MAIN GATE
  1

  0
LINE
  5
9F
100
AcDbEntity
  8
doors
  6
ByLayer
 62
  256
370
   -1
100
AcDbLine
 10
0
 20
72
 11
0
 21
0
  0
LINE
  5
A0
100
AcDbEntity
  8
doors
  6
ByLayer
 62
  256
370
   -1
100
AcDbLine
 10
0
 20
0
 11
-36
 21
0
  0
LINE
  5
A1
100
AcDbEntity
  8
doors
  6
ByLayer
 62
  256
370
   -1
100
AcDbLine
 10
0
 20
1.5
 11
-36
 21
1.5
  0
LINE
  5
A2
100
AcDbEntity
  8
doors
  6
ByLayer
 62
  256
370
   -1
100
AcDbLine
 10
0
 20
72
 11
-36
 21
72
  0
LINE
  5
A3
100
AcDbEntity
  8
doors
  6
ByLayer
 62
  256
370
   -1
100
AcDbLine
 10
0
 20
70.5
 11
-36
 21
70.5
  0
ARC
  5
A4
100
AcDbEntity
  8
doors
  6
ByLayer
 62
  256
370
   -1
100
AcDbCircle
 10
0
 20
72
 40
36
100
AcDbArc
 50
180
 51
270
  0
ARC
  5
A5
100
AcDbEntity
  8
doors
  6
ByLayer
 62
  256
370
   -1
100
AcDbCircle
 10
0
 20
0
 40
36
100
AcDbArc
 50
90
 51
180
  0
ENDBLK
  5
6C
330
6A
100
AcDbEntity
  8
0
100
AcDbBlockEnd
  0
BLOCK
  5
6E
330
6D
100
AcDbEntity
  8
0
100
AcDbBlockBegin
  2
Window - Imperial
 70
    0
 10
0
 20
0
  3
Window - Imperial
  1

  0
LINE
  5
A6
100
AcDbEntity
  8
0
  6
ByLayer
 62
  256
370
   -1
100
AcDbLine
 10
0
 20
4
 11
7e-16
 21
0
  0
LINE
  5
A7
100
AcDbEntity
  8
0
  6
ByLayer
 62
  256
370
   -1
100
AcDbLine
 10
36
 20
3.999999999999999
 11
36
 21
-4e-16
  0
LINE
  5
A8
100
AcDbEntity
  8
0
  6
ByLayer
 62
  256
370
   -1
100
AcDbLine
 10
7e-16
 20
2
 11
36
 21
2
  0
ENDBLK
  5
6F
330
6D
100
AcDbEntity
  8
0
100
AcDbBlockEnd
  0
ENDSEC
  0
SECTION
  2
ENTITIES
  0
LINE
  5
A9
100
AcDbEntity
  8
0
  6
ByLayer
 62
  256
370
   -1
100
AcDbLine
 10
501.468136427477
 20
14.27472620732735
 11
21.46813642747702
 21
14.27472620732737
  0
LINE
  5
AA
100
AcDbEntity
  8
0
  6
ByLayer
 62
  256
370
   -1
100
AcDbLine
 10
21.46813642747702
 20
14.27472620732737
 11
21.46813642747702
 21
254.2747262073274
  0
LINE
  5
AB
100
AcDbEntity
  8
0
  6
ByLayer
 62
  256
370
   -1
100
AcDbLine
 10
21.46813642747702
 20
254.2747262073274
 11
501.468136427477
 21
254.2747262073274
  0
LINE
  5
AC
100
AcDbEntity
  8
0
  6
ByLayer
 62
  256
370
   -1
100
AcDbLine
 10
501.468136427477
 20
254.2747262073274
 11
501.468136427477
 21
113.8747262073275
  0
LINE
  5
AD
100
AcDbEntity
  8
0
  6
ByLayer
 62
  256
370
   -1
100
AcDbLine
 10
492.4681364274769
 20
23.27472620732735
 11
334.468136427477
 21
23.27472620732746
  0
LINE
  5
AE
100
AcDbEntity
  8
0
  6
ByLayer
 62
  256
370
   -1
100
AcDbLine
 10
30.46813642747702
 20
23.27472620732738
 11
30.46813642747679
 21
173.2747262073275
  0
LINE
  5
AF
100
AcDbEntity
  8
0
  6
ByLayer
 62
  256
370
   -1
100
AcDbLine
 10
30.46813642747691
 20
245.2747262073272
 11
90.46813642747702
 21
245.2747262073272
  0
LINE
  5
B0
100
AcDbEntity
  8
0
  6
ByLayer
 62
  256
370
   -1
100
AcDbLine
 10
492.4681364274771
 20
245.2747262073273
 11
492.4681364274769
 21
136.0747262073273
  0
LINE
  5
B1
100
AcDbEntity
  8
0
  6
ByLayer
 62
  256
370
   -1
100
AcDbLine
 10
90.46813642747702
 20
23.27472620732738
 11
90.46813642747702
 21
96.47472620732708
  0
LINE
  5
B2
100
AcDbEntity
  8
0
  6
ByLayer
 62
  256
370
   -1
100
AcDbLine
 10
330.468136427477
 20
23.27472620732735
 11
330.468136427477
 21
86.47472620732727
  0
LINE
  5
B3
100
AcDbEntity
  8
0
  6
ByLayer
 62
  256
370
   -1
100
AcDbLine
 10
94.46813642747702
 20
23.27472620732738
 11
94.46813642747702
 21
96.47472620732719
  0
LINE
  5
B4
100
AcDbEntity
  8
0
  6
ByLayer
 62
  256
370
   -1
100
AcDbLine
 10
230.468136427477
 20
23.27472620732738
 11
230.468136427477
 21
96.47472620732717
  0
LINE
  5
B5
100
AcDbEntity
  8
0
  6
ByLayer
 62
  256
370
   -1
100
AcDbLine
 10
334.468136427477
 20
23.27472620732735
 11
334.468136427477
 21
90.47472620732728
  0
LINE
  5
B6
100
AcDbEntity
  8
0
  6
ByLayer
 62
  256
370
   -1
100
AcDbLine
 10
54.46813642747679
 20
173.2747262073274
 11
90.46813642747702
 21
173.2747262073273
  0
LINE
  5
B7
100
AcDbEntity
  8
0
  6
ByLayer
 62
  256
370
   -1
100
AcDbLine
 10
54.46813642747708
 20
177.2747262073274
 11
90.46813642747702
 21
177.2747262073273
  0
LINE
  5
B8
100
AcDbEntity
  8
0
  6
ByLayer
 62
  256
370
   -1
100
AcDbLine
 10
330.468136427477
 20
132.4747262073272
 11
456.468136427477
 21
132.4747262073275
  0
LINE
  5
B9
100
AcDbEntity
  8
0
  6
ByLayer
 62
  256
370
   -1
100
AcDbLine
 10
230.4681364274772
 20
136.0747262073273
 11
94.46813642747713
 21
136.0747262073272
  0
LINE
  5
BA
100
AcDbEntity
  8
0
  6
ByLayer
 62
  256
370
   -1
100
AcDbLine
 10
90.46813642747702
 20
132.4747262073271
 11
234.468136427477
 21
132.4747262073272
  0
LINE
  5
BB
100
AcDbEntity
  8
0
  6
ByLayer
 62
  256
370
   -1
100
AcDbLine
 10
330.468136427477
 20
23.27472620732735
 11
330.468136427477
 21
86.47472620732727
  0
LINE
  5
BC
100
AcDbEntity
  8
0
  6
ByLayer
 62
  256
370
   -1
100
AcDbLine
 10
330.468136427477
 20
86.47472620732727
 11
270.468136427477
 21
86.47472620732727
  0
LINE
  5
BD
100
AcDbEntity
  8
0
  6
ByLayer
 62
  256
370
   -1
100
AcDbLine
 10
334.468136427477
 20
90.47472620732728
 11
270.468136427477
 21
90.47472620732728
  0
LINE
  5
BE
100
AcDbEntity
  8
0
  6
ByLayer
 62
  256
370
   -1
100
AcDbLine
 10
270.468136427477
 20
90.47472620732738
 11
270.468136427477
 21
86.47472620732727
  0
LINE
  5
BF
100
AcDbEntity
  8
0
  6
ByLayer
 62
  256
370
   -1
100
AcDbLine
 10
230.468136427477
 20
96.47472620732727
 11
234.468136427477
 21
96.47472620732727
  0
LINE
  5
C0
100
AcDbEntity
  8
0
  6
ByLayer
 62
  256
370
   -1
100
AcDbLine
 10
234.468136427477
 20
172.0747262073274
 11
234.468136427477
 21
245.2747262073273
  0
LINE
  5
C1
100
AcDbEntity
  8
0
  6
ByLayer
 62
  256
370
   -1
100
AcDbLine
 10
230.468136427477
 20
172.0747262073274
 11
230.4681364274771
 21
245.2747262073272
  0
LINE
  5
C2
100
AcDbEntity
  8
0
  6
ByLayer
 62
  256
370
   -1
100
AcDbLine
 10
330.468136427477
 20
132.4747262073274
 11
330.468136427477
 21
141.4747262073273
  0
LINE
  5
C3
100
AcDbEntity
  8
0
  6
ByLayer
 62
  256
370
   -1
100
AcDbLine
 10
330.468136427477
 20
132.4747262073274
 11
330.468136427477
 21
136.0747262073273
  0
LINE
  5
C4
100
AcDbEntity
  8
0
  6
ByLayer
 62
  256
370
   -1
100
AcDbLine
 10
230.468136427477
 20
172.0747262073273
 11
234.468136427477
 21
172.0747262073273
  0
LINE
  5
C5
100
AcDbEntity
  8
0
  6
ByLayer
 62
  256
370
   -1
100
AcDbLine
 10
234.468136427477
 20
132.4747262073272
 11
234.468136427477
 21
136.0747262073273
  0
LINE
  5
C6
100
AcDbEntity
  8
0
  6
ByLayer
 62
  256
370
   -1
100
AcDbLine
 10
234.468136427477
 20
136.0747262073273
 11
230.4681364274772
 21
136.0747262073273
  0
LINE
  5
C7
100
AcDbEntity
  8
0
  6
ByLayer
 62
  256
370
   -1
100
AcDbLine
 10
94.46813642747702
 20
96.47472620732719
 11
90.46813642747713
 21
96.47472620732708
  0
LINE
  5
C8
100
AcDbEntity
  8
0
  6
ByLayer
 62
  256
370
   -1
100
AcDbLine
 10
94.46813642747702
 20
136.0747262073271
 11
94.46813642747718
 21
245.2747262073273
  0
LINE
  5
C9
100
AcDbEntity
  8
0
  6
ByLayer
 62
  256
370
   -1
100
AcDbLine
 10
90.46813642747702
 20
132.4747262073271
 11
90.46813642747702
 21
173.2747262073273
  0
LINE
  5
CA
100
AcDbEntity
  8
0
  6
ByLayer
 62
  256
370
   -1
100
AcDbLine
 10
492.4681364274769
 20
139.9556527449847
 11
492.4681364274769
 21
113.8747262073275
  0
LINE
  5
CB
100
AcDbEntity
  8
0
  6
ByLayer
 62
  256
370
   -1
100
AcDbLine
 10
234.468136427477
 20
245.2747262073275
 11
492.4681364274769
 21
245.2747262073273
  0
LINE
  5
CC
100
AcDbEntity
  8
0
  6
ByLayer
 62
  256
370
   -1
100
AcDbLine
 10
90.46813642747702
 20
23.27472620732738
 11
30.46813642747702
 21
23.27472620732738
  0
LINE
  5
CD
100
AcDbEntity
  8
0
  6
ByLayer
 62
  256
370
   -1
100
AcDbLine
 10
90.46813642747702
 20
177.2747262073273
 11
90.46813642747702
 21
221.2747262073273
  0
LINE
  5
CE
100
AcDbEntity
  8
0
  6
ByLayer
 62
  256
370
   -1
100
AcDbLine
 10
30.46813642747679
 20
173.3351884568817
 11
30.46813642747691
 21
245.2747262073271
  0
LINE
  5
CF
100
AcDbEntity
  8
0
  6
ByLayer
 62
  256
370
   -1
100
AcDbLine
 10
90.46813642747702
 20
245.2747262073273
 11
230.4681364274772
 21
245.2747262073272
  0
LINE
  5
D0
100
AcDbEntity
  8
0
  6
ByLayer
 62
  256
370
   -1
100
AcDbLine
 10
230.4681364274771
 20
23.27472620732749
 11
94.46813642747691
 21
23.27472620732749
  0
LINE
  5
D1
100
AcDbEntity
  8
0
  6
ByLayer
 62
  256
370
   -1
100
AcDbLine
 10
330.468136427477
 20
23.27472620732746
 11
234.468136427477
 21
23.27472620732749
  0
HATCH
  5
D2
100
AcDbEntity
  8
HATCH
  6
ByLayer
 62
   30
420
15886114
370
   -1
100
AcDbHatch
 10
0
 20
0
 30
0
210
0
220
0
230
1
  2
SOLID
 70
    1
 71
    0
 91
   22
 92
    0
 93
    4
 72
    1
 10
969.3555677640883
 20
945.5831746187353
 11
998.8910384325741
 21
945.5831746187353
 72
    1
 10
998.8910384325741
 20
945.5831746187353
 11
998.8910384325741
 21
964.1295593390628
 72
    1
 10
998.8910384325741
 20
964.1295593390628
 11
969.3555677640883
 21
964.1295593390628
 72
    1
 10
969.3555677640883
 20
964.1295593390628
 11
969.3555677640883
 21
945.5831746187353
 97
    0
 92
    0
 93
    4
 72
    1
 10
1013.784383469365
 20
914.7844184792115
 11
1013.784383469365
 21
944.3198891476972
 72
    1
 10
1013.784383469365
 20
944.3198891476972
 11
995.2379987490381
 21
944.3198891476972
 72
    1
 10
995.2379987490381
 20
944.3198891476972
 11
995.2379987490381
 21
914.7844184792115
 72
    1
 10
995.2379987490381
 20
914.7844184792115
 11
1013.784383469365
 21
914.7844184792115
 97
    0
 92
    0
 93
    4
 72
    1
 10
852.4357178323011
 20
943.0609318116111
 11
888.9636850901455
 21
943.0609318116111
 72
    1
 10
888.9636850901455
 20
943.0609318116111
 11
888.9636850901455
 21
961.6073165319384
 72
    1
 10
888.9636850901455
 20
961.6073165319384
 11
852.4357178323011
 21
961.6073165319384
 72
    1
 10
852.4357178323011
 20
961.6073165319384
 11
852.4357178323011
 21
943.0609318116111
 97
    0
 92
    0
 93
    4
 72
    1
 10
815.6276479059458
 20
914.7844184792116
 11
815.6276479059458
 21
944.3198891476972
 72
    1
 10
815.6276479059458
 20
944.3198891476972
 11
797.0812631856184
 21
944.3198891476972
 72
    1
 10
797.0812631856184
 20
944.3198891476972
 11
797.0812631856184
 21
914.7844184792116
 72
    1
 10
797.0812631856184
 20
914.7844184792116
 11
815.6276479059458
 21
914.7844184792116
 97
    0
 92
    0
 93
    4
 72
    1
 10
817.6743423626069
 20
808.8645685474243
 11
817.6743423626069
 21
845.3925358052686
 72
    1
 10
817.6743423626069
 20
845.3925358052686
 11
799.1279576422795
 21
845.3925358052686
 72
    1
 10
799.1279576422795
 20
845.3925358052686
 11
799.1279576422795
 21
808.8645685474243
 72
    1
 10
799.1279576422795
 20
808.8645685474243
 11
817.6743423626069
 21
808.8645685474243
 97
    0
 92
    0
 93
    4
 72
    1
 10
830.7127301106094
 20
856.6741668928356
 11
870.7338760860528
 21
856.6741668928356
 72
    1
 10
870.7338760860528
 20
856.6741668928356
 11
870.7338760860528
 21
875.2205516131629
 72
    1
 10
870.7338760860528
 20
875.2205516131629
 11
830.7127301106094
 21
875.2205516131629
 72
    1
 10
830.7127301106094
 20
875.2205516131629
 11
830.7127301106094
 21
856.6741668928356
 97
    0
 92
    0
 93
    4
 72
    1
 10
943.5127301106094
 20
873.9083765192335
 11
983.5338760860526
 21
873.9083765192335
 72
    1
 10
983.5338760860526
 20
873.9083765192335
 11
983.5338760860526
 21
892.4547612395608
 72
    1
 10
983.5338760860526
 20
892.4547612395608
 11
943.5127301106094
 21
892.4547612395608
 72
    1
 10
943.5127301106094
 20
892.4547612395608
 11
943.5127301106094
 21
873.9083765192335
 97
    0
 92
    0
 93
    4
 72
    1
 10
935.585133562167
 20
806.8645685474243
 11
935.585133562167
 21
843.3925358052686
 72
    1
 10
935.585133562167
 20
843.3925358052686
 11
917.0387488418397
 21
843.3925358052686
 72
    1
 10
917.0387488418397
 20
843.3925358052686
 11
917.0387488418397
 21
806.8645685474243
 72
    1
 10
917.0387488418397
 20
806.8645685474243
 11
935.585133562167
 21
806.8645685474243
 97
    0
 92
    0
 93
    4
 72
    1
 10
815.8138866317154
 20
692.7905576333723
 11
815.8138866317154
 21
722.3260283018579
 72
    1
 10
815.8138866317154
 20
722.3260283018579
 11
797.2675019113879
 21
722.3260283018579
 72
    1
 10
797.2675019113879
 20
722.3260283018579
 11
797.2675019113879
 21
692.7905576333723
 72
    1
 10
797.2675019113879
 20
692.7905576333723
 11
815.8138866317154
 21
692.7905576333723
 97
    0
 92
    0
 93
    4
 72
    1
 10
812.7372867272531
 20
728.3020832823393
 11
852.7584327026966
 21
728.3020832823393
 72
    1
 10
852.7584327026966
 20
728.3020832823393
 11
852.7584327026966
 21
746.8484680026667
 72
    1
 10
852.7584327026966
 20
746.8484680026667
 11
812.7372867272531
 21
746.8484680026667
 72
    1
 10
812.7372867272531
 20
746.8484680026667
 11
812.7372867272531
 21
728.3020832823393
 97
    0
 92
    0
 93
    4
 72
    1
 10
930.3525190467388
 20
559.8645685474241
 11
930.3525190467388
 21
596.3925358052685
 72
    1
 10
930.3525190467388
 20
596.3925358052685
 11
911.8061343264113
 21
596.3925358052685
 72
    1
 10
911.8061343264113
 20
596.3925358052685
 11
911.8061343264113
 21
559.8645685474241
 72
    1
 10
911.8061343264113
 20
559.8645685474241
 11
930.3525190467388
 21
559.8645685474241
 97
    0
 92
    0
 93
    4
 72
    1
 10
943.5127301106094
 20
511.6592378967064
 11
983.5338760860528
 21
511.6592378967064
 72
    1
 10
983.5338760860528
 20
511.6592378967064
 11
983.5338760860528
 21
530.2056226170338
 72
    1
 10
983.5338760860528
 20
530.2056226170338
 11
943.5127301106094
 21
530.2056226170338
 72
    1
 10
943.5127301106094
 20
530.2056226170338
 11
943.5127301106094
 21
511.6592378967064
 97
    0
 92
    0
 93
    4
 72
    1
 10
830.7127301106095
 20
503.9660973014518
 11
870.7338760860528
 21
503.9660973014518
 72
    1
 10
870.7338760860528
 20
503.9660973014518
 11
870.7338760860528
 21
522.5124820217792
 72
    1
 10
870.7338760860528
 20
522.5124820217792
 11
830.7127301106095
 21
522.5124820217792
 72
    1
 10
830.7127301106095
 20
522.5124820217792
 11
830.7127301106095
 21
503.9660973014518
 97
    0
 92
    0
 93
    4
 72
    1
 10
821.6944389724229
 20
557.8645685474241
 11
821.6944389724229
 21
594.3925358052686
 72
    1
 10
821.6944389724229
 20
594.3925358052686
 11
803.1480542520954
 21
594.3925358052686
 72
    1
 10
803.1480542520954
 20
594.3925358052686
 11
803.1480542520954
 21
557.8645685474241
 72
    1
 10
803.1480542520954
 20
557.8645685474241
 11
821.6944389724229
 21
557.8645685474241
 97
    0
 92
    0
 93
    4
 72
    1
 10
822.0508165668311
 20
564.4248573250388
 11
863.3639134290412
 21
564.4248573250388
 72
    1
 10
863.3639134290412
 20
564.4248573250388
 11
863.3639134290412
 21
574.7284043918874
 72
    1
 10
863.3639134290412
 20
574.7284043918874
 11
822.0508165668311
 21
574.7284043918874
 72
    1
 10
822.0508165668311
 20
574.7284043918874
 11
822.0508165668311
 21
564.4248573250388
 97
    0
 92
    0
 93
    4
 72
    1
 10
946.6942583262763
 20
583.2688932390506
 11
996.9261819279136
 21
583.2688932390506
 72
    1
 10
996.9261819279136
 20
583.2688932390506
 11
996.9261819279136
 21
593.5724403058992
 72
    1
 10
996.9261819279136
 20
593.5724403058992
 11
946.6942583262763
 21
593.5724403058992
 72
    1
 10
946.6942583262763
 20
593.5724403058992
 11
946.6942583262763
 21
583.2688932390506
 97
    0
 92
    0
 93
    4
 72
    1
 10
933.8616348988988
 20
697.3966174019502
 11
989.5232992918048
 21
697.3966174019502
 72
    1
 10
989.5232992918048
 20
697.3966174019502
 11
989.5232992918048
 21
707.7001644687988
 72
    1
 10
989.5232992918048
 20
707.7001644687988
 11
933.8616348988988
 21
707.7001644687988
 72
    1
 10
933.8616348988988
 20
707.7001644687988
 11
933.8616348988988
 21
697.3966174019502
 97
    0
 92
    0
 93
    4
 72
    1
 10
802.7012526411638
 20
691.710739647928
 11
835.8595063928691
 21
691.710739647928
 72
    1
 10
835.8595063928691
 20
691.710739647928
 11
835.8595063928691
 21
702.0142867147766
 72
    1
 10
835.8595063928691
 20
702.0142867147766
 11
802.7012526411638
 21
702.0142867147766
 72
    1
 10
802.7012526411638
 20
702.0142867147766
 11
802.7012526411638
 21
691.710739647928
 97
    0
 92
    0
 93
    4
 72
    1
 10
818.2258109760244
 20
824.6224265880496
 11
842.455006064701
 21
824.6224265880496
 72
    1
 10
842.455006064701
 20
824.6224265880496
 11
842.455006064701
 21
834.9259736548983
 72
    1
 10
842.455006064701
 20
834.9259736548983
 11
818.2258109760244
 21
834.9259736548983
 72
    1
 10
818.2258109760244
 20
834.9259736548983
 11
818.2258109760244
 21
824.6224265880496
 97
    0
 92
    0
 93
    4
 72
    1
 10
944.6511072798514
 20
834.78632423749
 11
968.8803023685281
 21
834.78632423749
 72
    1
 10
968.8803023685281
 20
834.78632423749
 11
968.8803023685281
 21
845.0898713043388
 72
    1
 10
968.8803023685281
 20
845.0898713043388
 11
944.6511072798514
 21
845.0898713043388
 72
    1
 10
944.6511072798514
 20
845.0898713043388
 11
944.6511072798514
 21
834.78632423749
 97
    0
 92
    0
 93
    4
 72
    1
 10
965.3808144074954
 20
925.172404326247
 11
992.3317011742074
 21
925.172404326247
 72
    1
 10
992.3317011742074
 20
925.172404326247
 11
992.3317011742074
 21
935.4759513930956
 72
    1
 10
992.3317011742074
 20
935.4759513930956
 11
965.3808144074954
 21
935.4759513930956
 72
    1
 10
965.3808144074954
 20
935.4759513930956
 11
965.3808144074954
 21
925.172404326247
 97
    0
 92
    0
 93
    4
 72
    1
 10
813.8136378909963
 20
924.0594435684524
 11
850.0823964175994
 21
924.0594435684524
 72
    1
 10
850.0823964175994
 20
924.0594435684524
 11
850.0823964175994
 21
934.362990635301
 72
    1
 10
850.0823964175994
 20
934.362990635301
 11
813.8136378909963
 21
934.362990635301
 72
    1
 10
813.8136378909963
 20
934.362990635301
 11
813.8136378909963
 21
924.0594435684524
 97
    0
 75
    0
 76
    1
 98
    0
  0
LINE
  5
D3
100
AcDbEntity
  8
0
  6
ByLayer
 62
  256
370
   -1
100
AcDbLine
 10
30.46813642747679
 20
173.2747262073273
 11
30.46813642747702
 21
177.2747262073274
  0
LINE
  5
D4
100
AcDbEntity
  8
0
  6
ByLayer
 62
  256
370
   -1
100
AcDbLine
 10
90.46813642747702
 20
245.2747262073273
 11
230.4681364274772
 21
245.2747262073272
  0
INSERT
  5
D5
100
AcDbEntity
  8
HATCH
  6
ByLayer
 62
  256
370
   -1
100
AcDbBlockReference
  2
*U3
 10
230.468136427477
 20
96.47472620732727
 30
0
 41
0.0833333333333333
 42
0.0833333333333333
 43
0
 50
180
 70
    1
 71
    1
 44
0
 45
0
  0
LINE
  5
D6
100
AcDbEntity
  8
doors
  6
ByLayer
 62
  256
370
   -1
100
AcDbLine
 10
90.46813642747702
 20
96.47472620732722
 11
91.96813642747702
 21
96.47472620732722
  0
LINE
  5
D7
100
AcDbEntity
  8
doors
  6
ByLayer
 62
  256
370
   -1
100
AcDbLine
 10
234.468136427477
 20
172.0747262073273
 11
234.468136427477
 21
136.0747262073273
  0
LINE
  5
D8
100
AcDbEntity
  8
doors
  6
ByLayer
 62
  256
370
   -1
100
AcDbLine
 10
232.968136427477
 20
172.0747262073273
 11
234.468136427477
 21
172.0747262073273
  0
LINE
  5
D9
100
AcDbEntity
  8
doors
  6
ByLayer
 62
  256
370
   -1
100
AcDbLine
 10
234.468136427477
 20
136.0747262073273
 11
198.468136427477
 21
136.0747262073273
  0
LINE
  5
DA
100
AcDbEntity
  8
doors
  6
ByLayer
 62
  256
370
   -1
100
AcDbLine
 10
198.468136427477
 20
137.5747262073273
 11
232.968136427477
 21
137.5747262073273
  0
LINE
  5
DB
100
AcDbEntity
  8
doors
  6
ByLayer
 62
  256
370
   -1
100
AcDbLine
 10
232.968136427477
 20
137.5747262073273
 11
234.468136427477
 21
137.5747262073273
  0
ARC
  5
DC
100
AcDbEntity
  8
doors
  6
ByLayer
 62
  256
370
   -1
100
AcDbCircle
 10
234.468136427477
 20
136.0747262073273
 40
36
100
AcDbArc
 50
90
 51
180
  0
LINE
  5
DD
100
AcDbEntity
  8
doors
  6
ByLayer
 62
  256
370
   -1
100
AcDbLine
 10
90.46813642747702
 20
96.47472620732722
 11
90.46813642747702
 21
132.4747262073272
  0
LINE
  5
DE
100
AcDbEntity
  8
doors
  6
ByLayer
 62
  256
370
   -1
100
AcDbLine
 10
91.96813642747702
 20
96.47472620732722
 11
90.46813642747702
 21
96.47472620732722
  0
LINE
  5
DF
100
AcDbEntity
  8
doors
  6
ByLayer
 62
  256
370
   -1
100
AcDbLine
 10
90.46813642747702
 20
132.4747262073272
 11
126.468136427477
 21
132.4747262073272
  0
LINE
  5
E0
100
AcDbEntity
  8
doors
  6
ByLayer
 62
  256
370
   -1
100
AcDbLine
 10
126.468136427477
 20
130.9747262073272
 11
91.96813642747702
 21
130.9747262073272
  0
LINE
  5
E1
100
AcDbEntity
  8
doors
  6
ByLayer
 62
  256
370
   -1
100
AcDbLine
 10
91.96813642747702
 20
130.9747262073272
 11
90.46813642747702
 21
130.9747262073272
  0
ARC
  5
E2
100
AcDbEntity
  8
doors
  6
ByLayer
 62
  256
370
   -1
100
AcDbCircle
 10
90.46813642747702
 20
132.4747262073272
 40
36
100
AcDbArc
 50
270
 51
0
  0
LINE
  5
E3
100
AcDbEntity
  8
doors
  6
ByLayer
 62
  256
370
   -1
100
AcDbLine
 10
234.4681364274769
 20
96.47472620732727
 11
234.468136427477
 21
132.4747262073272
  0
LINE
  5
E4
100
AcDbEntity
  8
doors
  6
ByLayer
 62
  256
370
   -1
100
AcDbLine
 10
234.468136427477
 20
132.4747262073272
 11
232.968136427477
 21
132.4747262073272
  0
LINE
  5
E5
100
AcDbEntity
  8
doors
  6
ByLayer
 62
  256
370
   -1
100
AcDbLine
 10
232.968136427477
 20
96.47472620732727
 11
234.4681364274769
 21
96.47472620732727
  0
LINE
  5
E6
100
AcDbEntity
  8
doors
  6
ByLayer
 62
  256
370
   -1
100
AcDbLine
 10
234.468136427477
 20
132.4747262073272
 11
198.468136427477
 21
132.4747262073272
  0
LINE
  5
E7
100
AcDbEntity
  8
doors
  6
ByLayer
 62
  256
370
   -1
100
AcDbLine
 10
198.468136427477
 20
132.4747262073272
 11
198.468136427477
 21
130.9747262073273
  0
LINE
  5
E8
100
AcDbEntity
  8
doors
  6
ByLayer
 62
  256
370
   -1
100
AcDbLine
 10
198.468136427477
 20
130.9747262073273
 11
232.968136427477
 21
130.9747262073273
  0
LINE
  5
E9
100
AcDbEntity
  8
doors
  6
ByLayer
 62
  256
370
   -1
100
AcDbLine
 10
232.968136427477
 20
130.9747262073273
 11
234.468136427477
 21
130.9747262073273
  0
ARC
  5
EA
100
AcDbEntity
  8
doors
  6
ByLayer
 62
  256
370
   -1
100
AcDbCircle
 10
234.468136427477
 20
132.4747262073272
 40
36
100
AcDbArc
 50
180
 51
270
  0
LINE
  5
EB
100
AcDbEntity
  8
doors
  6
ByLayer
 62
  256
370
   -1
100
AcDbLine
 10
234.468136427477
 20
132.4747262073272
 11
232.968136427477
 21
132.4747262073272
  0
LINE
  5
EC
100
AcDbEntity
  8
doors
  6
ByLayer
 62
  256
370
   -1
100
AcDbLine
 10
288.468136427477
 20
132.4747262073272
 11
330.468136427477
 21
132.4747262073272
  0
LINE
  5
ED
100
AcDbEntity
  8
doors
  6
ByLayer
 62
  256
370
   -1
100
AcDbLine
 10
288.468136427477
 20
130.9747262073273
 11
330.468136427477
 21
130.9747262073273
  0
LINE
  5
EE
100
AcDbEntity
  8
doors
  6
ByLayer
 62
  256
370
   -1
100
AcDbLine
 10
330.468136427477
 20
132.4747262073272
 11
330.468136427477
 21
90.47472620732728
  0
ARC
  5
EF
100
AcDbEntity
  8
doors
  6
ByLayer
 62
  256
370
   -1
100
AcDbCircle
 10
330.468136427477
 20
132.4747262073272
 40
42
100
AcDbArc
 50
180
 51
270
  0
LINE
  5
F0
100
AcDbEntity
  8
0
  6
ByLayer
 62
  256
370
   -1
100
AcDbLine
 10
90.46813642747702
 20
221.2747262073273
 11
94.46813642747713
 21
221.2747262073273
  0
LINE
  5
F1
100
AcDbEntity
  8
doors
  6
ByLayer
 62
  256
370
   -1
100
AcDbLine
 10
70.46813642747719
 20
245.2747262073273
 11
94.46813642747718
 21
245.2747262073273
  0
LINE
  5
F2
100
AcDbEntity
  8
doors
  6
ByLayer
 62
  256
370
   -1
100
AcDbLine
 10
70.46813642747719
 20
243.7747262073274
 11
94.46813642747718
 21
243.7747262073274
  0
LINE
  5
F3
100
AcDbEntity
  8
doors
  6
ByLayer
 62
  256
370
   -1
100
AcDbLine
 10
94.46813642747718
 20
245.2747262073273
 11
94.46813642747718
 21
221.2747262073273
  0
ARC
  5
F4
100
AcDbEntity
  8
doors
  6
ByLayer
 62
  256
370
   -1
100
AcDbCircle
 10
94.46813642747718
 20
245.2747262073273
 40
24
100
AcDbArc
 50
180
 51
270
  0
LINE
  5
F5
100
AcDbEntity
  8
doors
  6
ByLayer
 62
  256
370
   -1
100
AcDbLine
 10
30.46813642747679
 20
173.2747262073273
 11
30.46813642747679
 21
197.2747262073273
  0
LINE
  5
F6
100
AcDbEntity
  8
Defpoints
  6
ByLayer
 62
  256
370
   -1
100
AcDbLine
 10
54.46813642747708
 20
177.2747262073274
 11
54.46813642747708
 21
173.2747262073274
  0
LINE
  5
F7
100
AcDbEntity
  8
doors
  6
ByLayer
 62
  256
370
   -1
100
AcDbLine
 10
54.46813642747679
 20
173.3351884568817
 11
30.46813642747679
 21
173.3351884568817
  0
LINE
  5
F8
100
AcDbEntity
  8
doors
  6
ByLayer
 62
  256
370
   -1
100
AcDbLine
 10
30.46813642747679
 20
173.3351884568817
 11
30.46813642747679
 21
197.3351884568817
  0
LINE
  5
F9
100
AcDbEntity
  8
doors
  6
ByLayer
 62
  256
370
   -1
100
AcDbLine
 10
31.9681364274768
 20
173.3351884568817
 11
31.9681364274768
 21
197.3351884568817
  0
ARC
  5
FA
100
AcDbEntity
  8
doors
  6
ByLayer
 62
  256
370
   -1
100
AcDbCircle
 10
30.46813642747679
 20
173.3351884568817
 40
24
100
AcDbArc
 50
0
 51
90
  0
LINE
  5
FB
100
AcDbEntity
  8
Defpoints
  6
ByLayer
 62
  256
370
   -1
100
AcDbLine
 10
492.4681364274769
 20
113.8747262073275
 11
501.468136427477
 21
113.8747262073275
  0
LINE
  5
FC
100
AcDbEntity
  8
Defpoints
  6
ByLayer
 62
  256
370
   -1
100
AcDbLine
 10
501.468136427477
 20
41.87472620732748
 11
492.4681364274769
 21
41.87472620732748
  0
LINE
  5
FD
100
AcDbEntity
  8
0
  6
ByLayer
 62
  256
370
   -1
100
AcDbLine
 10
492.4681364274769
 20
41.87472620732748
 11
492.4681364274769
 21
23.27472620732746
  0
LINE
  5
FE
100
AcDbEntity
  8
0
  6
ByLayer
 62
  256
370
   -1
100
AcDbLine
 10
501.468136427477
 20
41.87472620732748
 11
501.468136427477
 21
14.27472620732735
  0
LINE
  5
FF
100
AcDbEntity
  8
doors
  6
ByLayer
 62
  256
370
   -1
100
AcDbLine
 10
501.468136427477
 20
113.8747262073275
 11
501.468136427477
 21
41.87472620732748
  0
LINE
  5
100
100
AcDbEntity
  8
doors
  6
ByLayer
 62
  256
370
   -1
100
AcDbLine
 10
501.468136427477
 20
41.87472620732748
 11
465.468136427477
 21
41.87472620732748
  0
LINE
  5
101
100
AcDbEntity
  8
doors
  6
ByLayer
 62
  256
370
   -1
100
AcDbLine
 10
501.468136427477
 20
43.37472620732748
 11
465.468136427477
 21
43.37472620732748
  0
LINE
  5
102
100
AcDbEntity
  8
doors
  6
ByLayer
 62
  256
370
   -1
100
AcDbLine
 10
501.468136427477
 20
113.8747262073275
 11
465.468136427477
 21
113.8747262073275
  0
LINE
  5
103
100
AcDbEntity
  8
doors
  6
ByLayer
 62
  256
370
   -1
100
AcDbLine
 10
501.468136427477
 20
112.3747262073275
 11
465.468136427477
 21
112.3747262073275
  0
ARC
  5
104
100
AcDbEntity
  8
doors
  6
ByLayer
 62
  256
370
   -1
100
AcDbCircle
 10
501.468136427477
 20
113.8747262073275
 40
36
100
AcDbArc
 50
180
 51
270
  0
ARC
  5
105
100
AcDbEntity
  8
doors
  6
ByLayer
 62
  256
370
   -1
100
AcDbCircle
 10
501.468136427477
 20
41.87472620732748
 40
36
100
AcDbArc
 50
90
 51
180
  0
LINE
  5
106
100
AcDbEntity
  8
0
  6
ByLayer
 62
  256
370
   -1
100
AcDbLine
 10
456.468136427477
 20
141.4747262073275
 11
456.468136427477
 21
132.4747262073274
  0
HATCH
  5
107
100
AcDbEntity
  8
HATCH
  6
ByLayer
 62
  227
420
8531976
370
   -1
100
AcDbHatch
 10
0
 20
0
 30
0
210
0
220
0
230
1
  2
AR-BRSTD
 70
    0
 71
    0
 91
    2
 92
    0
 93
   36
 72
    1
 10
501.468136427477
 20
254.2747262073274
 11
21.46813642747702
 21
254.2747262073274
 72
    1
 10
21.46813642747702
 20
254.2747262073274
 11
21.46813642747702
 21
14.27472620732737
 72
    1
 10
21.46813642747702
 20
14.27472620732737
 11
501.468136427477
 21
14.27472620732735
 72
    1
 10
501.468136427477
 20
14.27472620732735
 11
501.468136427477
 21
41.87472620732748
 72
    1
 10
501.468136427477
 20
41.87472620732748
 11
492.4681364274769
 21
41.87472620732747
 72
    1
 10
492.4681364274769
 20
41.87472620732747
 11
492.4681364274769
 21
23.27472620732738
 72
    1
 10
492.4681364274769
 20
23.27472620732738
 11
334.468136427477
 21
23.27472620732746
 72
    1
 10
334.468136427477
 20
23.27472620732746
 11
334.468136427477
 21
90.47472620732728
 72
    1
 10
334.468136427477
 20
90.47472620732728
 11
270.468136427477
 21
90.47472620732728
 72
    1
 10
270.468136427477
 20
90.47472620732728
 11
270.468136427477
 21
86.47472620732727
 72
    1
 10
270.468136427477
 20
86.47472620732727
 11
330.468136427477
 21
86.47472620732727
 72
    1
 10
330.468136427477
 20
86.47472620732727
 11
330.468136427477
 21
23.27472620732746
 72
    1
 10
330.468136427477
 20
23.27472620732746
 11
234.468136427477
 21
23.27472620732749
 72
    1
 10
234.468136427477
 20
23.27472620732749
 11
234.468136427477
 21
96.47472620732727
 72
    1
 10
234.468136427477
 20
96.47472620732727
 11
232.968136427477
 21
96.47472620732727
 72
    1
 10
232.968136427477
 20
96.47472620732727
 11
230.468136427477
 21
96.47472620732727
 72
    1
 10
230.468136427477
 20
96.47472620732727
 11
230.4681364274771
 21
23.2747262073275
 72
    1
 10
230.4681364274771
 20
23.2747262073275
 11
94.46813642747702
 21
23.27472620732748
 72
    1
 10
94.46813642747702
 20
23.27472620732748
 11
94.46813642747702
 21
96.47472620732719
 72
    1
 10
94.46813642747702
 20
96.47472620732719
 11
90.46813642747706
 21
96.47472620732708
 72
    1
 10
90.46813642747706
 20
96.47472620732708
 11
90.46813642747696
 21
23.27472620732738
 72
    1
 10
90.46813642747696
 20
23.27472620732738
 11
30.46813642747708
 21
23.27472620732738
 72
    1
 10
30.46813642747708
 20
23.27472620732738
 11
30.46813642747679
 21
173.2747262073275
 72
    1
 10
30.46813642747679
 20
173.2747262073275
 11
30.46813642747679
 21
197.3351884568817
 72
    1
 10
30.46813642747679
 20
197.3351884568817
 11
30.46813642747691
 21
245.2747262073272
 72
    1
 10
30.46813642747691
 20
245.2747262073272
 11
90.46813642747702
 21
245.2747262073272
 72
    1
 10
90.46813642747702
 20
245.2747262073272
 11
94.46813642747718
 21
245.2747262073273
 72
    1
 10
94.46813642747718
 20
245.2747262073273
 11
230.4681364274771
 21
245.2747262073272
 72
    1
 10
230.4681364274771
 20
245.2747262073272
 11
230.468136427477
 21
172.0747262073273
 72
    1
 10
230.468136427477
 20
172.0747262073273
 11
234.468136427477
 21
172.0747262073273
 72
    1
 10
234.468136427477
 20
172.0747262073273
 11
234.4681364274771
 21
245.2747262073275
 72
    1
 10
234.4681364274771
 20
245.2747262073275
 11
492.4681364274771
 21
245.2747262073273
 72
    1
 10
492.4681364274771
 20
245.2747262073273
 11
492.4681364274769
 21
136.0747262073273
 72
    1
 10
492.4681364274769
 20
136.0747262073273
 11
492.4681364274769
 21
113.8747262073275
 72
    1
 10
492.4681364274769
 20
113.8747262073275
 11
501.468136427477
 21
113.8747262073275
 72
    1
 10
501.468136427477
 20
113.8747262073275
 11
501.468136427477
 21
254.2747262073274
 97
    0
 92
    0
 93
    4
 72
    1
 10
456.468136427477
 20
132.4747262073275
 11
456.468136427477
 21
136.0747262073273
 72
    1
 10
456.468136427477
 20
136.0747262073273
 11
330.468136427477
 21
136.0747262073273
 72
    1
 10
330.468136427477
 20
136.0747262073273
 11
330.468136427477
 21
132.4747262073272
 72
    1
 10
330.468136427477
 20
132.4747262073272
 11
456.468136427477
 21
132.4747262073275
 97
    0
 75
    0
 76
    1
 52
0
 41
1
 77
    0
 78
    0
 98
    0
  0
INSERT
  5
108
100
AcDbEntity
  8
HATCH
  6
ByLayer
 62
  256
370
   -1
100
AcDbBlockReference
  2
3 feet door
 10
492.4681364274769
 20
132.3427846172776
 30
0
 41
-1
 42
1
 43
0
 50
270
 70
    1
 71
    1
 44
0
 45
0
  0
LINE
  5
109
100
AcDbEntity
  8
WINDOWS
  6
ByLayer
 62
    6
370
   -1
100
AcDbLine
 10
492.4681364274769
 20
166.6747262073273
 11
501.468136427477
 21
166.6747262073273
  0
LINE
  5
10A
100
AcDbEntity
  8
WINDOWS
  6
ByLayer
 62
    6
370
   -1
100
AcDbLine
 10
501.468136427477
 20
166.6747262073273
 11
501.468136427477
 21
214.6747262073273
  0
LINE
  5
10B
100
AcDbEntity
  8
WINDOWS
  6
ByLayer
 62
    6
370
   -1
100
AcDbLine
 10
501.468136427477
 20
214.6747262073273
 11
492.4681364274769
 21
214.6747262073273
  0
LINE
  5
10C
100
AcDbEntity
  8
WINDOWS
  6
ByLayer
 62
    6
370
   -1
100
AcDbLine
 10
492.4681364274769
 20
214.6747262073273
 11
492.4681364274769
 21
166.6747262073273
  0
LINE
  5
10D
100
AcDbEntity
  8
WINDOWS
  6
ByLayer
 62
    6
370
   -1
100
AcDbLine
 10
492.4681364274769
 20
166.6747262073273
 11
492.4681364274769
 21
190.6747262073273
  0
LINE
  5
10E
100
AcDbEntity
  8
WINDOWS
  6
ByLayer
 62
    6
370
   -1
100
AcDbLine
 10
492.4681364274769
 20
190.6747262073273
 11
501.468136427477
 21
190.6747262073273
  0
LINE
  5
10F
100
AcDbEntity
  8
WINDOWS
  6
ByLayer
 62
    6
370
   -1
100
AcDbLine
 10
501.468136427477
 20
190.6747262073273
 11
496.9681364274769
 21
190.6747262073273
  0
LINE
  5
110
100
AcDbEntity
  8
WINDOWS
  6
ByLayer
 62
    6
370
   -1
100
AcDbLine
 10
496.9681364274769
 20
190.6747262073273
 11
496.9681364274769
 21
214.6747262073273
  0
LINE
  5
111
100
AcDbEntity
  8
WINDOWS
  6
ByLayer
 62
    6
370
   -1
100
AcDbLine
 10
496.9681364274769
 20
190.6747262073273
 11
496.9681364274769
 21
166.6747262073273
  0
LINE
  5
112
100
AcDbEntity
  8
WINDOWS
  6
ByLayer
 62
    6
370
   -1
100
AcDbLine
 10
330.4681364274771
 20
59.27472620732746
 11
330.4681364274771
 21
23.27472620732746
  0
LINE
  5
113
100
AcDbEntity
  8
WINDOWS
  6
ByLayer
 62
    6
370
   -1
100
AcDbLine
 10
330.4681364274771
 20
23.27472620732746
 11
334.4681364274771
 21
23.27472620732746
  0
LINE
  5
114
100
AcDbEntity
  8
WINDOWS
  6
ByLayer
 62
    6
370
   -1
100
AcDbLine
 10
334.4681364274771
 20
23.27472620732746
 11
334.4681364274771
 21
59.27472620732746
  0
LINE
  5
115
100
AcDbEntity
  8
WINDOWS
  6
ByLayer
 62
    6
370
   -1
100
AcDbLine
 10
334.4681364274771
 20
59.27472620732746
 11
330.4681364274771
 21
59.27472620732746
  0
LINE
  5
116
100
AcDbEntity
  8
WINDOWS
  6
ByLayer
 62
    6
370
   -1
100
AcDbLine
 10
330.4681364274771
 20
59.27472620732746
 11
332.4681364274771
 21
59.27472620732746
  0
LINE
  5
117
100
AcDbEntity
  8
WINDOWS
  6
ByLayer
 62
    6
370
   -1
100
AcDbLine
 10
332.4681364274771
 20
59.27472620732746
 11
332.4681364274771
 21
23.27472620732746
  0
LINE
  5
118
100
AcDbEntity
  8
WINDOWS
  6
ByLayer
 62
    6
370
   -1
100
AcDbLine
 10
332.4681364274771
 20
23.27472620732746
 11
332.4681364274771
 21
41.27472620732746
  0
LINE
  5
119
100
AcDbEntity
  8
WINDOWS
  6
ByLayer
 62
    6
370
   -1
100
AcDbLine
 10
332.4681364274771
 20
41.27472620732746
 11
330.4681364274771
 21
41.27472620732746
  0
LINE
  5
11A
100
AcDbEntity
  8
WINDOWS
  6
ByLayer
 62
    6
370
   -1
100
AcDbLine
 10
330.4681364274771
 20
41.27472620732746
 11
334.4681364274771
 21
41.27472620732746
  0
LINE
  5
11B
100
AcDbEntity
  8
WINDOWS
  6
ByLayer
 62
    6
370
   -1
100
AcDbLine
 10
90.46813642747702
 20
173.221599370211
 11
90.46813642747702
 21
137.221599370211
  0
LINE
  5
11C
100
AcDbEntity
  8
WINDOWS
  6
ByLayer
 62
    6
370
   -1
100
AcDbLine
 10
90.46813642747702
 20
137.221599370211
 11
94.46813642747702
 21
137.221599370211
  0
LINE
  5
11D
100
AcDbEntity
  8
WINDOWS
  6
ByLayer
 62
    6
370
   -1
100
AcDbLine
 10
94.46813642747702
 20
137.221599370211
 11
94.46813642747702
 21
173.221599370211
  0
LINE
  5
11E
100
AcDbEntity
  8
WINDOWS
  6
ByLayer
 62
    6
370
   -1
100
AcDbLine
 10
94.46813642747702
 20
173.221599370211
 11
90.46813642747702
 21
173.221599370211
  0
LINE
  5
11F
100
AcDbEntity
  8
WINDOWS
  6
ByLayer
 62
    6
370
   -1
100
AcDbLine
 10
90.46813642747702
 20
173.221599370211
 11
92.46813642747701
 21
173.221599370211
  0
LINE
  5
120
100
AcDbEntity
  8
WINDOWS
  6
ByLayer
 62
    6
370
   -1
100
AcDbLine
 10
92.46813642747701
 20
173.221599370211
 11
92.46813642747701
 21
137.221599370211
  0
LINE
  5
121
100
AcDbEntity
  8
WINDOWS
  6
ByLayer
 62
    6
370
   -1
100
AcDbLine
 10
92.46813642747701
 20
137.221599370211
 11
92.46813642747701
 21
155.221599370211
  0
LINE
  5
122
100
AcDbEntity
  8
WINDOWS
  6
ByLayer
 62
    6
370
   -1
100
AcDbLine
 10
92.46813642747701
 20
155.221599370211
 11
90.46813642747702
 21
155.221599370211
  0
LINE
  5
123
100
AcDbEntity
  8
WINDOWS
  6
ByLayer
 62
    6
370
   -1
100
AcDbLine
 10
90.46813642747702
 20
155.221599370211
 11
94.46813642747702
 21
155.221599370211
  0
MTEXT
  5
124
100
AcDbEntity
  8
0
  6
ByLayer
 62
    6
370
   -1
100
AcDbMText
 10
1
 20
0
 30
0
 40
3.446253536353651
 41
3.063336476758801
 71
    2
 72
    1
  1
W
  7
STANDARD
210
0
220
0
230
1
 50
57.48595860206206
 73
    2
 44
3.446253536353651
  0
MTEXT
  5
125
100
AcDbEntity
  8
0
  6
ByLayer
 62
    6
370
   -1
100
AcDbMText
 10
1
 20
0
 30
0
 40
3.446253536353651
 41
3.063336476758801
 71
    2
 72
    1
  1
W
  7
STANDARD
210
0
220
0
230
1
 50
8.943145694000302
 73
    2
 44
3.446253536353651
  0
MTEXT
  5
126
100
AcDbEntity
  8
0
  6
ByLayer
 62
    6
370
   -1
100
AcDbMText
 10
1
 20
0
 30
0
 40
3.446253536353651
 41
3.063336476758801
 71
    2
 72
    1
  1
W
  7
STANDARD
210
0
220
0
230
1
 50
20.93125539607431
 73
    2
 44
3.446253536353651
  0
LINE
  5
127
100
AcDbEntity
  8
0
  6
ByLayer
 62
  256
370
   -1
100
AcDbLine
 10
239.468136427477
 20
23.27472620732738
 11
239.468136427477
 21
96.47472620732717
  0
LINE
  5
128
100
AcDbEntity
  8
Defpoints
  6
ByLayer
 62
  256
370
   -3
100
AcDbLine
 10
239.468136427477
 20
96.47472620732717
 11
230.468136427477
 21
96.47472620732717
  0
LINE
  5
129
100
AcDbEntity
  8
0
  6
ByLayer
 62
  255
370
   -3
100
AcDbLine
 10
366.4681364274779
 20
141.4747262073273
 11
366.4681364274779
 21
132.4747262073273
  0
LINE
  5
12A
100
AcDbEntity
  8
0
  6
ByLayer
 62
  255
370
   -3
100
AcDbLine
 10
375.468136427477
 20
132.4747262073273
 11
375.468136427477
 21
141.4747262073273
  0
HATCH
  5
12B
100
AcDbEntity
  8
0
  6
ByLayer
 62
  255
370
   -3
100
AcDbHatch
 10
0
 20
0
 30
0
210
0
220
0
230
1
  2
SOLID
 70
    1
 71
    0
 91
    1
 92
    0
 93
    4
 72
    1
 10
366.468136427477
 20
254.2747262073274
 11
375.468136427477
 21
254.2747262073274
 72
    1
 10
375.468136427477
 20
254.2747262073274
 11
375.468136427477
 21
245.2747262073274
 72
    1
 10
375.468136427477
 20
245.2747262073274
 11
366.4681364274771
 21
245.2747262073274
 72
    1
 10
366.4681364274771
 20
245.2747262073274
 11
366.468136427477
 21
254.2747262073274
 97
    0
 75
    0
 76
    1
 98
    0
  0
LINE
  5
12C
100
AcDbEntity
  8
0
  6
ByLayer
 62
  256
370
   -1
100
AcDbLine
 10
366.4681364274779
 20
141.4747262073273
 11
375.4681364274771
 21
141.4747262073273
  0
HATCH
  5
12D
100
AcDbEntity
  8
0
  6
ByLayer
 62
  255
370
   -3
100
AcDbHatch
 10
0
 20
0
 30
0
210
0
220
0
230
1
  2
SOLID
 70
    1
 71
    0
 91
    1
 92
    0
 93
    4
 72
    1
 10
366.4681364274779
 20
141.4747262073273
 11
366.4681364274779
 21
132.4747262073273
 72
    1
 10
366.4681364274779
 20
132.4747262073273
 11
375.468136427477
 21
132.4747262073273
 72
    1
 10
375.468136427477
 20
132.4747262073273
 11
375.468136427477
 21
141.4747262073273
 72
    1
 10
375.468136427477
 20
141.4747262073273
 11
366.4681364274779
 21
141.4747262073273
 97
    0
 75
    0
 76
    1
 98
    0
  0
LINE
  5
12E
100
AcDbEntity
  8
0
  6
ByLayer
 62
  256
370
   -1
100
AcDbLine
 10
330.468136427477
 20
141.4747262073273
 11
456.468136427477
 21
141.4747262073275
  0
LINE
  5
12F
100
AcDbEntity
  8
0
  6
ByLayer
 62
    7
370
   -3
100
AcDbLine
 10
375.468136427477
 20
44.27472620732745
 11
334.468136427477
 21
44.27472620732745
  0
LINE
  5
130
100
AcDbEntity
  8
0
  6
ByLayer
 62
    7
370
   -3
100
AcDbLine
 10
375.468136427477
 20
39.27472620732746
 11
334.468136427477
 21
39.27472620732746
  0
LINE
  5
131
100
AcDbEntity
  8
0
  6
ByLayer
 62
    7
370
   -3
100
AcDbLine
 10
375.468136427477
 20
34.27472620732746
 11
334.468136427477
 21
34.27472620732746
  0
LINE
  5
132
100
AcDbEntity
  8
0
  6
ByLayer
 62
    7
370
   -3
100
AcDbLine
 10
375.468136427477
 20
29.27472620732746
 11
334.468136427477
 21
29.27472620732746
  0
LINE
  5
133
100
AcDbEntity
  8
WINDOWS
  6
ByLayer
 62
    7
370
   -3
100
AcDbLine
 10
375.468136427477
 20
29.1318690644703
 11
334.468136427477
 21
23.27472620732735
  0
LINE
  5
134
100
AcDbEntity
  8
WINDOWS
  6
ByLayer
 62
    7
370
   -3
100
AcDbLine
 10
334.468136427477
 20
23.27472620732735
 11
375.468136427477
 21
34.01282144542268
  0
LINE
  5
135
100
AcDbEntity
  8
0
  6
ByLayer
 62
    7
370
   -3
100
AcDbLine
 10
375.4681364274771
 20
44.27472620732745
 11
375.4681364274771
 21
23.27472620732743
  0
DIMENSION
  5
136
100
AcDbEntity
  8
dimesnions
  6
ByLayer
 62
  256
370
   -1
100
AcDbDimension
  2
*D1
 10
501.468136427477
 20
269.6154319803513
 30
0
 11
261.468136427477
 21
272.7404319803513
 31
0
 70
   32
 71
    5
  3
Standard
 53
0
210
0
220
0
230
1
100
AcDbAlignedDimension
 13
21.46813642747702
 23
254.2747262073274
 33
0
 14
501.468136427477
 24
254.2747262073274
 34
0
100
AcDbRotatedDimension
  0
DIMENSION
  5
137
100
AcDbEntity
  8
dimesnions
  6
ByLayer
 62
  256
370
   -1
100
AcDbDimension
  2
*D2
 10
1.000000000000004
 20
14.27472620732737
 30
0
 11
-2.124999999999989
 21
134.2747262073274
 31
0
 70
   32
 71
    5
  3
Standard
 53
0
210
0
220
0
230
1
100
AcDbAlignedDimension
 13
21.46813642747702
 23
254.2747262073274
 33
0
 14
21.46813642747702
 24
14.27472620732737
 34
0
 50
90
100
AcDbRotatedDimension
  0
DIMENSION
  5
138
100
AcDbEntity
  8
dimesnions
  6
ByLayer
 62
  256
370
   -1
100
AcDbDimension
  2
*D3
 10
517.4774038987546
 20
41.87472620732748
 30
0
 11
514.3524038987546
 21
77.8747262073275
 31
0
 70
   32
 71
    5
  3
Standard
 53
0
210
0
220
0
230
1
100
AcDbAlignedDimension
 13
501.468136427477
 23
113.8747262073275
 33
0
 14
501.468136427477
 24
41.87472620732748
 34
0
 50
90
100
AcDbRotatedDimension
  0
MTEXT
  5
139
100
AcDbEntity
  8
text
  6
ByLayer
 62
  256
370
   -1
100
AcDbMText
 10
383.495641192648
 20
89.49464336414736
 30
0
 40
7
 41
68.44444444444488
 71
    1
 72
    1
  1
Varandah\P13' 2" x 9' 11"
  7
cyrillic_ii
210
0
220
0
230
1
 50
0
 73
    2
 44
1
  0
MTEXT
  5
13A
100
AcDbEntity
  8
text
  6
ByLayer
 62
  256
370
   -1
100
AcDbMText
 10
34.89958259883448
 20
216.5456028722862
 30
0
 40
4
 41
36.44444444444494
 71
    1
 72
    1
  1
  Bath Room\P5' 4" x 5' 4"
  7
cyrillic_ii
210
0
220
0
230
1
 50
0
 73
    2
 44
1
  0
MTEXT
  5
13B
100
AcDbEntity
  8
text
  6
ByLayer
 62
  256
370
   -1
100
AcDbMText
 10
346.2956176812689
 20
200.1452225013437
 30
0
 40
7
 41
66.11111111111154
 71
    1
 72
    1
  1
Living Room\P21' 6" x 8' 8"
  7
cyrillic_ii
210
0
220
0
230
1
 50
0
 73
    2
 44
1
  0
MTEXT
  5
13C
100
AcDbEntity
  8
text
  6
ByLayer
 62
  256
370
   -1
100
AcDbMText
 10
261.6516222316845
 20
62.89178583579181
 30
0
 40
6
 41
54.00000000000038
 71
    1
 72
    1
  1
Kitchen\P7' 7" x 5' 4"
  7
cyrillic_ii
210
0
220
0
230
1
 50
0
 73
    2
 44
1
  0
MTEXT
  5
13D
100
AcDbEntity
  8
text
  6
ByLayer
 62
  256
370
   -1
100
AcDbMText
 10
138.0479595308338
 20
82.49315742627471
 30
0
 40
6
 41
56.00000000000037
 71
    1
 72
    1
  1
Bed Room\P11' 4" x 9' 6"
  7
cyrillic_ii
210
0
220
0
230
1
 50
0
 73
    2
 44
1
  0
MTEXT
  5
13E
100
AcDbEntity
  8
text
  6
ByLayer
 62
  256
370
   -1
100
AcDbMText
 10
124.9238352266933
 20
202.7283267236402
 30
0
 40
7
 41
65.33333333333377
 71
    1
 72
    1
  1
  Bed Room\P11' 4" x 9' 6"
  7
cyrillic_ii
210
0
220
0
230
1
 50
0
 73
    2
 44
1
  0
MTEXT
  5
13F
100
AcDbEntity
  8
text
  6
ByLayer
 62
  256
370
   -1
100
AcDbMText
 10
258.2002624812219
 20
-11.95874899913028
 30
0
 40
10
 41
125.833333333336
 71
    1
 72
    1
  1
Name: Raj Gupta\PBranch: Civil D3 B1\PCRN: 2114047
  7
cyrillic_ii
210
0
220
0
230
1
 50
0
 73
    2
 44
1
  0
LWPOLYLINE
  5
140
100
AcDbEntity
  8
text
  6
ByLayer
 62
  256
370
   -1
100
AcDbPolyline
 90
    4
 70
    1
 43
0
 10
241.6575075589251
 20
-4.326349240185359
 10
393.6977808568677
 20
-4.326349240185359
 10
393.6977808568677
 20
-64.89523860278038
 10
241.6575075589251
 20
-64.89523860278038
  0
MTEXT
  5
141
100
AcDbEntity
  8
text
  6
ByLayer
 62
  256
370
   -1
100
AcDbMText
 10
47.59518893233265
 20
57.09878271069982
 30
0
 40
9
 41
72.7500000000021
 71
    1
 72
    1
  1
Vacant area\P5' x 12' 6"
  7
cyrillic_ii
210
0
220
0
230
1
 50
90.9278
 73
    2
 44
1
  0
ENDSEC
  0
SECTION
  2
OBJECTS
  0
DICTIONARY
  5
C
330
0
100
AcDbDictionary
281
    1
  3
ACAD_GROUP
350
D
  0
DICTIONARY
  5
D
330
C
100
AcDbDictionary
281
    1
  0
PLOTSETTINGS
  5
142
100
AcDbPlotSettings
  6
1x1
 40
0.62500002
 41
1.66666672
 42
0.62500002
 43
1.66666672
  0
ENDSEC
  0
EOF
