999
dxfrw 0.6.3
  0
SECTION
  2
HEADER
  9
$ACADVER
  1
AC1021
  9
$DWGCODEPAGE
  3
ANSI_1252
  9
$INSBASE
 10
0
 20
0
 30
0
  9
$EXTMIN
 10
10000000000
 20
10000000000
 30
0
  9
$EXTMAX
 10
-10000000000
 20
-10000000000
 30
0
  9
$LIMMIN
 10
0
 20
0
  9
$LIMMAX
 10
8000
 20
8000
  9
$ORTHOMODE
 70
    0
  9
$REGENMODE
 70
    1
  9
$FILLMODE
 70
    1
  9
$QTEXTMODE
 70
    0
  9
$MIRRTEXT
 70
    0
  9
$LTSCALE
 40
1
  9
$ATTMODE
 70
    1
  9
$TEXTSIZE
 40
20
  9
$TRACEWID
 40
1
  9
$TEXTSTYLE
  7
Standard
  9
$CLAYER
  8
dimesion
  9
$CELTYPE
  6
ByLayer
  9
$CECOLOR
 62
  256
  9
$CELTSCALE
 40
1
  9
$DISPSILH
 70
    0
  9
$DIMSCALE
 40
1
  9
$DIMASZ
 40
10
  9
$DIMEXO
 40
0.625
  9
$DIMDLI
 40
3.75
  9
$DIMRND
 40
0
  9
$DIMDLE
 40
0
  9
$DIMEXE
 40
1.25
  9
$DIMTP
 40
0
  9
$DIMTM
 40
0
  9
$DIMTXT
 40
20
  9
$DIMCEN
 40
2.5
  9
$DIMTSZ
 40
0
  9
$DIMTOL
 70
    0
  9
$DIMLIM
 70
    0
  9
$DIMTIH
 70
    0
  9
$DIMTOH
 70
    0
  9
$DIMSE1
 70
    0
  9
$DIMSE2
 70
    0
  9
$DIMTAD
 70
    1
  9
$DIMZIN
 70
    8
  9
$DIMBLK
  1

  9
$DIMASO
 70
    1
  9
$DIMSHO
 70
    1
  9
$DIMPOST
  1

  9
$DIMAPOST
  1

  9
$DIMALT
 70
    0
  9
$DIMALTD
 70
    3
  9
$DIMALTF
 40
0.03937007874016
  9
$DIMLFAC
 40
1
  9
$DIMTOFL
 70
    1
  9
$DIMTVP
 40
0
  9
$DIMTIX
 70
    0
  9
$DIMSOXD
 70
    0
  9
$DIMSAH
 70
    0
  9
$DIMBLK1
  1

  9
$DIMBLK2
  1

  9
$DIMSTYLE
  2
ISO-25
  9
$DIMCLRD
 70
    0
  9
$DIMCLRE
 70
    0
  9
$DIMCLRT
 70
    0
  9
$DIMTFAC
 40
1
  9
$DIMGAP
 40
0.625
  9
$DIMJUST
 70
    0
  9
$DIMSD1
 70
    0
  9
$DIMSD2
 70
    0
  9
$DIMTOLJ
 70
    0
  9
$DIMTZIN
 70
    8
  9
$DIMALTZ
 70
    0
  9
$DIMALTTZ
 70
    0
  9
$DIMUPT
 70
    0
  9
$DIMDEC
 70
    2
  9
$DIMTDEC
 70
    2
  9
$DIMALTU
 70
    2
  9
$DIMALTTD
 70
    3
  9
$DIMTXSTY
  7
Standard
  9
$DIMAUNIT
 70
    0
  9
$DIMADEC
 70
    0
  9
$DIMALTRND
 40
0
  9
$DIMAZIN
 70
    0
  9
$DIMDSEP
 70
   44
  9
$DIMATFIT
 70
    3
  9
$DIMFRAC
 70
    0
  9
$DIMLDRBLK
  1

  9
$DIMLUNIT
 70
    2
  9
$DIMLWD
 70
   -2
  9
$DIMLWE
 70
   -2
  9
$DIMTMOVE
 70
    0
  9
$DIMFXL
 40
1
  9
$DIMFXLON
 70
    0
  9
$DIMJOGANG
 40
0.7854
  9
$DIMTFILL
 70
    0
  9
$DIMTFILLCLR
 70
    0
  9
$DIMARCSYM
 70
    0
  9
$DIMLTYPE
  6

  9
$DIMLTEX1
  6

  9
$DIMLTEX2
  6

  9
$LUNITS
 70
    2
  9
$LUPREC
 70
    2
  9
$SKETCHINC
 40
1
  9
$FILLETRAD
 40
0
  9
$AUNITS
 70
    0
  9
$AUPREC
 70
    0
  9
$MENU
  1
.
  9
$ELEVATION
 40
0
  9
$PELEVATION
 40
0
  9
$THICKNESS
 40
0
  9
$LIMCHECK
 70
    0
  9
$CHAMFERA
 40
0
  9
$CHAMFERB
 40
0
  9
$CHAMFERC
 40
0
  9
$CHAMFERD
 40
0
  9
$SKPOLY
 70
    0
  9
$USRTIMER
 70
    1
  9
$ANGBASE
 50
0
  9
$ANGDIR
 70
    0
  9
$PDMODE
 70
    0
  9
$PDSIZE
 40
0
  9
$PLINEWID
 40
0
  9
$SPLFRAME
 70
    0
  9
$SPLINETYPE
 70
    6
  9
$SPLINESEGS
 70
    8
  9
$HANDSEED
  5
20000
  9
$SURFTAB1
 70
    6
  9
$SURFTAB2
 70
    6
  9
$SURFTYPE
 70
    6
  9
$SURFU
 70
    6
  9
$SURFV
 70
    6
  9
$UCSBASE
  2

  9
$UCSNAME
  2

  9
$UCSORG
 10
0
 20
0
 30
0
  9
$UCSXDIR
 10
1
 20
0
 30
0
  9
$UCSYDIR
 10
0
 20
1
 30
0
  9
$UCSORTHOREF
  2

  9
$UCSORTHOVIEW
 70
    0
  9
$UCSORGTOP
 10
0
 20
0
 30
0
  9
$UCSORGBOTTOM
 10
0
 20
0
 30
0
  9
$UCSORGLEFT
 10
0
 20
0
 30
0
  9
$UCSORGRIGHT
 10
0
 20
0
 30
0
  9
$UCSORGFRONT
 10
0
 20
0
 30
0
  9
$UCSORGBACK
 10
0
 20
0
 30
0
  9
$PUCSBASE
  2

  9
$PUCSNAME
  2

  9
$PUCSORG
 10
0
 20
0
 30
0
  9
$PUCSXDIR
 10
1
 20
0
 30
0
  9
$PUCSYDIR
 10
0
 20
1
 30
0
  9
$PUCSORTHOREF
  2

  9
$PUCSORTHOVIEW
 70
    0
  9
$PUCSORGTOP
 10
0
 20
0
 30
0
  9
$PUCSORGBOTTOM
 10
0
 20
0
 30
0
  9
$PUCSORGLEFT
 10
0
 20
0
 30
0
  9
$PUCSORGRIGHT
 10
0
 20
0
 30
0
  9
$PUCSORGFRONT
 10
0
 20
0
 30
0
  9
$PUCSORGBACK
 10
0
 20
0
 30
0
  9
$USERI1
 70
    0
  9
$USERI2
 70
    0
  9
$USERI3
 70
    0
  9
$USERI4
 70
    0
  9
$USERI5
 70
    0
  9
$USERR1
 40
0
  9
$USERR2
 40
0
  9
$USERR3
 40
0
  9
$USERR4
 40
0
  9
$USERR5
 40
0
  9
$WORLDVIEW
 70
    1
  9
$SHADEDGE
 70
    3
  9
$SHADEDIF
 70
   70
  9
$TILEMODE
 70
    1
  9
$MAXACTVP
 70
   64
  9
$PINSBASE
 10
0
 20
0
 30
0
  9
$PLIMCHECK
 70
    0
  9
$PEXTMIN
 10
25.69999999999999
 20
19.5
 30
0
  9
$PEXTMAX
 10
231.3
 20
175.5
 30
0
  9
$GRIDMODE
 70
    0
  9
$SNAPSTYLE
 70
    0
  9
$PLIMMIN
 10
-20
 20
-7.5
  9
$PLIMMAX
 10
277
 20
202.5
  9
$UNITMODE
 70
    0
  9
$VISRETAIN
 70
    1
  9
$PLINEGEN
 70
    0
  9
$PSLTSCALE
 70
    1
  9
$TREEDEPTH
 70
 3020
  9
$CMLSTYLE
  2
Standard
  9
$CMLJUST
 70
    0
  9
$CMLSCALE
 40
20
  9
$PROXYGRAPHICS
 70
    1
  9
$MEASUREMENT
 70
    1
  9
$CELWEIGHT
370
   -1
  9
$ENDCAPS
280
    0
  9
$JOINSTYLE
280
    0
  9
$LWDISPLAY
290
    0
  9
$INSUNITS
 70
    4
  9
$HYPERLINKBASE
  1

  9
$STYLESHEET
  1
monochrome.ctb
  9
$XEDIT
290
    1
  9
$CEPSNTYPE
380
    0
  9
$PSTYLEMODE
290
    1
  9
$EXTNAMES
290
    1
  9
$PSVPSCALE
 40
0
  9
$OLESTARTUP
290
    0
  9
$SORTENTS
280
  127
  9
$INDEXCTL
280
    0
  9
$HIDETEXT
280
    1
  9
$XCLIPFRAME
290
    0
  9
$HALOGAP
280
    0
  9
$OBSCOLOR
 70
  257
  9
$OBSLTYPE
280
    0
  9
$INTERSECTIONDISPLAY
280
    0
  9
$INTERSECTIONCOLOR
 70
  257
  9
$DIMASSOC
280
    2
  9
$PROJECTNAME
  1

  9
$CAMERADISPLAY
290
    0
  9
$LENSLENGTH
 40
50
  9
$CAMERAHEIGHT
 40
0
  9
$STEPSPERSEC
 40
2
  9
$STEPSIZE
 40
50
  9
$3DDWFPREC
 40
2
  9
$PSOLWIDTH
 40
5
  9
$PSOLHEIGHT
 40
80
  9
$LOFTANG1
 40
1.570796326794897
  9
$LOFTANG2
 40
1.570796326794897
  9
$LOFTMAG1
 40
0
  9
$LOFTMAG2
 40
0
  9
$LOFTPARAM
 70
    7
  9
$LOFTNORMALS
280
    1
  9
$LATITUDE
 40
1
  9
$LONGITUDE
 40
1
  9
$NORTHDIRECTION
 40
0
  9
$TIMEZONE
 70
-8000
  9
$LIGHTGLYPHDISPLAY
280
    1
  9
$TILEMODELIGHTSYNCH
280
    1
  9
$SOLIDHIST
280
    1
  9
$SHOWHIST
280
    1
  9
$DWFFRAME
280
    2
  9
$DGNFRAME
280
    0
  9
$REALWORLDSCALE
290
    1
  9
$INTERFERECOLOR
 62
    1
  9
$CSHADOW
280
    0
  9
$SHADOWPLANELOCATION
 40
0
  0
ENDSEC
  0
SECTION
  2
CLASSES
  0
ENDSEC
  0
SECTION
  2
TABLES
  0
TABLE
  2
VPORT
  5
8
330
0
100
AcDbSymbolTable
 70
    1
  0
VPORT
  5
31
330
2
100
AcDbSymbolTableRecord
100
AcDbViewportTableRecord
  2
*ACTIVE
 70
    0
 10
0
 20
0
 11
1
 21
1
 12
2609.409418460434
 22
278.5878232547871
 13
0
 23
0
 14
10
 24
10
 15
10
 25
10
 16
0
 26
0
 36
1
 17
0
 27
0
 37
0
 40
1340.088050125921
 41
2.037433155080214
 42
50
 43
0
 44
0
 50
0
 51
0
 71
    0
 72
  100
 73
    1
 74
    3
 75
    0
 76
    0
 77
    0
 78
    0
281
    0
 65
    1
110
0
120
0
130
0
111
1
121
0
131
0
112
0
122
1
132
0
 79
    0
146
0
348
10020
 60
    7
 61
    5
292
1
282
    1
141
0
142
0
 63
  250
421
3358443
  0
ENDTAB
  0
TABLE
  2
LTYPE
  5
5
330
0
100
AcDbSymbolTable
 70
    4
  0
LTYPE
  5
14
330
5
100
AcDbSymbolTableRecord
100
AcDbLinetypeTableRecord
  2
ByBlock
 70
    0
  3

 72
   65
 73
    0
 40
0
  0
LTYPE
  5
15
330
5
100
AcDbSymbolTableRecord
100
AcDbLinetypeTableRecord
  2
ByLayer
 70
    0
  3

 72
   65
 73
    0
 40
0
  0
LTYPE
  5
16
330
5
100
AcDbSymbolTableRecord
100
AcDbLinetypeTableRecord
  2
Continuous
 70
    0
  3
Solid line
 72
   65
 73
    0
 40
0
  0
LTYPE
  5
32
330
5
100
AcDbSymbolTableRecord
100
AcDbLinetypeTableRecord
  2
DOT
 70
    0
  3
Dot . . . . . . . . . . . . . . . . . . . . . .
 72
   65
 73
    2
 40
6.35
 49
0
 74
    0
 49
-6.35
 74
    0
  0
LTYPE
  5
33
330
5
100
AcDbSymbolTableRecord
100
AcDbLinetypeTableRecord
  2
DOTTINY
 70
    0
  3
Dot (.15x) .....................................
 72
   65
 73
    2
 40
0.9525
 49
0
 74
    0
 49
-0.9525
 74
    0
  0
LTYPE
  5
34
330
5
100
AcDbSymbolTableRecord
100
AcDbLinetypeTableRecord
  2
DOT2
 70
    0
  3
Dot (.5x) .....................................
 72
   65
 73
    2
 40
3.175
 49
0
 74
    0
 49
-3.175
 74
    0
  0
LTYPE
  5
35
330
5
100
AcDbSymbolTableRecord
100
AcDbLinetypeTableRecord
  2
DOTX2
 70
    0
  3
Dot (2x) .  .  .  .  .  .  .  .  .  .  .  .  .
 72
   65
 73
    2
 40
12.7
 49
0
 74
    0
 49
-12.7
 74
    0
  0
LTYPE
  5
36
330
5
100
AcDbSymbolTableRecord
100
AcDbLinetypeTableRecord
  2
DASHED
 70
    0
  3
Dashed _ _ _ _ _ _ _ _ _ _ _ _ _ _ _ _ _
 72
   65
 73
    2
 40
19.05
 49
12.7
 74
    0
 49
-6.35
 74
    0
  0
LTYPE
  5
37
330
5
100
AcDbSymbolTableRecord
100
AcDbLinetypeTableRecord
  2
DASHEDTINY
 70
    0
  3
Dashed (.15x) _ _ _ _ _ _ _ _ _ _ _ _ _ _ _ _ _
 72
   65
 73
    2
 40
2.8575
 49
1.905
 74
    0
 49
-0.9525
 74
    0
  0
LTYPE
  5
38
330
5
100
AcDbSymbolTableRecord
100
AcDbLinetypeTableRecord
  2
DASHED2
 70
    0
  3
Dashed (.5x) _ _ _ _ _ _ _ _ _ _ _ _ _ _ _ _ _
 72
   65
 73
    2
 40
9.524999999999999
 49
6.35
 74
    0
 49
-3.175
 74
    0
  0
LTYPE
  5
39
330
5
100
AcDbSymbolTableRecord
100
AcDbLinetypeTableRecord
  2
DASHEDX2
 70
    0
  3
Dashed (2x) ____  ____  ____  ____  ____  ___
 72
   65
 73
    2
 40
38.09999999999999
 49
25.4
 74
    0
 49
-12.7
 74
    0
  0
LTYPE
  5
3A
330
5
100
AcDbSymbolTableRecord
100
AcDbLinetypeTableRecord
  2
DASHDOT
 70
    0
  3
Dash dot __ . __ . __ . __ . __ . __ . __ . __
 72
   65
 73
    4
 40
25.4
 49
12.7
 74
    0
 49
-6.35
 74
    0
 49
0
 74
    0
 49
-6.35
 74
    0
  0
LTYPE
  5
3B
330
5
100
AcDbSymbolTableRecord
100
AcDbLinetypeTableRecord
  2
DASHDOTTINY
 70
    0
  3
Dash dot (.15x) _._._._._._._._._._._._._._._.
 72
   65
 73
    4
 40
3.81
 49
1.905
 74
    0
 49
-0.9525
 74
    0
 49
0
 74
    0
 49
-0.9525
 74
    0
  0
LTYPE
  5
3C
330
5
100
AcDbSymbolTableRecord
100
AcDbLinetypeTableRecord
  2
DASHDOT2
 70
    0
  3
Dash dot (.5x) _._._._._._._._._._._._._._._.
 72
   65
 73
    4
 40
12.7
 49
6.35
 74
    0
 49
-3.175
 74
    0
 49
0
 74
    0
 49
-3.175
 74
    0
  0
LTYPE
  5
3D
330
5
100
AcDbSymbolTableRecord
100
AcDbLinetypeTableRecord
  2
DASHDOTX2
 70
    0
  3
Dash dot (2x) ____  .  ____  .  ____  .  ___
 72
   65
 73
    4
 40
50.8
 49
25.4
 74
    0
 49
-12.7
 74
    0
 49
0
 74
    0
 49
-12.7
 74
    0
  0
LTYPE
  5
3E
330
5
100
AcDbSymbolTableRecord
100
AcDbLinetypeTableRecord
  2
DIVIDE
 70
    0
  3
Divide ____ . . ____ . . ____ . . ____ . . ____
 72
   65
 73
    6
 40
31.75
 49
12.7
 74
    0
 49
-6.35
 74
    0
 49
0
 74
    0
 49
-6.35
 74
    0
 49
0
 74
    0
 49
-6.35
 74
    0
  0
LTYPE
  5
3F
330
5
100
AcDbSymbolTableRecord
100
AcDbLinetypeTableRecord
  2
DIVIDETINY
 70
    0
  3
Divide (.15x) __..__..__..__..__..__..__..__.._
 72
   65
 73
    6
 40
4.7625
 49
1.905
 74
    0
 49
-0.9525
 74
    0
 49
0
 74
    0
 49
-0.9525
 74
    0
 49
0
 74
    0
 49
-0.9525
 74
    0
  0
LTYPE
  5
40
330
5
100
AcDbSymbolTableRecord
100
AcDbLinetypeTableRecord
  2
DIVIDE2
 70
    0
  3
Divide (.5x) __..__..__..__..__..__..__..__.._
 72
   65
 73
    6
 40
15.875
 49
6.35
 74
    0
 49
-3.175
 74
    0
 49
0
 74
    0
 49
-3.175
 74
    0
 49
0
 74
    0
 49
-3.175
 74
    0
  0
LTYPE
  5
41
330
5
100
AcDbSymbolTableRecord
100
AcDbLinetypeTableRecord
  2
DIVIDEX2
 70
    0
  3
Divide (2x) ________  .  .  ________  .  .  _
 72
   65
 73
    6
 40
63.5
 49
25.4
 74
    0
 49
-12.7
 74
    0
 49
0
 74
    0
 49
-12.7
 74
    0
 49
0
 74
    0
 49
-12.7
 74
    0
  0
LTYPE
  5
42
330
5
100
AcDbSymbolTableRecord
100
AcDbLinetypeTableRecord
  2
BORDER
 70
    0
  3
Border __ __ . __ __ . __ __ . __ __ . __ __ .
 72
   65
 73
    6
 40
44.45
 49
12.7
 74
    0
 49
-6.35
 74
    0
 49
12.7
 74
    0
 49
-6.35
 74
    0
 49
0
 74
    0
 49
-6.35
 74
    0
  0
LTYPE
  5
43
330
5
100
AcDbSymbolTableRecord
100
AcDbLinetypeTableRecord
  2
BORDERTINY
 70
    0
  3
Border (.15x) __.__.__.__.__.__.__.__.__.__.__.
 72
   65
 73
    6
 40
6.6675
 49
1.905
 74
    0
 49
-0.9525
 74
    0
 49
1.905
 74
    0
 49
-0.9525
 74
    0
 49
0
 74
    0
 49
-0.9525
 74
    0
  0
LTYPE
  5
44
330
5
100
AcDbSymbolTableRecord
100
AcDbLinetypeTableRecord
  2
BORDER2
 70
    0
  3
Border (.5x) __.__.__.__.__.__.__.__.__.__.__.
 72
   65
 73
    6
 40
22.225
 49
6.35
 74
    0
 49
-3.175
 74
    0
 49
6.35
 74
    0
 49
-3.175
 74
    0
 49
0
 74
    0
 49
-3.175
 74
    0
  0
LTYPE
  5
45
330
5
100
AcDbSymbolTableRecord
100
AcDbLinetypeTableRecord
  2
BORDERX2
 70
    0
  3
Border (2x) ____  ____  .  ____  ____  .  ___
 72
   65
 73
    6
 40
88.89999999999999
 49
25.4
 74
    0
 49
-12.7
 74
    0
 49
25.4
 74
    0
 49
-12.7
 74
    0
 49
0
 74
    0
 49
-12.7
 74
    0
  0
LTYPE
  5
46
330
5
100
AcDbSymbolTableRecord
100
AcDbLinetypeTableRecord
  2
CENTER
 70
    0
  3
Center ____ _ ____ _ ____ _ ____ _ ____ _ ____
 72
   65
 73
    4
 40
50.8
 49
31.75
 74
    0
 49
-6.35
 74
    0
 49
6.35
 74
    0
 49
-6.35
 74
    0
  0
LTYPE
  5
47
330
5
100
AcDbSymbolTableRecord
100
AcDbLinetypeTableRecord
  2
CENTERTINY
 70
    0
  3
Center (.15x) ___ _ ___ _ ___ _ ___ _ ___ _ ___
 72
   65
 73
    4
 40
7.62
 49
4.7625
 74
    0
 49
-0.9525
 74
    0
 49
0.9525
 74
    0
 49
-0.9525
 74
    0
  0
LTYPE
  5
48
330
5
100
AcDbSymbolTableRecord
100
AcDbLinetypeTableRecord
  2
CENTER2
 70
    0
  3
Center (.5x) ___ _ ___ _ ___ _ ___ _ ___ _ ___
 72
   65
 73
    4
 40
28.575
 49
19.05
 74
    0
 49
-3.175
 74
    0
 49
3.175
 74
    0
 49
-3.175
 74
    0
  0
LTYPE
  5
49
330
5
100
AcDbSymbolTableRecord
100
AcDbLinetypeTableRecord
  2
CENTERX2
 70
    0
  3
Center (2x) ________  __  ________  __  _____
 72
   65
 73
    4
 40
101.6
 49
63.5
 74
    0
 49
-12.7
 74
    0
 49
12.7
 74
    0
 49
-12.7
 74
    0
  0
ENDTAB
  0
TABLE
  2
LAYER
  5
2
330
0
100
AcDbSymbolTable
 70
    1
  0
LAYER
  5
10
330
2
100
AcDbSymbolTableRecord
100
AcDbLayerTableRecord
  2
0
 70
    0
 62
    7
  6
CONTINUOUS
370
   -3
390
F
  0
LAYER
  5
4A
330
2
100
AcDbSymbolTableRecord
100
AcDbLayerTableRecord
  2
Defpoints
 70
    0
 62
    7
  6
CONTINUOUS
290
0
370
   -3
390
F
  0
LAYER
  5
4B
330
2
100
AcDbSymbolTableRecord
100
AcDbLayerTableRecord
  2
dimesion
 70
    0
 62
    3
  6
CONTINUOUS
370
   -3
390
F
  0
LAYER
  5
4C
330
2
100
AcDbSymbolTableRecord
100
AcDbLayerTableRecord
  2
dis bar
 70
    0
 62
    1
  6
CONTINUOUS
370
   30
390
F
  0
LAYER
  5
4D
330
2
100
AcDbSymbolTableRecord
100
AcDbLayerTableRecord
  2
hatch
 70
    0
 62
    7
  6
CONTINUOUS
370
   -3
390
F
  0
LAYER
  5
4E
330
2
100
AcDbSymbolTableRecord
100
AcDbLayerTableRecord
  2
outlines
 70
    0
 62
    7
  6
CONTINUOUS
370
   -3
390
F
  0
LAYER
  5
4F
330
2
100
AcDbSymbolTableRecord
100
AcDbLayerTableRecord
  2
stirrups
 70
    0
 62
    2
  6
CONTINUOUS
370
   50
390
F
  0
LAYER
  5
50
330
2
100
AcDbSymbolTableRecord
100
AcDbLayerTableRecord
  2
text
 70
    0
 62
  150
  6
CONTINUOUS
370
   -3
390
F
  0
ENDTAB
  0
TABLE
  2
STYLE
  5
3
330
0
100
AcDbSymbolTable
 70
    3
  0
STYLE
  5
51
330
2
100
AcDbSymbolTableRecord
100
AcDbTextStyleTableRecord
  2
STANDARD
 70
    0
 40
0
 41
1
 50
0
 71
    0
 42
1
  3
STANDARD
  4

  0
ENDTAB
  0
TABLE
  2
VIEW
  5
6
330
0
100
AcDbSymbolTable
 70
    0
  0
ENDTAB
  0
TABLE
  2
UCS
  5
7
330
0
100
AcDbSymbolTable
 70
    0
  0
ENDTAB
  0
TABLE
  2
APPID
  5
9
330
0
100
AcDbSymbolTable
 70
    1
  0
APPID
  5
12
330
9
100
AcDbSymbolTableRecord
100
AcDbRegAppTableRecord
  2
ACAD
 70
    0
  0
APPID
  5
52
330
9
100
AcDbSymbolTableRecord
100
AcDbRegAppTableRecord
  2
LibreCad
 70
    0
  0
ENDTAB
  0
TABLE
  2
DIMSTYLE
  5
A
330
0
100
AcDbSymbolTable
 70
    1
100
AcDbDimStyleTable
 71
    1
  0
DIMSTYLE
105
53
330
A
100
AcDbSymbolTableRecord
100
AcDbDimStyleTableRecord
  2
Standard
 70
    0
 40
1
 41
10
 42
0.625
 43
0.38
 44
1.25
 45
0
 46
0
 47
0
 48
0
 49
1
140
20
141
0.09
142
0
143
25.4
144
1
145
0
146
1
147
0.625
148
0
 71
    0
 72
    0
 73
    0
 74
    1
 75
    0
 76
    0
 77
    0
 78
    8
 79
    0
170
    0
171
    2
172
    0
173
    0
174
    0
175
    0
176
    0
177
    0
178
    0
179
    0
271
    2
272
    4
273
    2
274
    2
275
    0
276
    0
277
    2
278
   44
279
    0
280
    0
281
    0
282
    0
283
    1
284
    0
285
    0
286
    0
288
    0
289
    3
340
Standard
341

371
   -2
372
   -2
  0
ENDTAB
  0
TABLE
  2
BLOCK_RECORD
  5
1
330
0
100
AcDbSymbolTable
 70
    2
  0
BLOCK_RECORD
  5
1F
330
1
100
AcDbSymbolTableRecord
100
AcDbBlockTableRecord
  2
*Model_Space
 70
    0
280
    1
281
    0
  0
BLOCK_RECORD
  5
1E
330
1
100
AcDbSymbolTableRecord
100
AcDbBlockTableRecord
  2
*Paper_Space
 70
    0
280
    1
281
    0
  0
BLOCK_RECORD
  5
54
330
1
100
AcDbSymbolTableRecord
100
AcDbBlockTableRecord
  2
*D5
 70
    0
280
    1
281
    0
  0
BLOCK_RECORD
  5
57
330
1
100
AcDbSymbolTableRecord
100
AcDbBlockTableRecord
  2
*D6
 70
    0
280
    1
281
    0
  0
BLOCK_RECORD
  5
5A
330
1
100
AcDbSymbolTableRecord
100
AcDbBlockTableRecord
  2
*D3
 70
    0
280
    1
281
    0
  0
BLOCK_RECORD
  5
5D
330
1
100
AcDbSymbolTableRecord
100
AcDbBlockTableRecord
  2
*D1
 70
    0
280
    1
281
    0
  0
BLOCK_RECORD
  5
60
330
1
100
AcDbSymbolTableRecord
100
AcDbBlockTableRecord
  2
*D8
 70
    0
280
    1
281
    0
  0
BLOCK_RECORD
  5
63
330
1
100
AcDbSymbolTableRecord
100
AcDbBlockTableRecord
  2
*D2
 70
    0
280
    1
281
    0
  0
BLOCK_RECORD
  5
66
330
1
100
AcDbSymbolTableRecord
100
AcDbBlockTableRecord
  2
*D9
 70
    0
280
    1
281
    0
  0
BLOCK_RECORD
  5
69
330
1
100
AcDbSymbolTableRecord
100
AcDbBlockTableRecord
  2
*D4
 70
    0
280
    1
281
    0
  0
BLOCK_RECORD
  5
6C
330
1
100
AcDbSymbolTableRecord
100
AcDbBlockTableRecord
  2
*D7
 70
    0
280
    1
281
    0
  0
BLOCK_RECORD
  5
6F
330
1
100
AcDbSymbolTableRecord
100
AcDbBlockTableRecord
  2
*U7
 70
    0
280
    1
281
    0
  0
BLOCK_RECORD
  5
72
330
1
100
AcDbSymbolTableRecord
100
AcDbBlockTableRecord
  2
*U8
 70
    0
280
    1
281
    0
  0
BLOCK_RECORD
  5
75
330
1
100
AcDbSymbolTableRecord
100
AcDbBlockTableRecord
  2
*U9
 70
    0
280
    1
281
    0
  0
BLOCK_RECORD
  5
78
330
1
100
AcDbSymbolTableRecord
100
AcDbBlockTableRecord
  2
*U10
 70
    0
280
    1
281
    0
  0
BLOCK_RECORD
  5
7B
330
1
100
AcDbSymbolTableRecord
100
AcDbBlockTableRecord
  2
*U21
 70
    0
280
    1
281
    0
  0
BLOCK_RECORD
  5
7E
330
1
100
AcDbSymbolTableRecord
100
AcDbBlockTableRecord
  2
*U22
 70
    0
280
    1
281
    0
  0
BLOCK_RECORD
  5
81
330
1
100
AcDbSymbolTableRecord
100
AcDbBlockTableRecord
  2
*U23
 70
    0
280
    1
281
    0
  0
BLOCK_RECORD
  5
84
330
1
100
AcDbSymbolTableRecord
100
AcDbBlockTableRecord
  2
*U24
 70
    0
280
    1
281
    0
  0
ENDTAB
  0
ENDSEC
  0
SECTION
  2
BLOCKS
  0
BLOCK
  5
20
330
1F
100
AcDbEntity
  8
0
100
AcDbBlockBegin
  2
*Model_Space
 70
    0
 10
0
 20
0
 30
0
  3
*Model_Space
  1

  0
ENDBLK
  5
21
330
1F
100
AcDbEntity
  8
0
100
AcDbBlockEnd
  0
BLOCK
  5
1C
330
1B
100
AcDbEntity
  8
0
100
AcDbBlockBegin
  2
*Paper_Space
 70
    0
 10
0
 20
0
 30
0
  3
*Paper_Space
  1

  0
ENDBLK
  5
1D
330
1F
100
AcDbEntity
  8
0
100
AcDbBlockEnd
  0
BLOCK
  5
55
330
54
100
AcDbEntity
  8
0
100
AcDbBlockBegin
  2
*D5
 70
    1
 10
0
 20
0
  3
*D5
  1

  0
LINE
  5
87
100
AcDbEntity
  8
dimesion
  6
ByBlock
 62
    0
370
   -2
100
AcDbLine
 10
4415.391290409147
 20
85
 11
4415.391290409147
 21
60
  0
MTEXT
  5
88
100
AcDbEntity
  8
dimesion
  6
CONTINUOUS
 62
    0
370
   -2
100
AcDbMText
 10
4404.349903572343
 20
35.80884822028082
 30
0
 40
20
 41
24.44444444444569
 71
    5
 72
    1
  1
25
  7
Standard
210
0
220
0
230
1
 50
90
 73
    2
 44
1
  0
SOLID
  5
89
100
AcDbEntity
  8
dimesion
  6
ByBlock
 62
    0
370
   -2
100
AcDbTrace
 10
4415.391290409147
 20
85
 30
0
 11
4417.056429040238
 21
75
 31
0
 12
4413.726151778055
 22
75
 32
0
 13
4413.726151778055
 23
75
 33
0
  0
SOLID
  5
8A
100
AcDbEntity
  8
dimesion
  6
ByBlock
 62
    0
370
   -2
100
AcDbTrace
 10
4415.391290409147
 20
60
 30
0
 11
4413.726151778055
 21
70
 31
0
 12
4417.056429040238
 22
70
 32
0
 13
4417.056429040238
 23
70
 33
0
  0
LINE
  5
8B
100
AcDbEntity
  8
dimesion
  6
ByBlock
 62
    0
370
   -2
100
AcDbLine
 10
4439.375
 20
85
 11
4414.141290409147
 21
85
  0
LINE
  5
8C
100
AcDbEntity
  8
dimesion
  6
ByBlock
 62
    0
370
   -2
100
AcDbLine
 10
4439.375
 20
60
 11
4414.141290409147
 21
60
  0
ENDBLK
  5
56
330
54
100
AcDbEntity
  8
0
100
AcDbBlockEnd
  0
BLOCK
  5
58
330
57
100
AcDbEntity
  8
0
100
AcDbBlockBegin
  2
*D6
 70
    1
 10
0
 20
0
  3
*D6
  1

  0
LINE
  5
8D
100
AcDbEntity
  8
dimesion
  6
ByBlock
 62
    0
370
   -2
100
AcDbLine
 10
4660
 20
141.8964140539338
 11
4690
 21
141.8964140539338
  0
MTEXT
  5
8E
100
AcDbEntity
  8
dimesion
  6
CONTINUOUS
 62
    0
370
   -2
100
AcDbMText
 10
4675
 20
152.7396950907687
 30
0
 40
20
 41
24.44444444444569
 71
    5
 72
    1
  1
30
  7
Standard
210
0
220
0
230
1
 50
0
 73
    2
 44
1
  0
SOLID
  5
8F
100
AcDbEntity
  8
dimesion
  6
ByBlock
 62
    0
370
   -2
100
AcDbTrace
 10
4660
 20
141.8964140539338
 30
0
 11
4670
 21
143.5615526850252
 31
0
 12
4670
 22
140.2312754228424
 32
0
 13
4670
 23
140.2312754228424
 33
0
  0
SOLID
  5
90
100
AcDbEntity
  8
dimesion
  6
ByBlock
 62
    0
370
   -2
100
AcDbTrace
 10
4690
 20
141.8964140539338
 30
0
 11
4680
 21
140.2312754228424
 31
0
 12
4680
 22
143.5615526850252
 32
0
 13
4680
 23
143.5615526850252
 33
0
  0
LINE
  5
91
100
AcDbEntity
  8
dimesion
  6
ByBlock
 62
    0
370
   -2
100
AcDbLine
 10
4660
 20
94.625
 11
4660
 21
143.1464140539338
  0
LINE
  5
92
100
AcDbEntity
  8
dimesion
  6
ByBlock
 62
    0
370
   -2
100
AcDbLine
 10
4690
 20
94.625
 11
4690
 21
143.1464140539338
  0
ENDBLK
  5
59
330
57
100
AcDbEntity
  8
0
100
AcDbBlockEnd
  0
BLOCK
  5
5B
330
5A
100
AcDbEntity
  8
0
100
AcDbBlockBegin
  2
*D3
 70
    1
 10
0
 20
0
  3
*D3
  1

  0
LINE
  5
93
100
AcDbEntity
  8
dimesion
  6
ByBlock
 62
    0
370
   -2
100
AcDbLine
 10
2973.758090910461
 20
-403.7669747846176
 11
2973.758090910461
 21
-563.7669747846176
  0
MTEXT
  5
94
100
AcDbEntity
  8
dimesion
  6
CONTINUOUS
 62
    0
370
   -2
100
AcDbMText
 10
2962.921631156027
 20
-483.7669747846185
 30
0
 40
20
 41
35.55555555555679
 71
    5
 72
    1
  1
160
  7
Standard
210
0
220
0
230
1
 50
90
 73
    2
 44
1
  0
SOLID
  5
95
100
AcDbEntity
  8
dimesion
  6
ByBlock
 62
    0
370
   -2
100
AcDbTrace
 10
2973.758090910461
 20
-403.7669747846176
 30
0
 11
2975.423229541552
 21
-413.7669747846176
 31
0
 12
2972.092952279369
 22
-413.7669747846176
 32
0
 13
2972.092952279369
 23
-413.7669747846176
 33
0
  0
SOLID
  5
96
100
AcDbEntity
  8
dimesion
  6
ByBlock
 62
    0
370
   -2
100
AcDbTrace
 10
2973.758090910461
 20
-563.7669747846176
 30
0
 11
2972.092952279369
 21
-553.7669747846176
 31
0
 12
2975.423229541552
 22
-553.7669747846176
 32
0
 13
2975.423229541552
 23
-553.7669747846176
 33
0
  0
LINE
  5
97
100
AcDbEntity
  8
dimesion
  6
ByBlock
 62
    0
370
   -2
100
AcDbLine
 10
2994.347279690897
 20
-403.7669747846176
 11
2972.508090910461
 21
-403.7669747846176
  0
LINE
  5
98
100
AcDbEntity
  8
dimesion
  6
ByBlock
 62
    0
370
   -2
100
AcDbLine
 10
2994.347279690897
 20
-563.7669747846176
 11
2972.508090910461
 21
-563.7669747846176
  0
ENDBLK
  5
5C
330
5A
100
AcDbEntity
  8
0
100
AcDbBlockEnd
  0
BLOCK
  5
5E
330
5D
100
AcDbEntity
  8
0
100
AcDbBlockBegin
  2
*D1
 70
    1
 10
0
 20
0
  3
*D1
  1

  0
LINE
  5
99
100
AcDbEntity
  8
dimesion
  6
ByBlock
 62
    0
370
   -2
100
AcDbLine
 10
3140
 20
-82.30154191841373
 11
4540
 21
-82.30154191841393
  0
MTEXT
  5
9A
100
AcDbEntity
  8
dimesion
  6
CONTINUOUS
 62
    0
370
   -2
100
AcDbMText
 10
3840
 20
-71.4650821639801
 30
0
 40
20
 41
53.33333333333334
 71
    5
 72
    1
  1
1400
  7
Standard
210
0
220
0
230
1
 50
0
 73
    2
 44
1
  0
SOLID
  5
9B
100
AcDbEntity
  8
dimesion
  6
ByBlock
 62
    0
370
   -2
100
AcDbTrace
 10
3140
 20
-82.30154191841373
 30
0
 11
3150
 21
-80.63640328732237
 31
0
 12
3150
 22
-83.9666805495051
 32
0
 13
3150
 23
-83.9666805495051
 33
0
  0
SOLID
  5
9C
100
AcDbEntity
  8
dimesion
  6
ByBlock
 62
    0
370
   -2
100
AcDbTrace
 10
4540
 20
-82.30154191841393
 30
0
 11
4530
 21
-83.9666805495053
 31
0
 12
4530
 22
-80.63640328732257
 32
0
 13
4530
 23
-80.63640328732257
 33
0
  0
LINE
  5
9D
100
AcDbEntity
  8
dimesion
  6
ByBlock
 62
    0
370
   -2
100
AcDbLine
 10
3140
 20
-5.625
 11
3140
 21
-83.55154191841373
  0
LINE
  5
9E
100
AcDbEntity
  8
dimesion
  6
ByBlock
 62
    0
370
   -2
100
AcDbLine
 10
4540
 20
-5.625
 11
4540
 21
-83.55154191841393
  0
ENDBLK
  5
5F
330
5D
100
AcDbEntity
  8
0
100
AcDbBlockEnd
  0
BLOCK
  5
61
330
60
100
AcDbEntity
  8
0
100
AcDbBlockBegin
  2
*D8
 70
    1
 10
0
 20
0
  3
*D8
  1

  0
LINE
  5
9F
100
AcDbEntity
  8
dimesion
  6
ByBlock
 62
    0
370
   -2
100
AcDbLine
 10
4128.550815745632
 20
-387.2057135950539
 11
4128.550815745632
 21
-547.2057135950539
  0
MTEXT
  5
A0
100
AcDbEntity
  8
dimesion
  6
CONTINUOUS
 62
    0
370
   -2
100
AcDbMText
 10
4117.51614482555
 20
-467.2057135950552
 30
0
 40
20
 41
35.55555555555679
 71
    5
 72
    1
  1
160
  7
Standard
210
0
220
0
230
1
 50
90
 73
    2
 44
1
  0
SOLID
  5
A1
100
AcDbEntity
  8
dimesion
  6
ByBlock
 62
    0
370
   -2
100
AcDbTrace
 10
4128.550815745632
 20
-387.2057135950539
 30
0
 11
4130.215954376723
 21
-397.2057135950539
 31
0
 12
4126.88567711454
 22
-397.2057135950539
 32
0
 13
4126.88567711454
 23
-397.2057135950539
 33
0
  0
SOLID
  5
A2
100
AcDbEntity
  8
dimesion
  6
ByBlock
 62
    0
370
   -2
100
AcDbTrace
 10
4128.550815745632
 20
-547.2057135950539
 30
0
 11
4126.88567711454
 21
-537.2057135950539
 31
0
 12
4130.215954376723
 22
-537.2057135950539
 32
0
 13
4130.215954376723
 23
-537.2057135950539
 33
0
  0
LINE
  5
A3
100
AcDbEntity
  8
dimesion
  6
ByBlock
 62
    0
370
   -2
100
AcDbLine
 10
4079.237924239656
 20
-387.2057135950539
 11
4129.800815745632
 21
-387.2057135950539
  0
LINE
  5
A4
100
AcDbEntity
  8
dimesion
  6
ByBlock
 62
    0
370
   -2
100
AcDbLine
 10
4079.237924239656
 20
-547.2057135950539
 11
4129.800815745632
 21
-547.2057135950539
  0
ENDBLK
  5
62
330
60
100
AcDbEntity
  8
0
100
AcDbBlockEnd
  0
BLOCK
  5
64
330
63
100
AcDbEntity
  8
0
100
AcDbBlockBegin
  2
*D2
 70
    1
 10
0
 20
0
  3
*D2
  1

  0
LINE
  5
A5
100
AcDbEntity
  8
dimesion
  6
ByBlock
 62
    0
370
   -2
100
AcDbLine
 10
4654.184560528791
 20
220
 11
4654.184560528791
 21
245
  0
MTEXT
  5
A6
100
AcDbEntity
  8
dimesion
  6
CONTINUOUS
 62
    0
370
   -2
100
AcDbMText
 10
4643.348100774356
 20
270.19525920873
 30
0
 40
20
 41
24.44444444444569
 71
    5
 72
    1
  1
25
  7
Standard
210
0
220
0
230
1
 50
90
 73
    2
 44
1
  0
SOLID
  5
A7
100
AcDbEntity
  8
dimesion
  6
ByBlock
 62
    0
370
   -2
100
AcDbTrace
 10
4654.184560528791
 20
220
 30
0
 11
4652.519421897699
 21
230
 31
0
 12
4655.849699159882
 22
230
 32
0
 13
4655.849699159882
 23
230
 33
0
  0
SOLID
  5
A8
100
AcDbEntity
  8
dimesion
  6
ByBlock
 62
    0
370
   -2
100
AcDbTrace
 10
4654.184560528791
 20
245
 30
0
 11
4655.849699159882
 21
235
 31
0
 12
4652.519421897699
 22
235
 32
0
 13
4652.519421897699
 23
235
 33
0
  0
LINE
  5
A9
100
AcDbEntity
  8
dimesion
  6
ByBlock
 62
    0
370
   -2
100
AcDbLine
 10
4689.375
 20
220
 11
4652.934560528791
 21
220
  0
LINE
  5
AA
100
AcDbEntity
  8
dimesion
  6
ByBlock
 62
    0
370
   -2
100
AcDbLine
 10
4689.375
 20
245
 11
4652.934560528791
 21
245
  0
ENDBLK
  5
65
330
63
100
AcDbEntity
  8
0
100
AcDbBlockEnd
  0
BLOCK
  5
67
330
66
100
AcDbEntity
  8
0
100
AcDbBlockBegin
  2
*D9
 70
    1
 10
0
 20
0
  3
*D9
  1

  0
LINE
  5
AB
100
AcDbEntity
  8
dimesion
  6
ByBlock
 62
    0
370
   -2
100
AcDbLine
 10
4240
 20
277.5072495628829
 11
4440
 21
277.5072495628829
  0
MTEXT
  5
AC
100
AcDbEntity
  8
dimesion
  6
CONTINUOUS
 62
    0
370
   -2
100
AcDbMText
 10
4340
 20
288.5486363996861
 30
0
 40
20
 41
40
 71
    5
 72
    1
  1
200
  7
Standard
210
0
220
0
230
1
 50
0
 73
    2
 44
1
  0
SOLID
  5
AD
100
AcDbEntity
  8
dimesion
  6
ByBlock
 62
    0
370
   -2
100
AcDbTrace
 10
4240
 20
277.5072495628829
 30
0
 11
4250
 21
279.1723881939743
 31
0
 12
4250
 22
275.8421109317916
 32
0
 13
4250
 23
275.8421109317916
 33
0
  0
SOLID
  5
AE
100
AcDbEntity
  8
dimesion
  6
ByBlock
 62
    0
370
   -2
100
AcDbTrace
 10
4440
 20
277.5072495628829
 30
0
 11
4430
 21
275.8421109317916
 31
0
 12
4430
 22
279.1723881939743
 32
0
 13
4430
 23
279.1723881939743
 33
0
  0
LINE
  5
AF
100
AcDbEntity
  8
dimesion
  6
ByBlock
 62
    0
370
   -2
100
AcDbLine
 10
4240
 20
195.625
 11
4240
 21
278.7572495628829
  0
LINE
  5
B0
100
AcDbEntity
  8
dimesion
  6
ByBlock
 62
    0
370
   -2
100
AcDbLine
 10
4440
 20
195.625
 11
4440
 21
278.7572495628829
  0
ENDBLK
  5
68
330
66
100
AcDbEntity
  8
0
100
AcDbBlockEnd
  0
BLOCK
  5
6A
330
69
100
AcDbEntity
  8
0
100
AcDbBlockBegin
  2
*D4
 70
    1
 10
0
 20
0
  3
*D4
  1

  0
LINE
  5
B1
100
AcDbEntity
  8
dimesion
  6
ByBlock
 62
    0
370
   -2
100
AcDbLine
 10
2994.972279690897
 20
-595.518699778775
 11
3294.972279690898
 21
-595.518699778775
  0
MTEXT
  5
B2
100
AcDbEntity
  8
dimesion
  6
CONTINUOUS
 62
    0
370
   -2
100
AcDbMText
 10
3144.972279690897
 20
-584.6754187419401
 30
0
 40
20
 41
40.00000000000124
 71
    5
 72
    1
  1
300
  7
Standard
210
0
220
0
230
1
 50
0
 73
    2
 44
1
  0
SOLID
  5
B3
100
AcDbEntity
  8
dimesion
  6
ByBlock
 62
    0
370
   -2
100
AcDbTrace
 10
2994.972279690897
 20
-595.518699778775
 30
0
 11
3004.972279690897
 21
-593.8535611476836
 31
0
 12
3004.972279690897
 22
-597.1838384098664
 32
0
 13
3004.972279690897
 23
-597.1838384098664
 33
0
  0
SOLID
  5
B4
100
AcDbEntity
  8
dimesion
  6
ByBlock
 62
    0
370
   -2
100
AcDbTrace
 10
3294.972279690898
 20
-595.518699778775
 30
0
 11
3284.972279690898
 21
-597.1838384098664
 31
0
 12
3284.972279690898
 22
-593.8535611476836
 32
0
 13
3284.972279690898
 23
-593.8535611476836
 33
0
  0
LINE
  5
B5
100
AcDbEntity
  8
dimesion
  6
ByBlock
 62
    0
370
   -2
100
AcDbLine
 10
2994.972279690897
 20
-564.3919747846176
 11
2994.972279690897
 21
-596.768699778775
  0
LINE
  5
B6
100
AcDbEntity
  8
dimesion
  6
ByBlock
 62
    0
370
   -2
100
AcDbLine
 10
3294.972279690898
 20
-564.3919747846176
 11
3294.972279690898
 21
-596.768699778775
  0
ENDBLK
  5
6B
330
69
100
AcDbEntity
  8
0
100
AcDbBlockEnd
  0
BLOCK
  5
6D
330
6C
100
AcDbEntity
  8
0
100
AcDbBlockBegin
  2
*D7
 70
    1
 10
0
 20
0
  3
*D7
  1

  0
LINE
  5
B7
100
AcDbEntity
  8
dimesion
  6
ByBlock
 62
    0
370
   -2
100
AcDbLine
 10
3778.612924239656
 20
-578.9574385892114
 11
4078.612924239657
 21
-578.9574385892114
  0
MTEXT
  5
B8
100
AcDbEntity
  8
dimesion
  6
CONTINUOUS
 62
    0
370
   -2
100
AcDbMText
 10
3928.612924239656
 20
-568.1141575523765
 30
0
 40
20
 41
40.00000000000124
 71
    5
 72
    1
  1
300
  7
Standard
210
0
220
0
230
1
 50
0
 73
    2
 44
1
  0
SOLID
  5
B9
100
AcDbEntity
  8
dimesion
  6
ByBlock
 62
    0
370
   -2
100
AcDbTrace
 10
3778.612924239656
 20
-578.9574385892114
 30
0
 11
3788.612924239656
 21
-577.29229995812
 31
0
 12
3788.612924239656
 22
-580.6225772203028
 32
0
 13
3788.612924239656
 23
-580.6225772203028
 33
0
  0
SOLID
  5
BA
100
AcDbEntity
  8
dimesion
  6
ByBlock
 62
    0
370
   -2
100
AcDbTrace
 10
4078.612924239657
 20
-578.9574385892114
 30
0
 11
4068.612924239657
 21
-580.6225772203028
 31
0
 12
4068.612924239657
 22
-577.29229995812
 32
0
 13
4068.612924239657
 23
-577.29229995812
 33
0
  0
LINE
  5
BB
100
AcDbEntity
  8
dimesion
  6
ByBlock
 62
    0
370
   -2
100
AcDbLine
 10
3778.612924239656
 20
-547.8307135950539
 11
3778.612924239656
 21
-580.2074385892114
  0
LINE
  5
BC
100
AcDbEntity
  8
dimesion
  6
ByBlock
 62
    0
370
   -2
100
AcDbLine
 10
4078.612924239657
 20
-547.8307135950539
 11
4078.612924239657
 21
-580.2074385892114
  0
ENDBLK
  5
6E
330
6C
100
AcDbEntity
  8
0
100
AcDbBlockEnd
  0
BLOCK
  5
70
330
6F
100
AcDbEntity
  8
0
100
AcDbBlockBegin
  2
*U7
 70
    0
 10
0
 20
0
  3
*U7
  1

  0
CIRCLE
  5
BD
100
AcDbEntity
  8
outlines
  6
ByLayer
 62
  256
370
   -1
100
AcDbCircle
 10
0
 20
0
 40
4.216902666990791
  0
ENDBLK
  5
71
330
6F
100
AcDbEntity
  8
0
100
AcDbBlockEnd
  0
BLOCK
  5
73
330
72
100
AcDbEntity
  8
0
100
AcDbBlockBegin
  2
*U8
 70
    0
 10
0
 20
0
  3
*U8
  1

  0
INSERT
  5
BE
100
AcDbEntity
  8
outlines
  6
ByBlock
 62
    0
370
   -2
100
AcDbBlockReference
  2
*U7
 10
0
 20
0
 30
0
 41
1
 42
1
 43
0
 50
0
 70
    1
 71
    1
 44
0
 45
0
  0
INSERT
  5
BF
100
AcDbEntity
  8
outlines
  6
ByBlock
 62
    0
370
   -2
100
AcDbBlockReference
  2
*U7
 10
57.7
 20
0
 30
0
 41
1
 42
1
 43
0
 50
0
 70
    1
 71
    1
 44
0
 45
0
  0
INSERT
  5
C0
100
AcDbEntity
  8
outlines
  6
ByBlock
 62
    0
370
   -2
100
AcDbBlockReference
  2
*U7
 10
115.4
 20
0
 30
0
 41
1
 42
1
 43
0
 50
0
 70
    1
 71
    1
 44
0
 45
0
  0
INSERT
  5
C1
100
AcDbEntity
  8
outlines
  6
ByBlock
 62
    0
370
   -2
100
AcDbBlockReference
  2
*U7
 10
173.1
 20
0
 30
0
 41
1
 42
1
 43
0
 50
0
 70
    1
 71
    1
 44
0
 45
0
  0
INSERT
  5
C2
100
AcDbEntity
  8
outlines
  6
ByBlock
 62
    0
370
   -2
100
AcDbBlockReference
  2
*U7
 10
230.8
 20
0
 30
0
 41
1
 42
1
 43
0
 50
0
 70
    1
 71
    1
 44
0
 45
0
  0
ENDBLK
  5
74
330
72
100
AcDbEntity
  8
0
100
AcDbBlockEnd
  0
BLOCK
  5
76
330
75
100
AcDbEntity
  8
0
100
AcDbBlockBegin
  2
*U9
 70
    0
 10
0
 20
0
  3
*U9
  1

  0
CIRCLE
  5
C3
100
AcDbEntity
  8
outlines
  6
ByLayer
 62
  256
370
   -1
100
AcDbCircle
 10
0
 20
0
 40
4.216902666990791
  0
ENDBLK
  5
77
330
75
100
AcDbEntity
  8
0
100
AcDbBlockEnd
  0
BLOCK
  5
79
330
78
100
AcDbEntity
  8
0
100
AcDbBlockBegin
  2
*U10
 70
    0
 10
0
 20
0
  3
*U10
  1

  0
INSERT
  5
C4
100
AcDbEntity
  8
outlines
  6
ByBlock
 62
    0
370
   -2
100
AcDbBlockReference
  2
*U9
 10
0
 20
0
 30
0
 41
1
 42
1
 43
0
 50
0
 70
    1
 71
    1
 44
0
 45
0
  0
INSERT
  5
C5
100
AcDbEntity
  8
outlines
  6
ByBlock
 62
    0
370
   -2
100
AcDbBlockReference
  2
*U9
 10
230
 20
0
 30
0
 41
1
 42
1
 43
0
 50
0
 70
    1
 71
    1
 44
0
 45
0
  0
ENDBLK
  5
7A
330
78
100
AcDbEntity
  8
0
100
AcDbBlockEnd
  0
BLOCK
  5
7C
330
7B
100
AcDbEntity
  8
0
100
AcDbBlockBegin
  2
*U21
 70
    0
 10
0
 20
0
  3
*U21
  1

  0
CIRCLE
  5
C6
100
AcDbEntity
  8
outlines
  6
ByLayer
 62
  256
370
   -1
100
AcDbCircle
 10
0
 20
0
 40
4.216902666990791
  0
ENDBLK
  5
7D
330
7B
100
AcDbEntity
  8
0
100
AcDbBlockEnd
  0
BLOCK
  5
7F
330
7E
100
AcDbEntity
  8
0
100
AcDbBlockBegin
  2
*U22
 70
    0
 10
0
 20
0
  3
*U22
  1

  0
INSERT
  5
C7
100
AcDbEntity
  8
outlines
  6
ByBlock
 62
    0
370
   -2
100
AcDbBlockReference
  2
*U21
 10
0
 20
0
 30
0
 41
1
 42
1
 43
0
 50
0
 70
    1
 71
    1
 44
0
 45
0
  0
INSERT
  5
C8
100
AcDbEntity
  8
outlines
  6
ByBlock
 62
    0
370
   -2
100
AcDbBlockReference
  2
*U21
 10
115
 20
0
 30
0
 41
1
 42
1
 43
0
 50
0
 70
    1
 71
    1
 44
0
 45
0
  0
INSERT
  5
C9
100
AcDbEntity
  8
outlines
  6
ByBlock
 62
    0
370
   -2
100
AcDbBlockReference
  2
*U21
 10
230
 20
0
 30
0
 41
1
 42
1
 43
0
 50
0
 70
    1
 71
    1
 44
0
 45
0
  0
ENDBLK
  5
80
330
7E
100
AcDbEntity
  8
0
100
AcDbBlockEnd
  0
BLOCK
  5
82
330
81
100
AcDbEntity
  8
0
100
AcDbBlockBegin
  2
*U23
 70
    0
 10
0
 20
0
  3
*U23
  1

  0
CIRCLE
  5
CA
100
AcDbEntity
  8
outlines
  6
ByLayer
 62
  256
370
   -1
100
AcDbCircle
 10
0
 20
0
 40
4.216902666990791
  0
ENDBLK
  5
83
330
81
100
AcDbEntity
  8
0
100
AcDbBlockEnd
  0
BLOCK
  5
85
330
84
100
AcDbEntity
  8
0
100
AcDbBlockBegin
  2
*U24
 70
    0
 10
0
 20
0
  3
*U24
  1

  0
INSERT
  5
CB
100
AcDbEntity
  8
outlines
  6
ByBlock
 62
    0
370
   -2
100
AcDbBlockReference
  2
*U23
 10
0
 20
0
 30
0
 41
1
 42
1
 43
0
 50
0
 70
    1
 71
    1
 44
0
 45
0
  0
INSERT
  5
CC
100
AcDbEntity
  8
outlines
  6
ByBlock
 62
    0
370
   -2
100
AcDbBlockReference
  2
*U23
 10
77
 20
0
 30
0
 41
1
 42
1
 43
0
 50
0
 70
    1
 71
    1
 44
0
 45
0
  0
INSERT
  5
CD
100
AcDbEntity
  8
outlines
  6
ByBlock
 62
    0
370
   -2
100
AcDbBlockReference
  2
*U23
 10
154
 20
0
 30
0
 41
1
 42
1
 43
0
 50
0
 70
    1
 71
    1
 44
0
 45
0
  0
INSERT
  5
CE
100
AcDbEntity
  8
outlines
  6
ByBlock
 62
    0
370
   -2
100
AcDbBlockReference
  2
*U23
 10
231
 20
0
 30
0
 41
1
 42
1
 43
0
 50
0
 70
    1
 71
    1
 44
0
 45
0
  0
ENDBLK
  5
86
330
84
100
AcDbEntity
  8
0
100
AcDbBlockEnd
  0
ENDSEC
  0
SECTION
  2
ENTITIES
  0
LINE
  5
CF
100
AcDbEntity
  8
outlines
  6
ByLayer
 62
  256
370
   -1
100
AcDbLine
 10
2990
 20
60
 11
4690
 21
60
  0
LINE
  5
D0
100
AcDbEntity
  8
outlines
  6
ByLayer
 62
    1
370
   -1
100
AcDbLine
 10
3029
 20
85
 11
4651
 21
85
  0
LINE
  5
D1
100
AcDbEntity
  8
outlines
  6
ByLayer
 62
    1
370
   -1
100
AcDbLine
 10
3029
 20
195
 11
4651
 21
195
  0
LINE
  5
D2
100
AcDbEntity
  8
outlines
  6
ByLayer
 62
  256
370
   -1
100
AcDbLine
 10
2990
 20
220
 11
4690
 21
220
  0
LINE
  5
D3
100
AcDbEntity
  8
outlines
  6
ByLayer
 62
  256
370
   -1
100
AcDbLine
 10
2990
 20
220
 11
2990
 21
60
  0
LINE
  5
D4
100
AcDbEntity
  8
outlines
  6
ByLayer
 62
  256
370
   -1
100
AcDbLine
 10
4690
 20
220
 11
4690
 21
60
  0
LINE
  5
D5
100
AcDbEntity
  8
outlines
  6
ByLayer
 62
    1
370
   -1
100
AcDbLine
 10
3020
 20
186
 11
3020
 21
178
  0
LINE
  5
D6
100
AcDbEntity
  8
outlines
  6
ByLayer
 62
    1
370
   -1
100
AcDbLine
 10
4660
 20
102
 11
4660
 21
94
  0
ARC
  5
D7
100
AcDbEntity
  8
outlines
  6
ByLayer
 62
    1
370
   -1
100
AcDbCircle
 10
3029
 20
186
 40
9
100
AcDbArc
 50
90
 51
180
  0
ARC
  5
D8
100
AcDbEntity
  8
outlines
  6
ByLayer
 62
    1
370
   -1
100
AcDbCircle
 10
3029
 20
94
 40
9
100
AcDbArc
 50
180
 51
270
  0
ARC
  5
D9
100
AcDbEntity
  8
outlines
  6
ByLayer
 62
    1
370
   -1
100
AcDbCircle
 10
4651
 20
186
 40
9
100
AcDbArc
 50
0
 51
90
  0
ARC
  5
DA
100
AcDbEntity
  8
outlines
  6
ByLayer
 62
    1
370
   -1
100
AcDbCircle
 10
4651
 20
94
 40
9
100
AcDbArc
 50
270
 51
0
  0
LINE
  5
DB
100
AcDbEntity
  8
outlines
  6
ByLayer
 62
    1
370
   -1
100
AcDbLine
 10
3028
 20
170
 11
3040
 21
170
  0
LINE
  5
DC
100
AcDbEntity
  8
outlines
  6
ByLayer
 62
    1
370
   -1
100
AcDbLine
 10
3028
 20
110
 11
3040
 21
110
  0
ARC
  5
DD
100
AcDbEntity
  8
outlines
  6
ByLayer
 62
    1
370
   -1
100
AcDbCircle
 10
3028
 20
178
 40
8
100
AcDbArc
 50
180
 51
270
  0
LINE
  5
DE
100
AcDbEntity
  8
outlines
  6
ByLayer
 62
    1
370
   -1
100
AcDbLine
 10
3020
 20
94
 11
3020
 21
102
  0
ARC
  5
DF
100
AcDbEntity
  8
outlines
  6
ByLayer
 62
    1
370
   -1
100
AcDbCircle
 10
3028
 20
102
 40
8
100
AcDbArc
 50
90
 51
180
  0
LINE
  5
E0
100
AcDbEntity
  8
outlines
  6
ByLayer
 62
    1
370
   -1
100
AcDbLine
 10
4640
 20
170
 11
4652
 21
170
  0
LINE
  5
E1
100
AcDbEntity
  8
outlines
  6
ByLayer
 62
    1
370
   -1
100
AcDbLine
 10
4640
 20
110
 11
4652
 21
110
  0
ARC
  5
E2
100
AcDbEntity
  8
outlines
  6
ByLayer
 62
    1
370
   -1
100
AcDbCircle
 10
4652
 20
102
 40
8
100
AcDbArc
 50
0
 51
90
  0
LINE
  5
E3
100
AcDbEntity
  8
outlines
  6
ByLayer
 62
    1
370
   -1
100
AcDbLine
 10
4660
 20
178
 11
4660
 21
186
  0
ARC
  5
E4
100
AcDbEntity
  8
outlines
  6
ByLayer
 62
    1
370
   -1
100
AcDbCircle
 10
4652
 20
178
 40
8
100
AcDbArc
 50
270
 51
0
  0
LINE
  5
E5
100
AcDbEntity
  8
outlines
  6
ByLayer
 62
  256
370
   -1
100
AcDbLine
 10
2990
 20
220
 11
2990
 21
245
  0
LINE
  5
E6
100
AcDbEntity
  8
outlines
  6
ByLayer
 62
  256
370
   -1
100
AcDbLine
 10
2990
 20
245
 11
2840
 21
245
  0
LINE
  5
E7
100
AcDbEntity
  8
outlines
  6
ByLayer
 62
  256
370
   -1
100
AcDbLine
 10
2840
 20
245
 11
2840
 21
45
  0
LINE
  5
E8
100
AcDbEntity
  8
outlines
  6
ByLayer
 62
  256
370
   -1
100
AcDbLine
 10
2840
 20
45
 11
2840
 21
-5
  0
LINE
  5
E9
100
AcDbEntity
  8
outlines
  6
ByLayer
 62
  256
370
   -1
100
AcDbLine
 10
2840
 20
-5
 11
3140
 21
-5
  0
LINE
  5
EA
100
AcDbEntity
  8
outlines
  6
ByLayer
 62
  256
370
   -1
100
AcDbLine
 10
3140
 20
-5
 11
3140
 21
60
  0
LINE
  5
EB
100
AcDbEntity
  8
outlines
  6
ByLayer
 62
  256
370
   -1
100
AcDbLine
 10
4690
 20
220
 11
4690
 21
245
  0
LINE
  5
EC
100
AcDbEntity
  8
outlines
  6
ByLayer
 62
  256
370
   -1
100
AcDbLine
 10
4690
 20
245
 11
4840
 21
245
  0
LINE
  5
ED
100
AcDbEntity
  8
outlines
  6
ByLayer
 62
  256
370
   -1
100
AcDbLine
 10
4840
 20
245
 11
4840
 21
-5
  0
LINE
  5
EE
100
AcDbEntity
  8
outlines
  6
ByLayer
 62
  256
370
   -1
100
AcDbLine
 10
4840
 20
-5
 11
4540
 21
-5
  0
LINE
  5
EF
100
AcDbEntity
  8
outlines
  6
ByLayer
 62
  256
370
   -1
100
AcDbLine
 10
4540
 20
-5
 11
4540
 21
60
  0
HATCH
  5
F0
100
AcDbEntity
  8
hatch
  6
ByLayer
 62
  256
370
   -1
100
AcDbHatch
 10
0
 20
0
 30
0
210
0
220
0
230
1
  2
ANSI31
 70
    0
 71
    0
 91
    2
 92
    0
 93
    8
 72
    1
 10
2990
 20
220
 11
2990
 21
245
 72
    1
 10
2990
 20
245
 11
2840
 21
245
 72
    1
 10
2840
 20
245
 11
2840
 21
45
 72
    1
 10
2840
 20
45
 11
2840
 21
-5
 72
    1
 10
2840
 20
-5
 11
3140
 21
-5
 72
    1
 10
3140
 20
-5
 11
3140
 21
60
 72
    1
 10
3140
 20
60
 11
2990
 21
60
 72
    1
 10
2990
 20
60
 11
2990
 21
220
 97
    0
 92
    0
 93
    7
 72
    1
 10
4840
 20
245
 11
4690
 21
245
 72
    1
 10
4690
 20
245
 11
4690
 21
220
 72
    1
 10
4690
 20
220
 11
4690
 21
60
 72
    1
 10
4690
 20
60
 11
4540
 21
60
 72
    1
 10
4540
 20
60
 11
4540
 21
-5
 72
    1
 10
4540
 20
-5
 11
4840
 21
-5
 72
    1
 10
4840
 20
-5
 11
4840
 21
245
 97
    0
 75
    0
 76
    1
 52
0
 41
1
 77
    0
 78
    0
 98
    0
  0
DIMENSION
  5
F1
100
AcDbEntity
  8
dimesion
  6
ByLayer
 62
  256
370
   -1
100
AcDbDimension
  2
*D1
 10
4540
 20
-82.30154191841393
 30
0
 11
3840
 21
-71.4650821639801
 31
0
 70
   32
 71
    5
 72
    0
  3
ISO-25
 53
0
210
0
220
0
230
1
100
AcDbAlignedDimension
 13
3140
 23
-5
 33
0
 14
4540
 24
-5
 34
0
 50
180
100
AcDbRotatedDimension
  0
DIMENSION
  5
F2
100
AcDbEntity
  8
dimesion
  6
ByLayer
 62
  256
370
   -1
100
AcDbDimension
  2
*D2
 10
4654.184560528791
 20
245.0000000000001
 30
0
 11
4643.348100774356
 21
270.19525920873
 31
0
 70
   32
 71
    5
 72
    0
  3
ISO-25
 53
0
210
0
220
0
230
1
100
AcDbAlignedDimension
 13
4690
 23
220
 33
0
 14
4690
 24
245
 34
0
 50
90
100
AcDbRotatedDimension
  0
LINE
  5
F3
100
AcDbEntity
  8
outlines
  6
ByLayer
 62
  256
370
   -1
100
AcDbLine
 10
2994.972279690897
 20
-403.7669747846176
 11
2994.972279690897
 21
-563.7669747846176
  0
LINE
  5
F4
100
AcDbEntity
  8
outlines
  6
ByLayer
 62
  256
370
   -1
100
AcDbLine
 10
2994.972279690897
 20
-563.7669747846176
 11
3294.972279690897
 21
-563.7669747846176
  0
LINE
  5
F5
100
AcDbEntity
  8
outlines
  6
ByLayer
 62
  256
370
   -1
100
AcDbLine
 10
3294.972279690897
 20
-563.7669747846176
 11
3294.972279690897
 21
-403.7669747846176
  0
LINE
  5
F6
100
AcDbEntity
  8
outlines
  6
ByLayer
 62
  256
370
   -1
100
AcDbLine
 10
3294.972279690897
 20
-403.7669747846176
 11
2994.972279690897
 21
-403.7669747846176
  0
LINE
  5
F7
100
AcDbEntity
  8
outlines
  6
ByLayer
 62
  256
370
   -1
100
AcDbLine
 10
3264.972279690897
 20
-533.7669747846176
 11
3264.972279690897
 21
-428.7669747846176
  0
LINE
  5
F8
100
AcDbEntity
  8
outlines
  6
ByLayer
 62
  256
370
   -1
100
AcDbLine
 10
3024.972279690897
 20
-533.7669747846176
 11
3264.972279690897
 21
-533.7669747846176
  0
LINE
  5
F9
100
AcDbEntity
  8
outlines
  6
ByLayer
 62
  256
370
   -1
100
AcDbLine
 10
3024.972279690897
 20
-428.7669747846176
 11
3024.972279690897
 21
-533.7669747846176
  0
INSERT
  5
FA
100
AcDbEntity
  8
outlines
  6
ByLayer
 62
  256
370
   -1
100
AcDbBlockReference
  2
*U8
 10
3029.279424644083
 20
-529.3568381895748
 30
0
 41
1
 42
1
 43
0
 50
0
 70
    1
 71
    1
 44
0
 45
0
  0
HATCH
  5
FB
100
AcDbEntity
  8
outlines
  6
ByLayer
 62
   32
420
13461800
370
   -1
100
AcDbHatch
 10
0
 20
0
 30
0
210
0
220
0
230
1
  2
SOLID
 70
    1
 71
    0
 91
    5
 92
    0
 93
    2
 72
    2
 10
3029.279424644083
 20
-529.3568381895748
 40
4.216902666990563
 50
180
 51
0
 73
    1
 72
    2
 10
3029.279424644083
 20
-529.3568381895748
 40
4.216902666990563
 50
0
 51
180
 73
    1
 97
    0
 92
    0
 93
    2
 72
    2
 10
3086.979424644082
 20
-529.3568381895748
 40
4.216902666990563
 50
180
 51
0
 73
    1
 72
    2
 10
3086.979424644082
 20
-529.3568381895748
 40
4.216902666990563
 50
0
 51
180
 73
    1
 97
    0
 92
    0
 93
    2
 72
    2
 10
3144.679424644082
 20
-529.3568381895748
 40
4.216902666990563
 50
180
 51
0
 73
    1
 72
    2
 10
3144.679424644082
 20
-529.3568381895748
 40
4.216902666990563
 50
0
 51
180
 73
    1
 97
    0
 92
    0
 93
    2
 72
    2
 10
3202.379424644083
 20
-529.3568381895748
 40
4.216902666990336
 50
180
 51
0
 73
    1
 72
    2
 10
3202.379424644083
 20
-529.3568381895748
 40
4.216902666990336
 50
0
 51
180
 73
    1
 97
    0
 92
    0
 93
    2
 72
    2
 10
3260.079424644083
 20
-529.3568381895748
 40
4.216902666991018
 50
0
 51
180
 73
    1
 72
    2
 10
3260.079424644083
 20
-529.3568381895748
 40
4.216902666991018
 50
180
 51
0
 73
    1
 97
    0
 75
    0
 76
    1
 98
    0
  0
INSERT
  5
FC
100
AcDbEntity
  8
outlines
  6
ByLayer
 62
  256
370
   -1
100
AcDbBlockReference
  2
*U10
 10
3029.512533360328
 20
-433.1923835802645
 30
0
 41
1
 42
1
 43
0
 50
0
 70
    1
 71
    1
 44
0
 45
0
  0
HATCH
  5
FD
100
AcDbEntity
  8
outlines
  6
ByLayer
 62
   32
420
13461800
370
   -1
100
AcDbHatch
 10
0
 20
0
 30
0
210
0
220
0
230
1
  2
SOLID
 70
    1
 71
    0
 91
    2
 92
    0
 93
    2
 72
    2
 10
3029.512533360328
 20
-433.1923835802645
 40
4.216902666991018
 50
180
 51
0
 73
    1
 72
    2
 10
3029.512533360328
 20
-433.1923835802645
 40
4.216902666991018
 50
0
 51
180
 73
    1
 97
    0
 92
    0
 93
    2
 72
    2
 10
3259.512533360328
 20
-433.1923835802645
 40
4.216902666991018
 50
180
 51
0
 73
    1
 72
    2
 10
3259.512533360328
 20
-433.1923835802645
 40
4.216902666991018
 50
0
 51
180
 73
    1
 97
    0
 75
    0
 76
    1
 98
    0
  0
DIMENSION
  5
FE
100
AcDbEntity
  8
dimesion
  6
ByLayer
 62
  256
370
   -1
100
AcDbDimension
  2
*D3
 10
2973.758090910461
 20
-563.7669747846178
 30
0
 11
2962.921631156027
 21
-483.7669747846185
 31
0
 70
   32
 71
    5
 72
    0
  3
ISO-25
 53
0
210
0
220
0
230
1
100
AcDbAlignedDimension
 13
2994.972279690897
 23
-403.7669747846176
 33
0
 14
2994.972279690897
 24
-563.7669747846176
 34
0
 50
90
100
AcDbRotatedDimension
  0
DIMENSION
  5
FF
100
AcDbEntity
  8
dimesion
  6
ByLayer
 62
  256
370
   -1
100
AcDbDimension
  2
*D4
 10
3294.972279690898
 20
-595.518699778775
 30
0
 11
3144.972279690897
 21
-584.6754187419401
 31
0
 70
   32
 71
    5
 72
    0
  3
ISO-25
 53
0
210
0
220
0
230
1
100
AcDbAlignedDimension
 13
2994.972279690897
 23
-563.7669747846176
 33
0
 14
3294.972279690898
 24
-563.7669747846176
 34
0
100
AcDbRotatedDimension
  0
LINE
  5
100
100
AcDbEntity
  8
outlines
  6
ByLayer
 62
  256
370
   -1
100
AcDbLine
 10
3264.972279690897
 20
-428.7669747846176
 11
3024.972279690897
 21
-428.7669747846176
  0
DIMENSION
  5
101
100
AcDbEntity
  8
dimesion
  6
ByLayer
 62
  256
370
   -1
100
AcDbDimension
  2
*D5
 10
4415.391290409147
 20
60.00000000000002
 30
0
 11
4404.349903572343
 21
35.80884822028082
 31
0
 70
   32
 71
    5
 72
    0
  3
ISO-25
 53
0
210
0
220
0
230
1
100
AcDbAlignedDimension
 13
4440
 23
85
 33
0
 14
4440
 24
60
 34
0
 50
90
100
AcDbRotatedDimension
  0
DIMENSION
  5
102
100
AcDbEntity
  8
dimesion
  6
ByLayer
 62
  256
370
   -1
100
AcDbDimension
  2
*D6
 10
4690
 20
141.8964140539338
 30
0
 11
4675
 21
152.7396950907687
 31
0
 70
   32
 71
    5
 72
    0
  3
ISO-25
 53
0
210
0
220
0
230
1
100
AcDbAlignedDimension
 13
4660
 23
94
 33
0
 14
4690
 24
94
 34
0
100
AcDbRotatedDimension
  0
LINE
  5
103
100
AcDbEntity
  8
outlines
  6
ByLayer
 62
  256
370
   -1
100
AcDbLine
 10
3778.612924239656
 20
-387.2057135950539
 11
3778.612924239656
 21
-547.2057135950539
  0
LINE
  5
104
100
AcDbEntity
  8
outlines
  6
ByLayer
 62
  256
370
   -1
100
AcDbLine
 10
3808.612924239656
 20
-412.2057135950539
 11
3808.612924239656
 21
-517.2057135950539
  0
LINE
  5
105
100
AcDbEntity
  8
outlines
  6
ByLayer
 62
  256
370
   -1
100
AcDbLine
 10
3778.612924239656
 20
-547.2057135950539
 11
4078.612924239656
 21
-547.2057135950539
  0
LINE
  5
106
100
AcDbEntity
  8
outlines
  6
ByLayer
 62
  256
370
   -1
100
AcDbLine
 10
3808.612924239656
 20
-517.2057135950539
 11
4048.612924239656
 21
-517.2057135950539
  0
LINE
  5
107
100
AcDbEntity
  8
outlines
  6
ByLayer
 62
  256
370
   -1
100
AcDbLine
 10
4078.612924239656
 20
-547.2057135950539
 11
4078.612924239656
 21
-387.2057135950539
  0
LINE
  5
108
100
AcDbEntity
  8
outlines
  6
ByLayer
 62
  256
370
   -1
100
AcDbLine
 10
4048.612924239656
 20
-517.2057135950539
 11
4048.612924239656
 21
-412.2057135950539
  0
LINE
  5
109
100
AcDbEntity
  8
outlines
  6
ByLayer
 62
  256
370
   -1
100
AcDbLine
 10
4078.612924239656
 20
-387.2057135950539
 11
3778.612924239656
 21
-387.2057135950539
  0
LINE
  5
10A
100
AcDbEntity
  8
outlines
  6
ByLayer
 62
  256
370
   -1
100
AcDbLine
 10
4048.612924239656
 20
-412.2057135950539
 11
3808.612924239656
 21
-412.2057135950539
  0
INSERT
  5
10B
100
AcDbEntity
  8
outlines
  6
ByLayer
 62
  256
370
   -1
100
AcDbBlockReference
  2
*U22
 10
3812.920069192842
 20
-512.7955770000111
 30
0
 41
1
 42
1
 43
0
 50
0
 70
    1
 71
    1
 44
0
 45
0
  0
HATCH
  5
10C
100
AcDbEntity
  8
outlines
  6
ByLayer
 62
   32
420
13461800
370
   -1
100
AcDbHatch
 10
0
 20
0
 30
0
210
0
220
0
230
1
  2
SOLID
 70
    1
 71
    0
 91
    2
 92
    0
 93
    2
 72
    2
 10
3813.153177909087
 20
-416.6311223907009
 40
4.216902666990563
 50
180
 51
0
 73
    1
 72
    2
 10
3813.153177909087
 20
-416.6311223907009
 40
4.216902666990563
 50
0
 51
180
 73
    1
 97
    0
 92
    0
 93
    2
 72
    2
 10
4043.153177909087
 20
-416.6311223907009
 40
4.216902666990563
 50
180
 51
0
 73
    1
 72
    2
 10
4043.153177909087
 20
-416.6311223907009
 40
4.216902666990563
 50
0
 51
180
 73
    1
 97
    0
 75
    0
 76
    1
 98
    0
  0
INSERT
  5
10D
100
AcDbEntity
  8
outlines
  6
ByLayer
 62
  256
370
   -1
100
AcDbBlockReference
  2
*U24
 10
3813.153177909087
 20
-416.6311223907009
 30
0
 41
1
 42
1
 43
0
 50
0
 70
    1
 71
    1
 44
0
 45
0
  0
DIMENSION
  5
10E
100
AcDbEntity
  8
dimesion
  6
ByLayer
 62
  256
370
   -1
100
AcDbDimension
  2
*D7
 10
4078.612924239657
 20
-578.9574385892114
 30
0
 11
3928.612924239656
 21
-568.1141575523765
 31
0
 70
   32
 71
    5
 72
    0
  3
ISO-25
 53
0
210
0
220
0
230
1
100
AcDbAlignedDimension
 13
3778.612924239656
 23
-547.2057135950539
 33
0
 14
4078.612924239657
 24
-547.2057135950539
 34
0
100
AcDbRotatedDimension
  0
HATCH
  5
10F
100
AcDbEntity
  8
hatch
  6
ByLayer
 62
   32
420
13461800
370
   -1
100
AcDbHatch
 10
0
 20
0
 30
0
210
0
220
0
230
1
  2
SOLID
 70
    1
 71
    0
 91
    5
 92
    0
 93
    2
 72
    2
 10
3890.153177909087
 20
-416.6311223907009
 40
4.216902666990563
 50
0
 51
180
 73
    1
 72
    2
 10
3890.153177909087
 20
-416.6311223907009
 40
4.216902666990563
 50
180
 51
0
 73
    1
 97
    0
 92
    0
 93
    2
 72
    2
 10
3967.153177909087
 20
-416.6311223907009
 40
4.216902666990563
 50
180
 51
0
 73
    1
 72
    2
 10
3967.153177909087
 20
-416.6311223907009
 40
4.216902666990563
 50
0
 51
180
 73
    1
 97
    0
 92
    0
 93
    2
 72
    2
 10
3927.920069192842
 20
-512.7955770000111
 40
4.216902666991018
 50
180
 51
0
 73
    1
 72
    2
 10
3927.920069192842
 20
-512.7955770000111
 40
4.216902666991018
 50
0
 51
180
 73
    1
 97
    0
 92
    0
 93
    2
 72
    2
 10
3812.920069192842
 20
-512.7955770000111
 40
4.216902666991018
 50
0
 51
180
 73
    1
 72
    2
 10
3812.920069192842
 20
-512.7955770000111
 40
4.216902666991018
 50
180
 51
0
 73
    1
 97
    0
 92
    0
 93
    2
 72
    2
 10
4042.920069192842
 20
-512.7955770000111
 40
4.216902666991018
 50
0
 51
180
 73
    1
 72
    2
 10
4042.920069192842
 20
-512.7955770000111
 40
4.216902666991018
 50
180
 51
0
 73
    1
 97
    0
 75
    0
 76
    1
 98
    0
  0
MTEXT
  5
110
100
AcDbEntity
  8
dimesion
  6
ByLayer
 62
  256
370
   -1
100
AcDbMText
 10
3038.484129423079
 20
-502.158846287477
 30
0
 40
20
 41
8.888888888890129
 71
    1
 72
    5
  1
5
  7
STANDARD
210
0
220
0
230
1
 50
0
 73
    1
 44
1
  0
MTEXT
  5
111
100
AcDbEntity
  8
dimesion
  6
ByLayer
 62
  256
370
   -1
100
AcDbMText
 10
3083.097141278296
 20
-500.9117083622437
 30
0
 40
20
 41
11.11111111111111
 71
    1
 72
    5
  1
4
  7
STANDARD
210
0
220
0
230
1
 50
0
 73
    1
 44
1
  0
MTEXT
  5
112
100
AcDbEntity
  8
dimesion
  6
ByLayer
 62
  256
370
   -1
100
AcDbMText
 10
3146.37255391691
 20
-499.7968100427115
 30
0
 40
20
 41
8.888888888890129
 71
    1
 72
    5
  1
3
  7
STANDARD
210
0
220
0
230
1
 50
0
 73
    1
 44
1
  0
MTEXT
  5
113
100
AcDbEntity
  8
dimesion
  6
ByLayer
 62
  256
370
   -1
100
AcDbMText
 10
3199.679055861103
 20
-497.387261757236
 30
0
 40
20
 41
8.888888888888889
 71
    1
 72
    5
  1
2
  7
STANDARD
210
0
220
0
230
1
 50
0
 73
    1
 44
1
  0
MTEXT
  5
114
100
AcDbEntity
  8
dimesion
  6
ByLayer
 62
  256
370
   -1
100
AcDbMText
 10
3246.743581234464
 20
-500.5347399962793
 30
0
 40
20
 41
4.444444444444445
 71
    1
 72
    5
  1
1
  7
STANDARD
210
0
220
0
230
1
 50
0
 73
    1
 44
1
  0
MTEXT
  5
115
100
AcDbEntity
  8
dimesion
  6
ByLayer
 62
  256
370
   -1
100
AcDbMText
 10
3887.440510763226
 20
-428.9151983832799
 30
0
 40
20
 41
11.11111111111111
 71
    1
 72
    5
  1
4
  7
STANDARD
210
0
220
0
230
1
 50
0
 73
    1
 44
1
  0
MTEXT
  5
116
100
AcDbEntity
  8
dimesion
  6
ByLayer
 62
  256
370
   -1
100
AcDbMText
 10
3958.616206020692
 20
-426.5642990351735
 30
0
 40
20
 41
8.888888888888889
 71
    1
 72
    5
  1
2
  7
STANDARD
210
0
220
0
230
1
 50
0
 73
    1
 44
1
  0
MTEXT
  5
117
100
AcDbEntity
  8
dimesion
  6
ByLayer
 62
  256
370
   -1
100
AcDbMText
 10
4019.203842272633
 20
-478.2839720098837
 30
0
 40
20
 41
4.444444444444445
 71
    1
 72
    5
  1
1
  7
STANDARD
210
0
220
0
230
1
 50
0
 73
    1
 44
1
  0
MTEXT
  5
118
100
AcDbEntity
  8
dimesion
  6
ByLayer
 62
  256
370
   -1
100
AcDbMText
 10
3916.263720844341
 20
-471.231292746168
 30
0
 40
20
 41
8.888888888890129
 71
    1
 72
    5
  1
3
  7
STANDARD
210
0
220
0
230
1
 50
0
 73
    1
 44
1
  0
MTEXT
  5
119
100
AcDbEntity
  8
dimesion
  6
ByLayer
 62
  256
370
   -1
100
AcDbMText
 10
3821.55884500852
 20
-474.1699122361497
 30
0
 40
20
 41
8.888888888890129
 71
    1
 72
    5
  1
5
  7
STANDARD
210
0
220
0
230
1
 50
0
 73
    1
 44
1
  0
DIMENSION
  5
11A
100
AcDbEntity
  8
dimesion
  6
ByLayer
 62
  256
370
   -1
100
AcDbDimension
  2
*D8
 10
4128.550815745632
 20
-547.2057135950541
 30
0
 11
4117.51614482555
 21
-467.2057135950552
 31
0
 70
   32
 71
    5
 72
    0
  3
ISO-25
 53
0
210
0
220
0
230
1
100
AcDbAlignedDimension
 13
4078.612924239656
 23
-387.2057135950539
 33
0
 14
4078.612924239656
 24
-547.2057135950539
 34
0
 50
90
100
AcDbRotatedDimension
  0
LINE
  5
11B
100
AcDbEntity
  8
stirrups
  6
ByLayer
 62
  256
370
   -1
100
AcDbLine
 10
3840
 20
195
 11
3840
 21
85
  0
LINE
  5
11C
100
AcDbEntity
  8
stirrups
  6
ByLayer
 62
  256
370
   -1
100
AcDbLine
 10
4040
 20
195
 11
4040
 21
85
  0
LINE
  5
11D
100
AcDbEntity
  8
stirrups
  6
ByLayer
 62
  256
370
   -1
100
AcDbLine
 10
4240
 20
195
 11
4240
 21
85
  0
LINE
  5
11E
100
AcDbEntity
  8
stirrups
  6
ByLayer
 62
  256
370
   -1
100
AcDbLine
 10
4440
 20
195
 11
4440
 21
85
  0
LINE
  5
11F
100
AcDbEntity
  8
stirrups
  6
ByLayer
 62
  256
370
   -1
100
AcDbLine
 10
4640
 20
195
 11
4640
 21
85
  0
LINE
  5
120
100
AcDbEntity
  8
stirrups
  6
ByLayer
 62
  256
370
   -1
100
AcDbLine
 10
3640
 20
195
 11
3640
 21
85
  0
LINE
  5
121
100
AcDbEntity
  8
stirrups
  6
ByLayer
 62
  256
370
   -1
100
AcDbLine
 10
3440
 20
195
 11
3440
 21
85
  0
LINE
  5
122
100
AcDbEntity
  8
stirrups
  6
ByLayer
 62
  256
370
   -1
100
AcDbLine
 10
3240
 20
195
 11
3240
 21
85
  0
LINE
  5
123
100
AcDbEntity
  8
stirrups
  6
ByLayer
 62
  256
370
   -1
100
AcDbLine
 10
3040
 20
195
 11
3040
 21
85
  0
LINE
  5
124
100
AcDbEntity
  8
outlines
  6
ByLayer
 62
  256
370
   -1
100
AcDbLine
 10
3840
 20
85
 11
4190
 21
85
  0
LINE
  5
125
100
AcDbEntity
  8
outlines
  6
ByLayer
 62
  256
370
   -1
100
AcDbLine
 10
4190
 20
85
 11
4299.403509050746
 21
195
  0
LINE
  5
126
100
AcDbEntity
  8
outlines
  6
ByLayer
 62
  256
370
   -1
100
AcDbLine
 10
4299.403509050746
 20
195
 11
4640
 21
195
  0
LINE
  5
127
100
AcDbEntity
  8
outlines
  6
ByLayer
 62
  256
370
   -1
100
AcDbLine
 10
3840
 20
85
 11
3490
 21
85
  0
LINE
  5
128
100
AcDbEntity
  8
outlines
  6
ByLayer
 62
  256
370
   -1
100
AcDbLine
 10
3490
 20
85
 11
3379.573955543419
 21
195
  0
LINE
  5
129
100
AcDbEntity
  8
outlines
  6
ByLayer
 62
  256
370
   -1
100
AcDbLine
 10
3379.573955543419
 20
195
 11
3040
 21
195
  0
DIMENSION
  5
12A
100
AcDbEntity
  8
dimesion
  6
ByLayer
 62
  256
370
   -1
100
AcDbDimension
  2
*D9
 10
4440
 20
277.5072495628829
 30
0
 11
4340
 21
288.5486363996861
 31
0
 70
   32
 71
    5
 72
    0
  3
ISO-25
 53
0
210
0
220
0
230
1
100
AcDbAlignedDimension
 13
4240
 23
195
 33
0
 14
4440
 24
195
 34
0
100
AcDbRotatedDimension
  0
ENDSEC
  0
SECTION
  2
OBJECTS
  0
DICTIONARY
  5
C
330
0
100
AcDbDictionary
281
    1
  3
ACAD_GROUP
350
D
  0
DICTIONARY
  5
D
330
C
100
AcDbDictionary
281
    1
  0
PLOTSETTINGS
  5
12B
100
AcDbPlotSettings
  6
1x1
 40
0
 41
0
 42
0
 43
0
  0
ENDSEC
  0
EOF
